{"glyphs":{"0":{"ha":781,"x_min":59,"x_max":722,"o":"m 391 -11 q 210 41 284 -11 q 98 193 136 92 q 59 439 59 293 l 59 554 q 98 804 59 703 q 210 958 136 906 q 391 1010 284 1010 q 571 958 497 1010 q 684 804 646 906 q 722 554 722 703 l 722 439 q 684 193 722 293 q 571 41 646 92 q 391 -11 497 -11 m 391 181 q 458 207 431 181 q 499 283 485 233 q 513 406 513 334 l 513 593 q 499 716 513 666 q 458 792 485 766 q 391 819 431 819 q 324 793 351 819 q 283 717 297 767 q 269 593 269 667 l 269 406 q 283 283 269 333 q 324 207 297 233 q 391 181 351 181 m 219 253 l 136 389 l 566 744 l 644 612 l 219 253 z "},"1":{"ha":781,"x_min":110,"x_max":694,"o":"m 317 0 l 317 800 l 357 761 l 117 659 l 117 866 l 467 1000 l 527 1000 l 527 0 l 317 0 m 110 0 l 110 186 l 694 186 l 694 0 l 110 0 z "},"2":{"ha":781,"x_min":60,"x_max":724,"o":"m 73 0 l 73 47 l 334 390 q 415 497 375 444 q 482 602 456 551 q 508 699 508 652 q 493 759 508 732 q 454 801 479 785 q 396 817 429 817 q 333 799 360 817 q 291 750 306 781 q 275 679 275 720 l 60 679 q 105 851 61 776 q 224 968 149 926 q 399 1010 300 1010 q 563 972 490 1010 q 677 866 635 934 q 719 711 719 799 q 691 573 719 637 q 617 446 663 509 q 515 313 570 383 l 420 197 l 420 191 l 546 194 l 724 194 l 724 0 l 73 0 z "},"3":{"ha":781,"x_min":51,"x_max":731,"o":"m 391 -11 q 219 26 296 -11 q 97 130 142 64 q 51 285 52 197 l 262 286 q 283 224 262 250 q 334 185 303 199 q 398 172 365 172 q 461 189 433 172 q 505 233 489 205 q 521 299 521 262 q 504 363 521 335 q 452 409 487 392 q 361 426 417 426 l 307 426 l 309 592 l 367 592 q 439 609 410 592 q 481 653 467 625 q 495 717 495 682 q 483 776 495 751 q 448 814 471 801 q 392 827 425 827 q 336 815 361 827 q 298 780 312 802 q 283 727 283 758 l 83 727 q 122 873 83 810 q 233 974 162 937 q 395 1010 304 1010 q 558 974 489 1010 q 665 874 627 937 q 703 737 703 812 q 665 602 703 660 q 560 512 627 544 q 406 481 493 480 l 406 541 q 574 512 500 543 q 689 420 647 480 q 731 278 731 361 q 687 131 731 197 q 565 27 642 65 q 391 -11 488 -11 z "},"4":{"ha":781,"x_min":24,"x_max":764,"o":"m 459 0 l 459 555 l 467 731 l 462 731 l 366 576 l 243 381 l 243 378 l 764 378 l 764 197 l 24 197 l 24 322 l 472 1000 l 665 1000 l 665 0 l 459 0 z "},"5":{"ha":781,"x_min":59,"x_max":726,"o":"m 385 -11 q 248 14 314 -11 q 132 84 182 39 q 59 187 82 128 l 256 272 q 288 224 267 245 q 336 193 309 204 q 391 181 362 181 q 460 200 430 181 q 507 251 490 218 q 524 326 524 284 q 506 398 524 367 q 456 448 488 430 q 384 466 425 466 q 339 459 361 466 q 299 440 317 452 q 270 412 281 429 l 100 437 l 100 1000 l 646 1000 l 646 806 l 302 806 l 302 515 l 256 584 q 323 622 278 606 q 420 637 369 637 q 578 596 509 637 q 687 484 647 555 q 726 319 726 412 q 682 149 726 223 q 560 32 637 74 q 385 -11 483 -11 z "},"6":{"ha":781,"x_min":44,"x_max":738,"o":"m 397 -11 q 216 35 296 -11 q 90 156 136 81 q 44 321 44 232 q 59 427 44 374 q 95 523 74 479 q 133 593 115 566 l 394 1000 l 628 1000 l 367 595 l 344 608 q 378 628 355 621 q 434 635 401 635 q 583 595 513 635 q 695 483 652 555 q 738 315 738 411 q 693 146 738 219 q 571 31 648 73 q 397 -11 494 -11 m 392 176 q 466 195 433 176 q 517 248 498 214 q 536 322 536 281 q 517 395 536 363 q 466 446 498 427 q 392 464 433 464 q 318 446 351 464 q 266 395 286 427 q 247 322 247 363 q 266 248 247 281 q 318 195 285 215 q 392 176 351 176 z "},"7":{"ha":781,"x_min":37,"x_max":745,"o":"m 122 0 l 463 799 l 463 806 l 37 806 l 37 1000 l 745 1000 l 745 964 l 349 0 l 122 0 z "},"8":{"ha":781,"x_min":42,"x_max":739,"o":"m 392 -11 q 215 27 294 -11 q 89 132 136 66 q 42 283 42 199 q 89 433 42 367 q 215 538 136 500 q 392 576 294 576 q 568 538 489 576 q 693 433 647 500 q 739 283 739 367 q 693 132 739 199 q 568 27 647 66 q 392 -11 489 -11 m 392 166 q 464 183 431 166 q 516 229 496 200 q 536 294 536 258 q 516 362 536 332 q 464 409 496 392 q 392 427 431 427 q 319 409 352 427 q 267 362 286 392 q 247 294 247 332 q 267 228 247 257 q 319 183 286 199 q 392 166 351 166 m 391 446 q 235 485 304 446 q 127 591 167 525 q 87 736 87 656 q 128 878 87 817 q 238 975 169 940 q 392 1010 307 1010 q 541 977 472 1010 q 652 882 610 943 q 694 736 694 820 q 654 590 694 656 q 545 485 614 524 q 391 446 477 446 m 392 594 q 454 611 426 594 q 498 655 481 627 q 514 719 514 684 q 497 780 514 753 q 452 822 479 807 q 392 838 424 838 q 331 822 359 838 q 285 780 302 807 q 267 719 267 753 q 284 656 267 684 q 329 611 301 628 q 392 594 357 594 z "},"9":{"ha":781,"x_min":43,"x_max":737,"o":"m 385 1010 q 566 965 486 1010 q 691 843 646 919 q 737 679 737 768 q 722 573 737 625 q 687 477 707 521 q 648 407 666 434 l 387 0 l 153 0 l 414 404 l 437 391 q 404 372 427 379 q 347 364 381 364 q 198 405 268 364 q 86 517 129 445 q 43 684 43 589 q 88 854 43 781 q 210 969 133 927 q 385 1010 288 1010 m 389 824 q 316 805 348 824 q 264 752 283 785 q 245 677 245 719 q 264 604 245 636 q 316 554 283 572 q 389 536 348 536 q 463 554 430 536 q 515 605 496 572 q 534 677 534 637 q 515 751 534 718 q 464 804 496 785 q 389 824 431 824 z "},"A":{"ha":781,"x_min":-3,"x_max":784,"o":"m -3 0 l 282 1000 l 499 1000 l 784 0 l 559 0 l 498 256 l 481 342 l 393 739 l 388 739 l 300 342 l 283 256 l 222 0 l -3 0 m 188 200 l 188 384 l 593 384 l 593 200 l 188 200 z "},"Á":{"ha":781,"x_min":-3,"x_max":784,"o":"m -3 0 l 282 1000 l 499 1000 l 784 0 l 559 0 l 498 256 l 481 342 l 393 739 l 388 739 l 300 342 l 283 256 l 222 0 l -3 0 m 188 200 l 188 384 l 593 384 l 593 200 l 188 200 m 391 1048 l 302 1137 l 533 1344 l 633 1213 l 391 1048 z "},"Ă":{"ha":781,"x_min":-3,"x_max":784,"o":"m -3 0 l 282 1000 l 499 1000 l 784 0 l 559 0 l 498 256 l 481 342 l 393 739 l 388 739 l 300 342 l 283 256 l 222 0 l -3 0 m 188 200 l 188 384 l 593 384 l 593 200 l 188 200 m 391 1062 q 264 1087 322 1062 q 171 1161 207 1112 q 136 1281 136 1209 l 263 1281 q 304 1202 264 1226 q 391 1177 345 1177 q 480 1202 441 1177 q 518 1281 519 1226 l 647 1281 q 613 1161 648 1209 q 518 1087 577 1112 q 391 1062 459 1062 z "},"Ắ":{"ha":781,"x_min":-3,"x_max":784,"o":"m -3 0 l 282 1000 l 499 1000 l 784 0 l 559 0 l 498 256 l 481 342 l 393 739 l 388 739 l 300 342 l 283 256 l 222 0 l -3 0 m 188 200 l 188 384 l 593 384 l 593 200 l 188 200 m 373 1238 l 298 1335 l 525 1529 l 618 1400 l 373 1238 m 391 1060 q 257 1087 314 1060 q 168 1163 199 1114 q 136 1277 136 1212 l 265 1277 q 300 1200 265 1230 q 391 1171 334 1171 q 484 1200 448 1171 q 519 1277 519 1230 l 646 1277 q 614 1163 646 1212 q 525 1087 582 1114 q 391 1060 467 1060 z "},"Ặ":{"ha":781,"x_min":-3,"x_max":784,"o":"m -3 0 l 282 1000 l 499 1000 l 784 0 l 559 0 l 498 256 l 481 342 l 393 739 l 388 739 l 300 342 l 283 256 l 222 0 l -3 0 m 188 200 l 188 384 l 593 384 l 593 200 l 188 200 m 389 -337 q 296 -299 334 -337 q 258 -207 258 -262 q 296 -113 258 -151 q 389 -76 334 -76 q 483 -113 445 -76 q 520 -207 520 -151 q 483 -299 520 -262 q 389 -337 445 -337 m 391 1062 q 264 1087 322 1062 q 171 1161 207 1112 q 136 1281 136 1209 l 263 1281 q 304 1202 264 1226 q 391 1177 345 1177 q 480 1202 441 1177 q 518 1281 519 1226 l 647 1281 q 613 1161 648 1209 q 518 1087 577 1112 q 391 1062 459 1062 z "},"Ằ":{"ha":781,"x_min":-3,"x_max":784,"o":"m -3 0 l 282 1000 l 499 1000 l 784 0 l 559 0 l 498 256 l 481 342 l 393 739 l 388 739 l 300 342 l 283 256 l 222 0 l -3 0 m 188 200 l 188 384 l 593 384 l 593 200 l 188 200 m 408 1238 l 163 1400 l 256 1529 l 483 1335 l 408 1238 m 391 1060 q 257 1087 314 1060 q 168 1163 199 1114 q 136 1277 136 1212 l 262 1277 q 298 1200 262 1230 q 391 1171 333 1171 q 481 1200 447 1171 q 516 1277 516 1230 l 646 1277 q 614 1163 646 1212 q 525 1087 582 1114 q 391 1060 467 1060 z "},"Ẳ":{"ha":781,"x_min":-3,"x_max":784,"o":"m -3 0 l 282 1000 l 499 1000 l 784 0 l 559 0 l 498 256 l 481 342 l 393 739 l 388 739 l 300 342 l 283 256 l 222 0 l -3 0 m 188 200 l 188 384 l 593 384 l 593 200 l 188 200 m 391 1060 q 257 1087 314 1060 q 168 1163 199 1114 q 136 1277 136 1212 l 262 1277 q 298 1200 262 1230 q 391 1171 333 1171 q 481 1200 447 1171 q 516 1277 516 1230 l 646 1277 q 614 1163 646 1212 q 525 1087 582 1114 q 391 1060 467 1060 m 395 1219 l 319 1294 q 353 1324 338 1308 q 369 1360 369 1341 q 352 1390 369 1379 q 304 1400 336 1400 q 272 1397 292 1400 q 235 1388 251 1394 l 235 1512 q 278 1523 249 1519 q 331 1527 307 1527 q 451 1492 406 1527 q 496 1390 496 1457 q 464 1284 496 1329 q 395 1219 432 1238 z "},"Ẵ":{"ha":781,"x_min":-3,"x_max":784,"o":"m -3 0 l 282 1000 l 499 1000 l 784 0 l 559 0 l 498 256 l 481 342 l 393 739 l 388 739 l 300 342 l 283 256 l 222 0 l -3 0 m 188 200 l 188 384 l 593 384 l 593 200 l 188 200 m 210 1322 q 251 1470 210 1412 q 368 1527 293 1527 q 432 1516 407 1527 q 476 1489 458 1504 q 510 1461 494 1473 q 545 1450 526 1450 q 582 1471 570 1450 q 591 1527 593 1493 l 722 1527 q 703 1424 722 1470 q 647 1350 684 1377 q 561 1322 611 1322 q 498 1334 524 1322 q 455 1361 473 1345 q 421 1389 437 1377 q 385 1400 405 1400 q 350 1380 361 1400 q 338 1322 338 1360 l 210 1322 m 465 1060 q 331 1087 389 1060 q 242 1163 274 1114 q 210 1277 210 1212 l 337 1277 q 372 1200 337 1230 q 465 1171 408 1171 q 556 1200 522 1171 q 591 1277 591 1230 l 720 1277 q 688 1163 720 1212 q 599 1087 656 1114 q 465 1060 542 1060 z "},"Ǎ":{"ha":781,"x_min":-3,"x_max":784,"o":"m -3 0 l 282 1000 l 499 1000 l 784 0 l 559 0 l 498 256 l 481 342 l 393 739 l 388 739 l 300 342 l 283 256 l 222 0 l -3 0 m 188 200 l 188 384 l 593 384 l 593 200 l 188 200 m 225 1314 l 388 1188 l 391 1188 l 558 1314 l 650 1215 l 411 1047 l 370 1047 l 130 1215 l 225 1314 z "},"Â":{"ha":781,"x_min":-3,"x_max":784,"o":"m -3 0 l 282 1000 l 499 1000 l 784 0 l 559 0 l 498 256 l 481 342 l 393 739 l 388 739 l 300 342 l 283 256 l 222 0 l -3 0 m 188 200 l 188 384 l 593 384 l 593 200 l 188 200 m 226 1050 l 130 1149 l 370 1317 l 412 1317 l 651 1149 l 559 1050 l 392 1177 l 389 1177 l 226 1050 z "},"Ấ":{"ha":781,"x_min":-3,"x_max":840,"o":"m -3 0 l 282 1000 l 499 1000 l 784 0 l 559 0 l 498 256 l 481 342 l 393 739 l 388 739 l 300 342 l 283 256 l 222 0 l -3 0 m 188 200 l 188 384 l 593 384 l 593 200 l 188 200 m 617 1235 l 524 1301 l 741 1527 l 840 1393 l 617 1235 m 227 1040 l 131 1137 l 370 1304 l 412 1304 l 652 1137 l 559 1040 l 393 1166 l 389 1166 l 227 1040 z "},"Ậ":{"ha":781,"x_min":-3,"x_max":784,"o":"m -3 0 l 282 1000 l 499 1000 l 784 0 l 559 0 l 498 256 l 481 342 l 393 739 l 388 739 l 300 342 l 283 256 l 222 0 l -3 0 m 188 200 l 188 384 l 593 384 l 593 200 l 188 200 m 389 -337 q 296 -299 334 -337 q 258 -207 258 -262 q 296 -113 258 -151 q 389 -76 334 -76 q 483 -113 445 -76 q 520 -207 520 -151 q 483 -299 520 -262 q 389 -337 445 -337 m 226 1050 l 130 1149 l 370 1317 l 412 1317 l 651 1149 l 559 1050 l 392 1177 l 389 1177 l 226 1050 z "},"Ầ":{"ha":781,"x_min":-59,"x_max":784,"o":"m -3 0 l 282 1000 l 499 1000 l 784 0 l 559 0 l 498 256 l 481 342 l 393 739 l 388 739 l 300 342 l 283 256 l 222 0 l -3 0 m 188 200 l 188 384 l 593 384 l 593 200 l 188 200 m 164 1235 l -59 1393 l 41 1527 l 257 1301 l 164 1235 m 555 1040 l 392 1166 l 389 1166 l 222 1040 l 130 1137 l 369 1304 l 411 1304 l 650 1137 l 555 1040 z "},"Ẩ":{"ha":781,"x_min":-3,"x_max":784,"o":"m -3 0 l 282 1000 l 499 1000 l 784 0 l 559 0 l 498 256 l 481 342 l 393 739 l 388 739 l 300 342 l 283 256 l 222 0 l -3 0 m 188 200 l 188 384 l 593 384 l 593 200 l 188 200 m 600 1236 l 525 1293 q 558 1325 545 1309 q 570 1358 570 1341 q 554 1389 570 1378 q 504 1400 538 1400 q 472 1397 489 1400 q 437 1388 456 1394 l 437 1513 q 481 1524 451 1520 q 534 1527 511 1527 q 652 1493 608 1527 q 697 1388 697 1460 q 681 1323 697 1352 q 643 1271 665 1293 q 600 1236 620 1249 m 226 1040 l 130 1137 l 370 1304 l 412 1304 l 651 1137 l 559 1040 l 392 1166 l 389 1166 l 226 1040 z "},"Ẫ":{"ha":781,"x_min":-3,"x_max":784,"o":"m -3 0 l 282 1000 l 499 1000 l 784 0 l 559 0 l 498 256 l 481 342 l 393 739 l 388 739 l 300 342 l 283 256 l 222 0 l -3 0 m 188 200 l 188 384 l 593 384 l 593 200 l 188 200 m 135 1322 q 176 1470 133 1413 q 294 1527 218 1527 q 357 1516 332 1527 q 399 1489 382 1504 q 433 1461 417 1473 q 469 1450 450 1450 q 504 1472 492 1450 q 517 1527 516 1493 l 647 1527 q 632 1424 648 1470 q 584 1350 616 1377 q 501 1322 551 1322 q 438 1334 463 1322 q 395 1361 413 1345 q 362 1389 378 1377 q 328 1400 347 1400 q 282 1381 300 1400 q 262 1322 263 1361 l 135 1322 m 225 1040 l 130 1137 l 369 1304 l 411 1304 l 650 1137 l 558 1040 l 391 1166 l 388 1166 l 225 1040 z "},"Ȁ":{"ha":781,"x_min":-3,"x_max":784,"o":"m -3 0 l 282 1000 l 499 1000 l 784 0 l 559 0 l 498 256 l 481 342 l 393 739 l 388 739 l 300 342 l 283 256 l 222 0 l -3 0 m 188 200 l 188 384 l 593 384 l 593 200 l 188 200 m 212 1060 l 37 1278 l 178 1357 l 318 1112 l 212 1060 m 474 1060 l 304 1278 l 444 1357 l 582 1112 l 474 1060 z "},"Ä":{"ha":781,"x_min":-3,"x_max":784,"o":"m -3 0 l 282 1000 l 499 1000 l 784 0 l 559 0 l 498 256 l 481 342 l 393 739 l 388 739 l 300 342 l 283 256 l 222 0 l -3 0 m 188 200 l 188 384 l 593 384 l 593 200 l 188 200 m 557 1050 q 470 1084 505 1050 q 436 1168 435 1117 q 470 1254 435 1220 q 557 1289 505 1289 q 641 1254 608 1289 q 674 1168 674 1220 q 641 1084 674 1117 q 557 1050 608 1050 m 229 1050 q 144 1084 178 1050 q 111 1168 111 1117 q 144 1254 111 1220 q 229 1289 178 1289 q 315 1254 281 1289 q 349 1168 349 1220 q 315 1084 349 1117 q 229 1050 281 1050 z "},"Ȧ":{"ha":781,"x_min":-3,"x_max":784,"o":"m -3 0 l 282 1000 l 499 1000 l 784 0 l 559 0 l 498 256 l 481 342 l 393 739 l 388 739 l 300 342 l 283 256 l 222 0 l -3 0 m 188 200 l 188 384 l 593 384 l 593 200 l 188 200 m 389 1060 q 296 1098 334 1060 q 258 1190 258 1135 q 296 1284 258 1246 q 389 1321 334 1321 q 483 1284 445 1321 q 520 1190 520 1246 q 483 1098 520 1135 q 389 1060 445 1060 z "},"Ạ":{"ha":781,"x_min":-3,"x_max":784,"o":"m -3 0 l 282 1000 l 499 1000 l 784 0 l 559 0 l 498 256 l 481 342 l 393 739 l 388 739 l 300 342 l 283 256 l 222 0 l -3 0 m 188 200 l 188 384 l 593 384 l 593 200 l 188 200 m 389 -337 q 296 -299 334 -337 q 258 -207 258 -262 q 296 -113 258 -151 q 389 -76 334 -76 q 483 -113 445 -76 q 520 -207 520 -151 q 483 -299 520 -262 q 389 -337 445 -337 z "},"À":{"ha":781,"x_min":-3,"x_max":784,"o":"m -3 0 l 282 1000 l 499 1000 l 784 0 l 559 0 l 498 256 l 481 342 l 393 739 l 388 739 l 300 342 l 283 256 l 222 0 l -3 0 m 188 200 l 188 384 l 593 384 l 593 200 l 188 200 m 391 1048 l 148 1213 l 248 1344 l 479 1137 l 391 1048 z "},"Ả":{"ha":781,"x_min":-3,"x_max":784,"o":"m -3 0 l 282 1000 l 499 1000 l 784 0 l 559 0 l 498 256 l 481 342 l 393 739 l 388 739 l 300 342 l 283 256 l 222 0 l -3 0 m 188 200 l 188 384 l 593 384 l 593 200 l 188 200 m 415 1052 l 339 1126 q 373 1157 358 1140 q 389 1193 389 1173 q 372 1222 389 1212 q 324 1232 356 1232 q 292 1230 313 1232 q 256 1220 271 1227 l 256 1344 q 298 1356 269 1352 q 351 1360 327 1360 q 471 1324 426 1360 q 516 1222 516 1289 q 484 1116 516 1162 q 415 1052 452 1070 z "},"Ȃ":{"ha":781,"x_min":-3,"x_max":784,"o":"m -3 0 l 282 1000 l 499 1000 l 784 0 l 559 0 l 498 256 l 481 342 l 393 739 l 388 739 l 300 342 l 283 256 l 222 0 l -3 0 m 188 200 l 188 384 l 593 384 l 593 200 l 188 200 m 389 1284 q 517 1259 458 1284 q 611 1185 576 1234 q 646 1065 646 1136 l 516 1065 q 479 1144 518 1120 q 389 1168 439 1168 q 303 1144 343 1168 q 262 1065 262 1120 l 134 1065 q 170 1185 134 1136 q 263 1259 205 1234 q 389 1284 321 1284 z "},"Ā":{"ha":781,"x_min":-3,"x_max":784,"o":"m -3 0 l 282 1000 l 499 1000 l 784 0 l 559 0 l 498 256 l 481 342 l 393 739 l 388 739 l 300 342 l 283 256 l 222 0 l -3 0 m 188 200 l 188 384 l 593 384 l 593 200 l 188 200 m 123 1098 l 123 1239 l 656 1239 l 656 1098 l 123 1098 z "},"Ą":{"ha":781,"x_min":-3,"x_max":785,"o":"m -3 0 l 282 1000 l 499 1000 l 784 0 l 559 0 l 498 256 l 481 342 l 393 739 l 388 739 l 300 342 l 283 256 l 222 0 l -3 0 m 188 200 l 188 384 l 593 384 l 593 200 l 188 200 m 680 -293 q 571 -255 613 -293 q 530 -155 530 -218 q 568 -54 530 -99 q 675 34 606 -9 l 783 0 q 722 -43 750 -22 q 676 -86 694 -64 q 659 -130 659 -107 q 673 -162 659 -151 q 717 -173 688 -173 q 755 -168 734 -173 q 785 -157 775 -163 l 785 -275 q 734 -288 766 -283 q 680 -293 701 -293 z "},"Å":{"ha":781,"x_min":-3,"x_max":784,"o":"m -3 0 l 282 1000 l 499 1000 l 784 0 l 559 0 l 498 256 l 481 342 l 393 739 l 388 739 l 300 342 l 283 256 l 222 0 l -3 0 m 188 200 l 188 384 l 593 384 l 593 200 l 188 200 m 391 1044 q 296 1069 338 1044 q 229 1135 254 1093 q 204 1227 204 1176 q 229 1323 204 1281 q 296 1390 254 1365 q 391 1414 338 1414 q 486 1390 444 1414 q 553 1323 528 1365 q 577 1227 577 1281 q 553 1135 577 1176 q 486 1069 528 1093 q 391 1044 444 1044 m 391 1158 q 438 1179 420 1158 q 457 1227 456 1199 q 438 1279 458 1260 q 391 1298 418 1298 q 345 1279 363 1298 q 325 1227 326 1260 q 343 1179 324 1200 q 391 1158 362 1158 z "},"Ǻ":{"ha":781,"x_min":-3,"x_max":784,"o":"m -3 0 l 282 1000 l 499 1000 l 784 0 l 559 0 l 498 256 l 481 342 l 393 739 l 388 739 l 300 342 l 283 256 l 222 0 l -3 0 m 188 200 l 188 384 l 593 384 l 593 200 l 188 200 m 391 1040 q 270 1086 319 1040 q 221 1200 221 1133 q 270 1314 221 1269 q 391 1360 319 1360 q 512 1314 464 1360 q 561 1200 561 1269 q 512 1086 561 1133 q 391 1040 464 1040 m 391 1135 q 437 1155 419 1135 q 455 1201 455 1174 q 437 1247 455 1229 q 391 1265 420 1265 q 346 1247 365 1265 q 327 1200 327 1230 q 346 1155 327 1174 q 391 1135 365 1135 m 435 1394 l 347 1483 l 577 1690 l 677 1559 l 435 1394 z "},"Ã":{"ha":781,"x_min":-3,"x_max":784,"o":"m -3 0 l 282 1000 l 499 1000 l 784 0 l 559 0 l 498 256 l 481 342 l 393 739 l 388 739 l 300 342 l 283 256 l 222 0 l -3 0 m 188 200 l 188 384 l 593 384 l 593 200 l 188 200 m 135 1067 q 176 1214 135 1156 q 293 1272 218 1272 q 358 1260 332 1272 q 401 1233 384 1249 q 435 1206 419 1218 q 469 1195 450 1195 q 507 1217 494 1195 q 519 1272 519 1240 l 647 1272 q 606 1126 648 1185 q 486 1067 564 1067 q 423 1079 448 1067 q 380 1106 398 1090 q 346 1134 362 1122 q 311 1146 330 1146 q 275 1125 286 1146 q 264 1067 264 1103 l 135 1067 z "},"Æ":{"ha":781,"x_min":7,"x_max":753,"o":"m 7 0 l 244 1000 l 435 1000 l 435 816 l 364 816 l 265 319 l 264 250 l 205 0 l 7 0 m 178 209 l 178 382 l 491 382 l 491 209 l 178 209 m 397 0 l 392 313 l 392 338 l 379 1000 l 753 1000 l 753 813 l 551 813 l 566 186 l 753 186 l 753 0 l 397 0 m 543 415 l 542 596 l 729 596 l 729 415 l 543 415 z "},"Ǽ":{"ha":781,"x_min":7,"x_max":753,"o":"m 7 0 l 244 1000 l 435 1000 l 435 816 l 364 816 l 265 319 l 264 250 l 205 0 l 7 0 m 178 209 l 178 382 l 491 382 l 491 209 l 178 209 m 397 0 l 392 313 l 392 338 l 379 1000 l 753 1000 l 753 813 l 551 813 l 566 186 l 753 186 l 753 0 l 397 0 m 543 415 l 542 596 l 729 596 l 729 415 l 543 415 m 489 1048 l 401 1137 l 631 1344 l 732 1213 l 489 1048 z "},"B":{"ha":781,"x_min":55,"x_max":745,"o":"m 252 0 l 252 194 l 433 194 q 505 227 477 194 q 532 312 532 259 q 504 393 532 363 q 430 422 476 422 l 251 422 l 251 589 l 387 589 q 433 603 413 589 q 463 643 452 617 q 474 701 474 668 q 450 777 474 749 q 386 806 425 806 l 251 806 l 251 1000 l 378 1000 q 542 966 475 1000 q 645 876 610 933 q 680 745 680 818 q 659 635 680 686 q 602 545 637 583 q 526 490 566 507 l 526 545 q 632 504 583 534 q 713 421 682 473 q 745 290 745 369 q 707 139 745 204 q 604 37 669 74 q 454 0 538 0 l 252 0 m 55 0 l 55 1000 l 270 1000 l 270 0 l 55 0 z "},"C":{"ha":781,"x_min":41,"x_max":741,"o":"m 498 -11 q 259 54 362 -11 q 99 234 156 119 q 41 502 41 350 q 98 767 41 653 q 254 946 154 882 q 489 1010 355 1010 q 618 988 549 1010 q 739 928 688 965 l 657 730 q 585 786 631 764 q 490 808 539 808 q 368 769 420 808 q 288 662 316 730 q 259 502 259 593 q 289 340 259 410 q 372 231 318 270 q 498 192 426 192 q 590 213 545 192 q 660 267 635 234 l 741 70 q 626 12 693 34 q 498 -11 558 -11 z "},"Ć":{"ha":781,"x_min":41,"x_max":741,"o":"m 498 -11 q 259 54 362 -11 q 99 234 156 119 q 41 502 41 350 q 98 767 41 653 q 254 946 154 882 q 489 1010 355 1010 q 618 988 549 1010 q 739 928 688 965 l 657 730 q 585 786 631 764 q 490 808 539 808 q 368 769 420 808 q 288 662 316 730 q 259 502 259 593 q 289 340 259 410 q 372 231 318 270 q 498 192 426 192 q 590 213 545 192 q 660 267 635 234 l 741 70 q 626 12 693 34 q 498 -11 558 -11 m 472 1048 l 384 1137 l 614 1344 l 715 1213 l 472 1048 z "},"Č":{"ha":781,"x_min":41,"x_max":741,"o":"m 498 -11 q 259 54 362 -11 q 99 234 156 119 q 41 502 41 350 q 98 767 41 653 q 254 946 154 882 q 489 1010 355 1010 q 618 988 549 1010 q 739 928 688 965 l 657 730 q 585 786 631 764 q 490 808 539 808 q 368 769 420 808 q 288 662 316 730 q 259 502 259 593 q 289 340 259 410 q 372 231 319 270 q 498 192 426 192 q 590 213 545 192 q 660 267 635 234 l 741 70 q 626 12 693 34 q 498 -11 558 -11 m 307 1314 l 469 1188 l 472 1188 l 640 1314 l 732 1215 l 492 1047 l 450 1047 l 211 1215 l 307 1314 z "},"Ç":{"ha":781,"x_min":41,"x_max":741,"o":"m 498 -11 q 259 54 362 -11 q 99 234 156 119 q 41 502 41 350 q 98 767 41 653 q 254 946 154 882 q 489 1010 355 1010 q 618 988 549 1010 q 739 928 688 965 l 657 730 q 585 786 631 764 q 490 808 539 808 q 368 769 420 808 q 288 662 316 730 q 259 502 259 593 q 289 340 259 410 q 372 231 318 270 q 498 192 426 192 q 590 213 545 192 q 660 267 635 234 l 741 70 q 626 12 693 34 q 498 -11 558 -11 m 368 -347 l 368 -243 q 470 -229 439 -245 q 501 -187 501 -213 q 475 -153 501 -168 q 403 -136 450 -139 l 447 0 l 537 0 l 498 -111 l 490 -64 q 589 -108 551 -75 q 626 -197 626 -142 q 564 -307 626 -264 q 368 -347 503 -349 z "},"Ḉ":{"ha":781,"x_min":41,"x_max":741,"o":"m 498 -11 q 259 54 362 -11 q 99 234 156 119 q 41 502 41 350 q 98 767 41 653 q 254 946 154 882 q 489 1010 355 1010 q 618 988 549 1010 q 739 928 688 965 l 657 730 q 585 786 631 764 q 490 808 539 808 q 368 769 420 808 q 288 662 316 730 q 259 502 259 593 q 289 340 259 410 q 372 231 318 270 q 498 192 426 192 q 590 213 545 192 q 660 267 635 234 l 741 70 q 626 12 693 34 q 498 -11 558 -11 m 368 -347 l 368 -243 q 470 -229 439 -245 q 501 -187 501 -213 q 475 -153 501 -168 q 403 -136 450 -139 l 447 0 l 537 0 l 498 -111 l 490 -64 q 589 -108 551 -75 q 626 -197 626 -142 q 564 -307 626 -264 q 368 -347 503 -349 m 472 1048 l 384 1137 l 614 1344 l 715 1213 l 472 1048 z "},"Ĉ":{"ha":781,"x_min":41,"x_max":741,"o":"m 498 -11 q 259 54 362 -11 q 99 234 156 119 q 41 502 41 350 q 98 767 41 653 q 254 946 154 882 q 489 1010 355 1010 q 618 988 549 1010 q 739 928 688 965 l 657 730 q 585 786 631 764 q 490 808 539 808 q 368 769 420 808 q 288 662 316 730 q 259 502 259 593 q 289 340 259 410 q 372 231 318 270 q 498 192 426 192 q 590 213 545 192 q 660 267 635 234 l 741 70 q 626 12 693 34 q 498 -11 558 -11 m 307 1050 l 211 1149 l 451 1317 l 492 1317 l 732 1149 l 640 1050 l 473 1177 l 469 1177 l 307 1050 z "},"Ċ":{"ha":781,"x_min":41,"x_max":741,"o":"m 498 -11 q 259 54 362 -11 q 99 234 156 119 q 41 502 41 350 q 98 767 41 653 q 254 946 154 882 q 489 1010 355 1010 q 618 988 549 1010 q 739 928 688 965 l 657 730 q 585 786 631 764 q 490 808 539 808 q 368 769 420 808 q 288 662 316 730 q 259 502 259 593 q 289 340 259 410 q 372 231 318 270 q 498 192 426 192 q 590 213 545 192 q 660 267 635 234 l 741 70 q 626 12 693 34 q 498 -11 558 -11 m 471 1060 q 378 1098 416 1060 q 340 1190 340 1135 q 378 1284 340 1246 q 471 1321 416 1321 q 564 1284 526 1321 q 602 1190 602 1246 q 564 1098 602 1135 q 471 1060 526 1060 z "},"D":{"ha":781,"x_min":52,"x_max":739,"o":"m 52 0 l 52 1000 l 325 1000 q 546 937 453 1000 q 689 764 639 875 q 739 507 739 653 q 691 242 739 357 q 554 64 643 128 q 341 0 465 0 l 52 0 m 264 198 l 349 198 q 448 237 408 198 q 508 346 487 276 q 528 507 528 415 q 508 661 528 594 q 448 764 488 727 q 349 802 408 802 l 264 802 l 264 198 z "},"Ǆ":{"ha":781,"x_min":31,"x_max":765,"o":"m 31 0 l 31 1000 l 178 1000 q 358 870 294 1000 q 422 507 422 741 q 363 133 422 266 q 197 0 304 0 l 31 0 m 184 196 l 203 196 q 250 277 233 196 q 267 506 267 359 q 250 725 267 647 q 203 804 233 804 l 184 804 l 184 196 m 406 0 l 406 33 l 570 803 l 570 806 l 428 806 l 428 1000 l 765 1000 l 765 964 l 597 197 l 597 194 l 760 194 l 760 0 l 406 0 m 563 1047 l 402 1215 l 494 1312 l 578 1190 l 578 1190 l 671 1312 l 758 1215 l 596 1047 l 563 1047 z "},"Ď":{"ha":781,"x_min":52,"x_max":739,"o":"m 52 0 l 52 1000 l 325 1000 q 546 937 453 1000 q 689 764 639 875 q 739 507 739 653 q 691 242 739 357 q 554 64 643 128 q 341 0 465 0 l 52 0 m 264 198 l 349 198 q 448 237 408 198 q 508 346 487 276 q 528 507 528 415 q 508 661 528 594 q 448 764 488 727 q 349 802 408 802 l 264 802 l 264 198 m 210 1314 l 372 1188 l 376 1188 l 543 1314 l 635 1215 l 396 1047 l 354 1047 l 115 1215 l 210 1314 z "},"Đ":{"ha":781,"x_min":7,"x_max":745,"o":"m 98 0 l 98 1000 l 354 1000 q 562 937 475 1000 q 697 764 650 875 q 745 507 745 653 q 699 242 745 357 q 570 64 654 128 q 370 0 486 0 l 98 0 m 296 198 l 377 198 q 470 237 433 198 q 527 346 508 276 q 547 507 547 415 q 528 661 547 594 q 471 764 509 727 q 377 802 433 802 l 296 802 l 296 198 m 7 448 l 7 557 l 420 557 l 420 448 l 7 448 z "},"Ḍ":{"ha":781,"x_min":52,"x_max":739,"o":"m 52 0 l 52 1000 l 325 1000 q 546 937 453 1000 q 689 764 639 875 q 739 507 739 653 q 691 242 739 357 q 554 64 643 128 q 341 0 465 0 l 52 0 m 264 198 l 349 198 q 448 237 408 198 q 508 346 487 276 q 528 507 528 415 q 508 661 528 594 q 448 764 488 727 q 349 802 408 802 l 264 802 l 264 198 m 373 -337 q 280 -299 318 -337 q 242 -207 242 -262 q 280 -113 242 -151 q 373 -76 318 -76 q 466 -113 429 -76 q 504 -207 504 -151 q 466 -299 504 -262 q 373 -337 429 -337 z "},"Ḏ":{"ha":781,"x_min":52,"x_max":739,"o":"m 52 0 l 52 1000 l 325 1000 q 546 937 453 1000 q 689 764 639 875 q 739 507 739 653 q 691 242 739 357 q 554 64 643 128 q 341 0 465 0 l 52 0 m 264 198 l 349 198 q 448 237 408 198 q 508 346 487 276 q 528 507 528 415 q 508 661 528 594 q 448 764 488 727 q 349 802 408 802 l 264 802 l 264 198 m 97 -285 l 97 -155 l 649 -155 l 649 -285 l 97 -285 z "},"ǅ":{"ha":781,"x_min":31,"x_max":771,"o":"m 31 0 l 31 1000 l 178 1000 q 358 870 294 1000 q 422 507 422 741 q 363 133 422 266 q 197 0 304 0 l 31 0 m 184 196 l 203 196 q 250 277 233 196 q 267 505 267 358 q 250 725 267 646 q 203 804 233 804 l 184 804 l 184 196 m 413 0 l 413 34 l 583 577 l 583 581 l 448 581 l 448 729 l 758 729 l 758 694 l 590 152 l 590 149 l 752 149 l 752 0 l 413 0 m 575 789 l 412 963 l 482 1055 l 590 924 l 593 924 l 701 1055 l 771 963 l 608 789 l 575 789 z "},"Ð":{"ha":781,"x_min":7,"x_max":745,"o":"m 98 0 l 98 1000 l 354 1000 q 562 937 475 1000 q 697 764 650 875 q 745 507 745 653 q 699 242 745 357 q 570 64 654 128 q 370 0 486 0 l 98 0 m 296 198 l 377 198 q 470 237 433 198 q 527 346 508 276 q 547 507 547 415 q 528 661 547 594 q 471 764 509 727 q 377 802 433 802 l 296 802 l 296 198 m 7 448 l 7 557 l 420 557 l 420 448 l 7 448 z "},"E":{"ha":781,"x_min":111,"x_max":704,"o":"m 111 0 l 111 1000 l 704 1000 l 704 802 l 332 802 l 332 602 l 642 602 l 642 410 l 332 410 l 332 198 l 704 198 l 704 0 l 111 0 z "},"É":{"ha":781,"x_min":111,"x_max":704,"o":"m 111 0 l 111 1000 l 704 1000 l 704 802 l 332 802 l 332 602 l 642 602 l 642 410 l 332 410 l 332 198 l 704 198 l 704 0 l 111 0 m 414 1048 l 326 1137 l 557 1344 l 657 1213 l 414 1048 z "},"Ĕ":{"ha":781,"x_min":111,"x_max":704,"o":"m 111 0 l 111 1000 l 704 1000 l 704 802 l 332 802 l 332 602 l 642 602 l 642 410 l 332 410 l 332 198 l 704 198 l 704 0 l 111 0 m 414 1062 q 288 1087 346 1062 q 195 1161 231 1112 q 159 1281 159 1209 l 287 1281 q 328 1202 288 1226 q 414 1177 368 1177 q 504 1202 465 1177 q 542 1281 543 1226 l 671 1281 q 636 1161 672 1209 q 542 1087 601 1112 q 414 1062 483 1062 z "},"Ě":{"ha":781,"x_min":111,"x_max":704,"o":"m 111 0 l 111 1000 l 704 1000 l 704 802 l 332 802 l 332 602 l 642 602 l 642 410 l 332 410 l 332 198 l 704 198 l 704 0 l 111 0 m 249 1314 l 412 1188 l 415 1188 l 582 1314 l 674 1215 l 435 1047 l 393 1047 l 153 1215 l 249 1314 z "},"Ḝ":{"ha":781,"x_min":111,"x_max":704,"o":"m 111 0 l 111 1000 l 704 1000 l 704 802 l 332 802 l 332 602 l 642 602 l 642 410 l 332 410 l 332 198 l 704 198 l 704 0 l 111 0 m 290 -347 l 290 -243 q 393 -229 361 -245 q 424 -187 424 -213 q 398 -153 424 -168 q 326 -136 372 -139 l 370 0 l 460 0 l 420 -111 l 413 -64 q 511 -108 474 -75 q 549 -197 549 -142 q 487 -307 549 -264 q 290 -347 425 -349 m 414 1062 q 288 1087 346 1062 q 195 1161 231 1112 q 159 1281 159 1209 l 287 1281 q 328 1202 288 1226 q 414 1177 368 1177 q 504 1202 465 1177 q 542 1281 543 1226 l 671 1281 q 636 1161 672 1209 q 542 1087 601 1112 q 414 1062 483 1062 z "},"Ê":{"ha":781,"x_min":111,"x_max":704,"o":"m 111 0 l 111 1000 l 704 1000 l 704 802 l 332 802 l 332 602 l 642 602 l 642 410 l 332 410 l 332 198 l 704 198 l 704 0 l 111 0 m 250 1050 l 154 1149 l 394 1317 l 435 1317 l 675 1149 l 583 1050 l 416 1177 l 412 1177 l 250 1050 z "},"Ế":{"ha":781,"x_min":111,"x_max":864,"o":"m 111 0 l 111 1000 l 704 1000 l 704 802 l 332 802 l 332 602 l 642 602 l 642 410 l 332 410 l 332 198 l 704 198 l 704 0 l 111 0 m 641 1235 l 548 1301 l 764 1527 l 864 1393 l 641 1235 m 250 1040 l 155 1137 l 394 1304 l 436 1304 l 675 1137 l 583 1040 l 416 1166 l 413 1166 l 250 1040 z "},"Ệ":{"ha":781,"x_min":111,"x_max":704,"o":"m 111 0 l 111 1000 l 704 1000 l 704 802 l 332 802 l 332 602 l 642 602 l 642 410 l 332 410 l 332 198 l 704 198 l 704 0 l 111 0 m 416 -337 q 323 -299 361 -337 q 286 -207 286 -262 q 323 -113 286 -151 q 416 -76 361 -76 q 510 -113 472 -76 q 547 -207 547 -151 q 510 -299 547 -262 q 416 -337 472 -337 m 253 1050 l 157 1149 l 397 1317 l 439 1317 l 678 1149 l 586 1050 l 419 1177 l 416 1177 l 253 1050 z "},"Ề":{"ha":781,"x_min":-35,"x_max":704,"o":"m 111 0 l 111 1000 l 704 1000 l 704 802 l 332 802 l 332 602 l 642 602 l 642 410 l 332 410 l 332 198 l 704 198 l 704 0 l 111 0 m 188 1235 l -35 1393 l 64 1527 l 281 1301 l 188 1235 m 579 1040 l 416 1166 l 413 1166 l 245 1040 l 153 1137 l 393 1304 l 435 1304 l 674 1137 l 579 1040 z "},"Ể":{"ha":781,"x_min":111,"x_max":721,"o":"m 111 0 l 111 1000 l 704 1000 l 704 802 l 332 802 l 332 602 l 642 602 l 642 410 l 332 410 l 332 198 l 704 198 l 704 0 l 111 0 m 623 1236 l 549 1293 q 582 1325 569 1309 q 594 1358 594 1341 q 578 1389 594 1378 q 528 1400 562 1400 q 496 1397 513 1400 q 460 1388 479 1394 l 460 1513 q 505 1524 475 1520 q 558 1527 534 1527 q 676 1493 631 1527 q 721 1388 721 1460 q 705 1323 721 1352 q 666 1271 689 1293 q 623 1236 644 1249 m 250 1040 l 154 1137 l 394 1304 l 435 1304 l 675 1137 l 583 1040 l 416 1166 l 412 1166 l 250 1040 z "},"Ễ":{"ha":781,"x_min":111,"x_max":704,"o":"m 111 0 l 111 1000 l 704 1000 l 704 802 l 332 802 l 332 602 l 642 602 l 642 410 l 332 410 l 332 198 l 704 198 l 704 0 l 111 0 m 159 1322 q 199 1470 157 1413 q 317 1527 242 1527 q 380 1516 355 1527 q 423 1489 406 1504 q 457 1461 441 1473 q 493 1450 473 1450 q 528 1472 516 1450 q 541 1527 540 1493 l 671 1527 q 655 1424 671 1470 q 607 1350 640 1377 q 525 1322 575 1322 q 462 1334 487 1322 q 419 1361 437 1345 q 386 1389 401 1377 q 352 1400 370 1400 q 306 1381 324 1400 q 286 1322 287 1361 l 159 1322 m 249 1040 l 153 1137 l 393 1304 l 435 1304 l 674 1137 l 582 1040 l 414 1166 l 412 1166 l 249 1040 z "},"Ȅ":{"ha":781,"x_min":60,"x_max":704,"o":"m 111 0 l 111 1000 l 704 1000 l 704 802 l 332 802 l 332 602 l 642 602 l 642 410 l 332 410 l 332 198 l 704 198 l 704 0 l 111 0 m 235 1060 l 60 1278 l 201 1357 l 342 1112 l 235 1060 m 498 1060 l 328 1278 l 468 1357 l 606 1112 l 498 1060 z "},"Ë":{"ha":781,"x_min":111,"x_max":704,"o":"m 111 0 l 111 1000 l 704 1000 l 704 802 l 332 802 l 332 602 l 642 602 l 642 410 l 332 410 l 332 198 l 704 198 l 704 0 l 111 0 m 581 1050 q 494 1084 528 1050 q 460 1168 459 1117 q 494 1254 459 1220 q 581 1289 528 1289 q 665 1254 631 1289 q 698 1168 698 1220 q 665 1084 698 1117 q 581 1050 631 1050 m 253 1050 q 168 1084 201 1050 q 134 1168 134 1117 q 168 1254 134 1220 q 253 1289 201 1289 q 339 1254 304 1289 q 373 1168 373 1220 q 339 1084 373 1117 q 253 1050 304 1050 z "},"Ė":{"ha":781,"x_min":111,"x_max":704,"o":"m 111 0 l 111 1000 l 704 1000 l 704 802 l 332 802 l 332 602 l 642 602 l 642 410 l 332 410 l 332 198 l 704 198 l 704 0 l 111 0 m 414 1060 q 321 1098 359 1060 q 283 1190 283 1135 q 321 1284 283 1246 q 414 1321 359 1321 q 507 1284 469 1321 q 545 1190 545 1246 q 507 1098 545 1135 q 414 1060 469 1060 z "},"Ẹ":{"ha":781,"x_min":111,"x_max":704,"o":"m 111 0 l 111 1000 l 704 1000 l 704 802 l 332 802 l 332 602 l 642 602 l 642 410 l 332 410 l 332 198 l 704 198 l 704 0 l 111 0 m 418 -337 q 325 -299 363 -337 q 287 -207 287 -262 q 325 -113 287 -151 q 418 -76 363 -76 q 511 -113 473 -76 q 549 -207 549 -151 q 511 -299 549 -262 q 418 -337 473 -337 z "},"È":{"ha":781,"x_min":111,"x_max":704,"o":"m 111 0 l 111 1000 l 704 1000 l 704 802 l 332 802 l 332 602 l 642 602 l 642 410 l 332 410 l 332 198 l 704 198 l 704 0 l 111 0 m 414 1048 l 172 1213 l 272 1344 l 503 1137 l 414 1048 z "},"Ẻ":{"ha":781,"x_min":111,"x_max":704,"o":"m 111 0 l 111 1000 l 704 1000 l 704 802 l 332 802 l 332 602 l 642 602 l 642 410 l 332 410 l 332 198 l 704 198 l 704 0 l 111 0 m 439 1052 l 363 1126 q 397 1157 382 1140 q 412 1193 412 1173 q 396 1222 412 1212 q 348 1232 380 1232 q 316 1230 336 1232 q 279 1220 295 1227 l 279 1344 q 322 1356 293 1352 q 374 1360 351 1360 q 495 1324 450 1360 q 540 1222 540 1289 q 508 1116 540 1162 q 439 1052 476 1070 z "},"Ȇ":{"ha":781,"x_min":111,"x_max":704,"o":"m 111 0 l 111 1000 l 704 1000 l 704 802 l 332 802 l 332 602 l 642 602 l 642 410 l 332 410 l 332 198 l 704 198 l 704 0 l 111 0 m 413 1284 q 541 1259 481 1284 q 635 1185 600 1234 q 669 1065 670 1136 l 540 1065 q 503 1144 542 1120 q 413 1168 463 1168 q 327 1144 367 1168 q 286 1065 286 1120 l 158 1065 q 193 1185 158 1136 q 287 1259 229 1234 q 413 1284 345 1284 z "},"Ē":{"ha":781,"x_min":111,"x_max":704,"o":"m 111 0 l 111 1000 l 704 1000 l 704 802 l 332 802 l 332 602 l 642 602 l 642 410 l 332 410 l 332 198 l 704 198 l 704 0 l 111 0 m 148 1098 l 148 1239 l 681 1239 l 681 1098 l 148 1098 z "},"Ḗ":{"ha":781,"x_min":111,"x_max":704,"o":"m 111 0 l 111 1000 l 704 1000 l 704 802 l 332 802 l 332 602 l 642 602 l 642 410 l 332 410 l 332 198 l 704 198 l 704 0 l 111 0 m 148 1098 l 148 1239 l 681 1239 l 681 1098 l 148 1098 m 414 1288 l 326 1377 l 557 1584 l 657 1453 l 414 1288 z "},"Ḕ":{"ha":781,"x_min":111,"x_max":704,"o":"m 111 0 l 111 1000 l 704 1000 l 704 802 l 332 802 l 332 602 l 642 602 l 642 410 l 332 410 l 332 198 l 704 198 l 704 0 l 111 0 m 148 1098 l 148 1239 l 681 1239 l 681 1098 l 148 1098 m 414 1288 l 172 1453 l 272 1584 l 503 1377 l 414 1288 z "},"Ę":{"ha":781,"x_min":111,"x_max":704,"o":"m 111 0 l 111 1000 l 704 1000 l 704 802 l 332 802 l 332 602 l 642 602 l 642 410 l 332 410 l 332 198 l 704 198 l 704 0 l 111 0 m 597 -293 q 489 -255 531 -293 q 448 -155 448 -218 q 486 -54 448 -99 q 593 34 524 -9 l 701 0 q 640 -43 668 -22 q 594 -86 612 -64 q 577 -130 577 -107 q 591 -162 577 -151 q 635 -173 606 -173 q 673 -168 652 -173 q 703 -157 693 -163 l 703 -275 q 652 -288 684 -283 q 597 -293 619 -293 z "},"Ẽ":{"ha":781,"x_min":111,"x_max":704,"o":"m 111 0 l 111 1000 l 704 1000 l 704 802 l 332 802 l 332 602 l 642 602 l 642 410 l 332 410 l 332 198 l 704 198 l 704 0 l 111 0 m 159 1067 q 200 1214 159 1156 q 317 1272 241 1272 q 382 1260 356 1272 q 425 1233 408 1249 q 458 1206 443 1218 q 493 1195 474 1195 q 530 1217 518 1195 q 543 1272 543 1240 l 671 1272 q 630 1126 672 1185 q 509 1067 587 1067 q 447 1079 472 1067 q 404 1106 422 1090 q 370 1134 386 1122 q 334 1146 354 1146 q 298 1125 309 1146 q 288 1067 288 1103 l 159 1067 z "},"Ə":{"ha":781,"x_min":40,"x_max":744,"o":"m 381 -11 q 201 46 277 -11 q 82 205 124 104 q 40 437 40 306 l 40 578 l 565 578 l 565 393 l 236 393 q 254 288 235 334 q 306 214 273 241 q 381 187 338 187 q 452 213 424 187 q 498 282 481 239 q 522 378 515 325 q 529 487 529 431 q 509 662 529 590 q 450 771 489 734 q 351 809 410 809 q 253 786 304 809 q 176 730 201 764 l 94 928 q 212 987 145 964 q 349 1010 279 1010 q 507 973 435 1010 q 632 866 578 935 q 714 700 685 796 q 744 488 744 604 q 720 293 744 384 q 648 134 695 203 q 534 27 602 66 q 381 -11 467 -11 z "},"F":{"ha":781,"x_min":121,"x_max":728,"o":"m 121 0 l 121 1000 l 728 1000 l 728 802 l 342 802 l 342 572 l 666 572 l 666 374 l 342 374 l 342 0 l 121 0 z "},"G":{"ha":781,"x_min":35,"x_max":735,"o":"m 452 -11 q 233 54 327 -11 q 87 234 139 119 q 35 495 35 348 q 92 767 35 651 q 247 947 149 883 q 471 1010 346 1010 q 610 989 543 1010 q 732 928 677 967 l 650 730 q 575 785 626 763 q 470 808 524 808 q 351 770 402 808 q 271 661 300 732 q 242 494 242 591 q 266 340 242 408 q 338 232 290 271 q 458 192 387 192 q 526 203 497 192 q 572 233 554 215 l 539 176 l 539 397 l 403 397 l 403 581 l 735 581 l 735 104 q 612 20 686 51 q 452 -11 538 -11 z "},"Ğ":{"ha":781,"x_min":35,"x_max":735,"o":"m 452 -11 q 233 54 327 -11 q 87 234 139 119 q 35 495 35 348 q 92 767 35 651 q 247 947 149 883 q 471 1010 346 1010 q 610 989 543 1010 q 732 928 677 967 l 650 730 q 575 785 626 763 q 470 808 524 808 q 351 770 402 808 q 271 661 300 732 q 242 494 242 591 q 266 340 242 408 q 338 232 290 271 q 458 192 387 192 q 526 203 497 192 q 572 233 554 215 l 539 176 l 539 397 l 403 397 l 403 581 l 735 581 l 735 104 q 612 20 686 51 q 452 -11 538 -11 m 435 1062 q 309 1087 367 1062 q 216 1161 252 1112 q 180 1281 180 1209 l 308 1281 q 349 1202 309 1226 q 435 1177 389 1177 q 525 1202 486 1177 q 563 1281 564 1226 l 692 1281 q 657 1161 693 1209 q 563 1087 622 1112 q 435 1062 504 1062 z "},"Ǧ":{"ha":781,"x_min":35,"x_max":735,"o":"m 452 -11 q 233 54 327 -11 q 87 234 139 119 q 35 495 35 348 q 92 767 35 651 q 247 947 149 883 q 471 1010 346 1010 q 610 989 543 1010 q 732 928 677 967 l 650 730 q 575 785 626 763 q 470 808 524 808 q 351 770 402 808 q 271 661 300 732 q 242 494 242 591 q 266 340 242 408 q 338 232 290 271 q 458 192 387 192 q 526 203 497 192 q 572 233 554 215 l 539 176 l 539 397 l 403 397 l 403 581 l 735 581 l 735 104 q 612 20 686 51 q 452 -11 538 -11 m 270 1314 l 433 1188 l 436 1188 l 603 1314 l 695 1215 l 456 1047 l 414 1047 l 174 1215 l 270 1314 z "},"Ĝ":{"ha":781,"x_min":35,"x_max":735,"o":"m 452 -11 q 233 54 327 -11 q 87 234 139 119 q 35 495 35 348 q 92 767 35 651 q 247 947 149 883 q 471 1010 346 1010 q 610 989 543 1010 q 732 928 677 967 l 650 730 q 575 785 626 763 q 470 808 524 808 q 351 770 402 808 q 271 661 300 732 q 242 494 242 591 q 266 340 242 408 q 338 232 290 271 q 458 192 387 192 q 526 203 497 192 q 572 233 554 215 l 539 176 l 539 397 l 403 397 l 403 581 l 735 581 l 735 104 q 612 20 686 51 q 452 -11 538 -11 m 271 1050 l 175 1149 l 415 1317 l 456 1317 l 696 1149 l 604 1050 l 437 1177 l 433 1177 l 271 1050 z "},"Ģ":{"ha":781,"x_min":35,"x_max":735,"o":"m 452 -11 q 233 54 327 -11 q 87 234 139 119 q 35 495 35 348 q 92 767 35 651 q 247 947 149 883 q 471 1010 346 1010 q 610 989 543 1010 q 732 928 677 967 l 650 730 q 575 785 626 763 q 470 808 524 808 q 351 770 402 808 q 271 661 300 732 q 242 494 242 591 q 266 340 242 408 q 338 232 290 271 q 458 192 387 192 q 526 203 497 192 q 572 233 554 215 l 539 176 l 539 397 l 403 397 l 403 581 l 735 581 l 735 104 q 612 20 686 51 q 452 -11 538 -11 m 379 -423 l 338 -370 l 400 -319 q 426 -292 412 -308 q 451 -259 440 -276 q 461 -229 461 -242 l 486 -228 q 473 -259 485 -245 q 435 -273 461 -273 q 374 -247 404 -273 q 344 -179 344 -221 q 372 -113 344 -138 q 435 -89 400 -89 q 502 -115 474 -89 q 530 -193 530 -140 q 514 -270 530 -236 q 478 -328 498 -304 q 444 -363 458 -351 l 379 -423 z "},"Ġ":{"ha":781,"x_min":35,"x_max":735,"o":"m 452 -11 q 233 54 327 -11 q 87 234 139 119 q 35 495 35 348 q 92 767 35 651 q 247 947 149 883 q 471 1010 346 1010 q 610 989 543 1010 q 732 928 677 967 l 650 730 q 575 785 626 763 q 470 808 524 808 q 351 770 402 808 q 271 661 300 732 q 242 494 242 591 q 266 340 242 408 q 338 232 290 271 q 458 192 387 192 q 526 203 497 192 q 572 233 554 215 l 539 176 l 539 397 l 403 397 l 403 581 l 735 581 l 735 104 q 612 20 686 51 q 452 -11 538 -11 m 434 1060 q 341 1098 379 1060 q 303 1190 303 1135 q 341 1284 303 1246 q 434 1321 379 1321 q 527 1284 490 1321 q 565 1190 565 1246 q 527 1098 565 1135 q 434 1060 490 1060 z "},"Ḡ":{"ha":781,"x_min":35,"x_max":735,"o":"m 452 -11 q 233 54 327 -11 q 87 234 139 119 q 35 495 35 348 q 92 767 35 651 q 247 947 149 883 q 471 1010 346 1010 q 610 989 543 1010 q 732 928 677 967 l 650 730 q 575 785 626 763 q 470 808 524 808 q 351 770 402 808 q 271 661 300 732 q 242 494 242 591 q 266 340 242 408 q 338 232 290 271 q 458 192 387 192 q 526 203 497 192 q 572 233 554 215 l 539 176 l 539 397 l 403 397 l 403 581 l 735 581 l 735 104 q 612 20 686 51 q 452 -11 538 -11 m 168 1098 l 168 1239 l 701 1239 l 701 1098 l 168 1098 z "},"H":{"ha":781,"x_min":52,"x_max":729,"o":"m 52 0 l 52 1000 l 270 1000 l 270 604 l 511 604 l 511 1000 l 729 1000 l 729 0 l 511 0 l 511 406 l 270 406 l 270 0 l 52 0 z "},"Ħ":{"ha":781,"x_min":7,"x_max":766,"o":"m 7 734 l 7 853 l 766 853 l 766 734 l 7 734 m 52 0 l 52 1000 l 270 1000 l 270 604 l 511 604 l 511 1000 l 729 1000 l 729 0 l 511 0 l 511 406 l 270 406 l 270 0 l 52 0 z "},"Ḫ":{"ha":781,"x_min":52,"x_max":729,"o":"m 52 0 l 52 1000 l 270 1000 l 270 604 l 511 604 l 511 1000 l 729 1000 l 729 0 l 511 0 l 511 406 l 270 406 l 270 0 l 52 0 m 389 -313 q 259 -282 317 -313 q 167 -198 201 -251 q 133 -80 133 -146 l 263 -80 q 300 -163 264 -130 q 389 -197 336 -197 q 480 -163 444 -197 q 517 -80 516 -130 l 647 -80 q 613 -198 648 -146 q 520 -282 578 -251 q 389 -313 463 -313 z "},"Ĥ":{"ha":781,"x_min":52,"x_max":729,"o":"m 52 0 l 52 1000 l 270 1000 l 270 604 l 511 604 l 511 1000 l 729 1000 l 729 0 l 511 0 l 511 406 l 270 406 l 270 0 l 52 0 m 226 1050 l 130 1149 l 370 1317 l 412 1317 l 651 1149 l 559 1050 l 392 1177 l 389 1177 l 226 1050 z "},"Ḥ":{"ha":781,"x_min":52,"x_max":729,"o":"m 52 0 l 52 1000 l 270 1000 l 270 604 l 511 604 l 511 1000 l 729 1000 l 729 0 l 511 0 l 511 406 l 270 406 l 270 0 l 52 0 m 391 -337 q 298 -299 336 -337 q 260 -207 260 -262 q 298 -113 260 -151 q 391 -76 336 -76 q 484 -113 446 -76 q 522 -207 522 -151 q 484 -299 522 -262 q 391 -337 446 -337 z "},"I":{"ha":781,"x_min":90,"x_max":691,"o":"m 279 0 l 279 1000 l 502 1000 l 502 0 l 279 0 m 90 0 l 90 193 l 691 193 l 691 0 l 90 0 m 90 806 l 90 1000 l 691 1000 l 691 806 l 90 806 z "},"Í":{"ha":781,"x_min":90,"x_max":691,"o":"m 279 0 l 279 1000 l 502 1000 l 502 0 l 279 0 m 90 0 l 90 193 l 691 193 l 691 0 l 90 0 m 90 806 l 90 1000 l 691 1000 l 691 806 l 90 806 m 391 1048 l 302 1137 l 533 1344 l 633 1213 l 391 1048 z "},"Ĭ":{"ha":781,"x_min":90,"x_max":691,"o":"m 279 0 l 279 1000 l 502 1000 l 502 0 l 279 0 m 90 0 l 90 193 l 691 193 l 691 0 l 90 0 m 90 806 l 90 1000 l 691 1000 l 691 806 l 90 806 m 390 1062 q 264 1087 321 1062 q 171 1161 206 1112 q 135 1281 135 1209 l 262 1281 q 304 1202 264 1226 q 390 1177 344 1177 q 480 1202 441 1177 q 517 1281 519 1226 l 646 1281 q 612 1161 648 1209 q 517 1087 576 1112 q 390 1062 458 1062 z "},"Ǐ":{"ha":781,"x_min":90,"x_max":691,"o":"m 279 0 l 279 1000 l 502 1000 l 502 0 l 279 0 m 90 0 l 90 193 l 691 193 l 691 0 l 90 0 m 90 806 l 90 1000 l 691 1000 l 691 806 l 90 806 m 225 1314 l 388 1188 l 391 1188 l 558 1314 l 650 1215 l 411 1047 l 369 1047 l 130 1215 l 225 1314 z "},"Î":{"ha":781,"x_min":90,"x_max":691,"o":"m 279 0 l 279 1000 l 502 1000 l 502 0 l 279 0 m 90 0 l 90 193 l 691 193 l 691 0 l 90 0 m 90 806 l 90 1000 l 691 1000 l 691 806 l 90 806 m 225 1050 l 130 1149 l 370 1317 l 411 1317 l 650 1149 l 558 1050 l 391 1177 l 388 1177 l 225 1050 z "},"Ȉ":{"ha":781,"x_min":37,"x_max":691,"o":"m 279 0 l 279 1000 l 502 1000 l 502 0 l 279 0 m 90 0 l 90 193 l 691 193 l 691 0 l 90 0 m 90 806 l 90 1000 l 691 1000 l 691 806 l 90 806 m 212 1060 l 37 1278 l 178 1357 l 318 1112 l 212 1060 m 474 1060 l 304 1278 l 444 1357 l 582 1112 l 474 1060 z "},"Ï":{"ha":781,"x_min":90,"x_max":691,"o":"m 279 0 l 279 1000 l 502 1000 l 502 0 l 279 0 m 90 0 l 90 193 l 691 193 l 691 0 l 90 0 m 90 806 l 90 1000 l 691 1000 l 691 806 l 90 806 m 557 1050 q 469 1084 504 1050 q 435 1168 435 1117 q 469 1254 435 1220 q 557 1289 504 1289 q 640 1254 607 1289 q 673 1168 673 1220 q 640 1084 673 1117 q 557 1050 607 1050 m 229 1050 q 143 1084 177 1050 q 110 1168 110 1117 q 143 1254 110 1220 q 229 1289 177 1289 q 314 1254 280 1289 q 349 1168 349 1220 q 314 1084 349 1117 q 229 1050 280 1050 z "},"Ḯ":{"ha":781,"x_min":90,"x_max":691,"o":"m 279 0 l 279 1000 l 502 1000 l 502 0 l 279 0 m 90 0 l 90 193 l 691 193 l 691 0 l 90 0 m 90 806 l 90 1000 l 691 1000 l 691 806 l 90 806 m 557 1050 q 469 1084 504 1050 q 435 1168 435 1117 q 469 1254 435 1220 q 557 1289 504 1289 q 640 1254 607 1289 q 673 1168 673 1220 q 640 1084 673 1117 q 557 1050 607 1050 m 229 1050 q 143 1084 177 1050 q 110 1168 110 1117 q 143 1254 110 1220 q 229 1289 177 1289 q 314 1254 280 1289 q 349 1168 349 1220 q 314 1084 349 1117 q 229 1050 280 1050 m 391 1291 l 302 1379 l 533 1586 l 633 1455 l 391 1291 z "},"İ":{"ha":781,"x_min":90,"x_max":691,"o":"m 279 0 l 279 1000 l 502 1000 l 502 0 l 279 0 m 90 0 l 90 193 l 691 193 l 691 0 l 90 0 m 90 806 l 90 1000 l 691 1000 l 691 806 l 90 806 m 389 1060 q 296 1098 334 1060 q 258 1190 258 1135 q 296 1284 258 1246 q 389 1321 334 1321 q 483 1284 445 1321 q 520 1190 520 1246 q 483 1098 520 1135 q 389 1060 445 1060 z "},"Ị":{"ha":781,"x_min":90,"x_max":691,"o":"m 279 0 l 279 1000 l 502 1000 l 502 0 l 279 0 m 90 0 l 90 193 l 691 193 l 691 0 l 90 0 m 90 806 l 90 1000 l 691 1000 l 691 806 l 90 806 m 391 -337 q 298 -299 336 -337 q 260 -207 260 -262 q 298 -113 260 -151 q 391 -76 336 -76 q 484 -113 446 -76 q 522 -207 522 -151 q 484 -299 522 -262 q 391 -337 446 -337 z "},"Ì":{"ha":781,"x_min":90,"x_max":691,"o":"m 279 0 l 279 1000 l 502 1000 l 502 0 l 279 0 m 90 0 l 90 193 l 691 193 l 691 0 l 90 0 m 90 806 l 90 1000 l 691 1000 l 691 806 l 90 806 m 391 1048 l 148 1213 l 248 1344 l 479 1137 l 391 1048 z "},"Ỉ":{"ha":781,"x_min":90,"x_max":691,"o":"m 279 0 l 279 1000 l 502 1000 l 502 0 l 279 0 m 90 0 l 90 193 l 691 193 l 691 0 l 90 0 m 90 806 l 90 1000 l 691 1000 l 691 806 l 90 806 m 414 1052 l 338 1126 q 373 1157 357 1140 q 388 1193 388 1173 q 372 1222 388 1212 q 323 1232 355 1232 q 291 1230 312 1232 q 255 1220 271 1227 l 255 1344 q 297 1356 269 1352 q 350 1360 326 1360 q 470 1324 425 1360 q 515 1222 515 1289 q 484 1116 515 1162 q 414 1052 452 1070 z "},"Ȋ":{"ha":781,"x_min":90,"x_max":691,"o":"m 279 0 l 279 1000 l 502 1000 l 502 0 l 279 0 m 90 0 l 90 193 l 691 193 l 691 0 l 90 0 m 90 806 l 90 1000 l 691 1000 l 691 806 l 90 806 m 389 1284 q 516 1259 458 1284 q 611 1185 575 1234 q 645 1065 646 1136 l 516 1065 q 478 1144 517 1120 q 389 1168 439 1168 q 302 1144 342 1168 q 261 1065 262 1120 l 134 1065 q 170 1185 134 1136 q 263 1259 205 1234 q 389 1284 321 1284 z "},"Ī":{"ha":781,"x_min":90,"x_max":691,"o":"m 279 0 l 279 1000 l 502 1000 l 502 0 l 279 0 m 90 0 l 90 193 l 691 193 l 691 0 l 90 0 m 90 806 l 90 1000 l 691 1000 l 691 806 l 90 806 m 151 1098 l 151 1239 l 629 1239 l 629 1098 l 151 1098 z "},"Į":{"ha":781,"x_min":90,"x_max":692,"o":"m 279 0 l 279 1000 l 502 1000 l 502 0 l 279 0 m 90 0 l 90 193 l 691 193 l 691 0 l 90 0 m 90 806 l 90 1000 l 691 1000 l 691 806 l 90 806 m 587 -293 q 479 -255 521 -293 q 437 -155 437 -218 q 476 -54 437 -99 q 583 34 514 -9 l 691 0 q 630 -43 658 -22 q 584 -86 602 -64 q 567 -130 567 -107 q 581 -162 567 -151 q 625 -173 595 -173 q 663 -168 642 -173 q 693 -157 683 -163 l 693 -275 q 642 -288 674 -283 q 587 -293 609 -293 z "},"Ĩ":{"ha":781,"x_min":90,"x_max":691,"o":"m 279 0 l 279 1000 l 502 1000 l 502 0 l 279 0 m 90 0 l 90 193 l 691 193 l 691 0 l 90 0 m 90 806 l 90 1000 l 691 1000 l 691 806 l 90 806 m 135 1067 q 176 1214 135 1156 q 293 1272 218 1272 q 358 1260 332 1272 q 401 1233 384 1249 q 435 1206 419 1218 q 469 1195 450 1195 q 507 1217 494 1195 q 519 1272 519 1240 l 647 1272 q 606 1126 648 1185 q 486 1067 564 1067 q 423 1079 448 1067 q 380 1106 398 1090 q 346 1134 362 1122 q 311 1146 330 1146 q 275 1125 286 1146 q 264 1067 264 1103 l 135 1067 z "},"J":{"ha":781,"x_min":21,"x_max":667,"o":"m 343 -11 q 171 32 243 -11 q 60 150 99 75 q 22 323 21 225 l 235 323 q 265 224 236 260 q 338 187 294 187 q 390 202 368 187 q 426 244 413 217 q 439 311 439 272 l 439 1000 l 667 1000 l 667 313 q 626 140 667 212 q 512 28 585 67 q 343 -11 439 -11 z "},"Ĵ":{"ha":781,"x_min":21,"x_max":808,"o":"m 343 -11 q 171 32 243 -11 q 60 150 99 75 q 22 323 21 225 l 235 323 q 265 224 236 260 q 338 187 294 187 q 390 202 368 187 q 426 244 413 217 q 439 311 439 272 l 439 1000 l 667 1000 l 667 313 q 626 140 667 212 q 512 28 585 67 q 343 -11 439 -11 m 382 1050 l 287 1149 l 527 1317 l 568 1317 l 808 1149 l 715 1050 l 549 1177 l 545 1177 l 382 1050 z "},"K":{"ha":781,"x_min":66,"x_max":798,"o":"m 66 0 l 66 1000 l 277 1000 l 277 556 l 328 556 l 258 522 l 534 1000 l 789 1000 l 441 446 l 441 566 l 798 0 l 544 0 l 258 473 l 328 439 l 277 439 l 277 0 l 66 0 z "},"Ķ":{"ha":781,"x_min":66,"x_max":798,"o":"m 66 0 l 66 1000 l 277 1000 l 277 556 l 328 556 l 258 522 l 534 1000 l 789 1000 l 441 446 l 441 566 l 798 0 l 544 0 l 258 473 l 328 439 l 277 439 l 277 0 l 66 0 m 351 -423 l 310 -370 l 372 -319 q 397 -292 383 -308 q 422 -259 412 -276 q 433 -229 433 -242 l 457 -228 q 445 -259 456 -245 q 406 -273 433 -273 q 346 -247 376 -273 q 315 -179 315 -221 q 343 -113 315 -138 q 406 -89 372 -89 q 474 -115 446 -89 q 502 -193 502 -140 q 486 -270 502 -236 q 450 -328 470 -304 q 416 -363 429 -351 l 351 -423 z "},"L":{"ha":781,"x_min":121,"x_max":717,"o":"m 121 0 l 121 1000 l 343 1000 l 343 198 l 717 198 l 717 0 l 121 0 z "},"Ǉ":{"ha":781,"x_min":54,"x_max":741,"o":"m 539 -11 q 390 77 434 -11 q 349 317 345 164 l 504 317 q 512 194 504 228 q 540 160 521 160 q 570 194 560 160 q 581 316 581 229 l 581 1000 l 741 1000 l 741 319 q 690 74 741 158 q 539 -11 640 -11 m 54 0 l 54 1000 l 214 1000 l 214 171 l 336 171 l 336 0 l 54 0 z "},"Ĺ":{"ha":781,"x_min":121,"x_max":717,"o":"m 121 0 l 121 1000 l 343 1000 l 343 198 l 717 198 l 717 0 l 121 0 m 233 1048 l 144 1137 l 375 1344 l 475 1213 l 233 1048 z "},"Ľ":{"ha":781,"x_min":121,"x_max":749,"o":"m 121 0 l 121 1000 l 343 1000 l 343 198 l 717 198 l 717 0 l 121 0 m 579 653 l 581 1000 l 749 1000 l 726 653 l 579 653 z "},"Ļ":{"ha":781,"x_min":121,"x_max":717,"o":"m 121 0 l 121 1000 l 343 1000 l 343 198 l 717 198 l 717 0 l 121 0 m 367 -423 l 326 -370 l 388 -319 q 414 -292 399 -308 q 438 -259 428 -276 q 449 -229 449 -242 l 473 -228 q 461 -259 473 -245 q 422 -273 449 -273 q 362 -247 392 -273 q 332 -179 332 -221 q 360 -113 332 -138 q 422 -89 388 -89 q 490 -115 462 -89 q 518 -193 518 -140 q 502 -270 518 -236 q 466 -328 486 -304 q 432 -363 446 -351 l 367 -423 z "},"Ŀ":{"ha":781,"x_min":121,"x_max":766,"o":"m 121 0 l 121 1000 l 343 1000 l 343 198 l 717 198 l 717 0 l 121 0 m 631 376 q 537 415 576 376 q 499 510 499 453 q 537 605 499 566 q 631 643 576 643 q 728 605 689 643 q 766 510 766 566 q 728 415 766 453 q 631 376 689 376 z "},"Ḷ":{"ha":781,"x_min":121,"x_max":717,"o":"m 121 0 l 121 1000 l 343 1000 l 343 198 l 717 198 l 717 0 l 121 0 m 422 -337 q 329 -299 367 -337 q 291 -207 291 -262 q 329 -113 291 -151 q 422 -76 367 -76 q 515 -113 477 -76 q 553 -207 553 -151 q 515 -299 553 -262 q 422 -337 477 -337 z "},"ǈ":{"ha":781,"x_min":60,"x_max":737,"o":"m 488 -296 q 394 -280 444 -296 q 308 -238 345 -264 l 361 -85 q 421 -119 389 -106 q 484 -132 454 -132 q 534 -113 515 -132 q 553 -47 553 -94 l 553 730 l 713 730 l 713 -50 q 685 -179 713 -124 q 606 -265 656 -235 q 488 -296 555 -296 m 60 0 l 60 1000 l 230 1000 l 230 171 l 404 171 l 404 0 l 60 0 m 399 565 l 399 730 l 713 730 l 713 565 l 399 565 m 623 819 q 541 852 573 819 q 509 938 509 885 q 541 1023 509 990 q 623 1055 573 1055 q 705 1022 673 1055 q 737 936 737 989 q 706 851 737 884 q 623 819 674 819 z "},"Ḻ":{"ha":781,"x_min":121,"x_max":717,"o":"m 121 0 l 121 1000 l 343 1000 l 343 198 l 717 198 l 717 0 l 121 0 m 146 -285 l 146 -155 l 698 -155 l 698 -285 l 146 -285 z "},"Ł":{"ha":781,"x_min":-19,"x_max":717,"o":"m 30 338 l -19 456 l 149 544 l 314 620 l 438 692 l 486 576 l 314 481 l 149 405 l 30 338 m 121 0 l 121 1000 l 343 1000 l 343 198 l 717 198 l 717 0 l 121 0 z "},"M":{"ha":781,"x_min":35,"x_max":747,"o":"m 35 0 l 35 1000 l 169 1000 l 388 618 l 393 618 l 612 1000 l 747 1000 l 747 0 l 551 0 l 551 374 l 553 554 l 547 554 l 417 317 l 364 317 l 235 554 l 228 554 l 231 374 l 231 0 l 35 0 z "},"Ṃ":{"ha":781,"x_min":35,"x_max":747,"o":"m 35 0 l 35 1000 l 169 1000 l 388 618 l 393 618 l 612 1000 l 747 1000 l 747 0 l 551 0 l 551 374 l 553 554 l 547 554 l 417 317 l 364 317 l 235 554 l 228 554 l 231 374 l 231 0 l 35 0 m 389 -337 q 296 -299 334 -337 q 258 -207 258 -262 q 296 -113 258 -151 q 389 -76 334 -76 q 483 -113 445 -76 q 520 -207 520 -151 q 483 -299 520 -262 q 389 -337 445 -337 z "},"N":{"ha":781,"x_min":52,"x_max":729,"o":"m 52 0 l 52 1000 l 201 1000 l 480 500 l 524 406 l 530 406 l 524 610 l 524 1000 l 729 1000 l 729 0 l 579 0 l 302 508 l 258 606 l 254 606 l 258 391 l 258 0 l 52 0 z "},"Ǌ":{"ha":781,"x_min":22,"x_max":765,"o":"m 22 0 l 22 1000 l 121 1000 l 240 554 l 258 467 l 262 467 l 255 574 l 255 1000 l 393 1000 l 393 0 l 294 0 l 176 450 l 157 537 l 155 537 l 161 429 l 161 0 l 22 0 m 591 -11 q 459 70 504 -11 q 417 293 415 150 l 555 293 q 564 186 554 212 q 589 159 573 159 q 614 191 611 159 q 618 296 618 223 l 618 1000 l 765 1000 l 765 298 q 723 71 765 152 q 591 -11 681 -11 z "},"Ń":{"ha":781,"x_min":52,"x_max":729,"o":"m 52 0 l 52 1000 l 201 1000 l 480 500 l 524 406 l 530 406 l 524 610 l 524 1000 l 729 1000 l 729 0 l 579 0 l 302 508 l 258 606 l 254 606 l 258 391 l 258 0 l 52 0 m 391 1048 l 302 1137 l 533 1344 l 633 1213 l 391 1048 z "},"Ň":{"ha":781,"x_min":52,"x_max":729,"o":"m 52 0 l 52 1000 l 201 1000 l 480 500 l 524 406 l 530 406 l 524 610 l 524 1000 l 729 1000 l 729 0 l 579 0 l 302 508 l 258 606 l 254 606 l 258 391 l 258 0 l 52 0 m 225 1314 l 388 1188 l 391 1188 l 558 1314 l 650 1215 l 411 1047 l 370 1047 l 130 1215 l 225 1314 z "},"Ņ":{"ha":781,"x_min":52,"x_max":729,"o":"m 52 0 l 52 1000 l 201 1000 l 480 500 l 524 406 l 530 406 l 524 610 l 524 1000 l 729 1000 l 729 0 l 579 0 l 302 508 l 258 606 l 254 606 l 258 391 l 258 0 l 52 0 m 333 -423 l 292 -370 l 354 -319 q 380 -292 366 -308 q 405 -259 394 -276 q 415 -229 415 -242 l 439 -228 q 427 -259 439 -245 q 389 -273 415 -273 q 328 -247 358 -273 q 298 -179 298 -221 q 326 -113 298 -138 q 389 -89 354 -89 q 456 -115 428 -89 q 484 -193 484 -140 q 468 -270 484 -236 q 432 -328 452 -304 q 398 -363 412 -351 l 333 -423 z "},"Ṅ":{"ha":781,"x_min":52,"x_max":729,"o":"m 52 0 l 52 1000 l 201 1000 l 480 500 l 524 406 l 530 406 l 524 610 l 524 1000 l 729 1000 l 729 0 l 579 0 l 302 508 l 258 606 l 254 606 l 258 391 l 258 0 l 52 0 m 389 1060 q 296 1098 334 1060 q 258 1190 258 1135 q 296 1284 258 1246 q 389 1321 334 1321 q 483 1284 445 1321 q 520 1190 520 1246 q 483 1098 520 1135 q 389 1060 445 1060 z "},"Ṇ":{"ha":781,"x_min":52,"x_max":729,"o":"m 52 0 l 52 1000 l 201 1000 l 480 500 l 524 406 l 530 406 l 524 610 l 524 1000 l 729 1000 l 729 0 l 579 0 l 302 508 l 258 606 l 254 606 l 258 391 l 258 0 l 52 0 m 388 -337 q 295 -299 333 -337 q 257 -207 257 -262 q 295 -113 257 -151 q 388 -76 333 -76 q 481 -113 444 -76 q 519 -207 519 -151 q 481 -299 519 -262 q 388 -337 444 -337 z "},"ǋ":{"ha":781,"x_min":47,"x_max":747,"o":"m 47 0 l 47 1000 l 158 1000 l 293 551 l 316 456 l 319 456 l 312 572 l 312 1000 l 467 1000 l 467 0 l 354 0 l 220 452 l 197 548 l 195 548 l 201 431 l 201 0 l 47 0 m 483 -296 q 390 -280 439 -296 q 304 -238 340 -264 l 357 -85 q 417 -119 385 -106 q 479 -132 449 -132 q 529 -113 510 -132 q 547 -47 547 -94 l 547 729 l 708 729 l 708 -50 q 680 -179 708 -124 q 601 -265 652 -235 q 483 -296 550 -296 m 633 820 q 552 853 583 820 q 520 939 520 886 q 552 1023 520 991 q 633 1056 583 1056 q 715 1023 684 1056 q 747 937 747 990 q 715 853 747 886 q 633 820 684 820 z "},"Ṉ":{"ha":781,"x_min":52,"x_max":729,"o":"m 52 0 l 52 1000 l 201 1000 l 480 500 l 524 406 l 530 406 l 524 610 l 524 1000 l 729 1000 l 729 0 l 579 0 l 302 508 l 258 606 l 254 606 l 258 391 l 258 0 l 52 0 m 112 -285 l 112 -155 l 664 -155 l 664 -285 l 112 -285 z "},"Ñ":{"ha":781,"x_min":52,"x_max":729,"o":"m 52 0 l 52 1000 l 201 1000 l 480 500 l 524 406 l 530 406 l 524 610 l 524 1000 l 729 1000 l 729 0 l 579 0 l 302 508 l 258 606 l 254 606 l 258 391 l 258 0 l 52 0 m 135 1067 q 176 1214 135 1156 q 293 1272 218 1272 q 358 1260 332 1272 q 401 1233 384 1249 q 435 1206 419 1218 q 469 1195 450 1195 q 507 1217 494 1195 q 519 1272 519 1240 l 647 1272 q 606 1126 648 1185 q 486 1067 564 1067 q 423 1079 448 1067 q 380 1106 398 1090 q 346 1134 362 1122 q 311 1146 330 1146 q 275 1125 286 1146 q 264 1067 264 1103 l 135 1067 z "},"Ŋ":{"ha":781,"x_min":52,"x_max":729,"o":"m 52 0 l 52 1000 l 201 1000 l 480 500 l 524 406 l 530 406 l 524 610 l 524 1000 l 729 1000 l 729 0 l 579 0 l 302 508 l 258 606 l 254 606 l 258 391 l 258 0 l 52 0 m 495 -302 q 438 -296 466 -302 q 399 -282 410 -291 l 399 -98 q 434 -112 414 -106 q 467 -117 454 -117 q 500 -105 486 -117 q 522 -74 514 -94 q 530 -33 530 -55 l 530 138 l 729 138 l 729 -20 q 703 -165 729 -102 q 625 -266 677 -229 q 495 -302 573 -302 z "},"O":{"ha":781,"x_min":37,"x_max":744,"o":"m 391 -11 q 199 48 277 -11 q 79 222 120 108 q 37 500 37 336 q 78 779 37 665 q 198 951 119 892 q 391 1010 277 1010 q 582 951 503 1010 q 702 778 661 892 q 744 500 744 664 q 703 223 744 337 q 582 49 661 109 q 391 -11 503 -11 m 391 192 q 471 228 438 192 q 520 333 504 264 q 536 500 537 401 q 519 669 536 600 q 469 772 502 737 q 391 808 437 808 q 311 772 343 808 q 261 668 278 736 q 245 500 245 599 q 262 333 245 401 q 312 228 279 264 q 391 192 345 192 z "},"Ó":{"ha":781,"x_min":37,"x_max":744,"o":"m 391 -11 q 199 48 277 -11 q 79 222 120 108 q 37 500 37 336 q 78 779 37 665 q 198 951 119 892 q 391 1010 277 1010 q 582 951 503 1010 q 702 778 661 892 q 744 500 744 664 q 703 223 744 337 q 582 49 661 109 q 391 -11 503 -11 m 391 192 q 471 228 438 192 q 520 333 504 264 q 536 500 537 401 q 519 669 536 600 q 469 772 502 737 q 391 808 437 808 q 311 772 343 808 q 261 668 278 736 q 245 500 245 599 q 262 333 245 401 q 312 228 279 264 q 391 192 345 192 m 391 1048 l 303 1137 l 534 1344 l 634 1213 l 391 1048 z "},"Ŏ":{"ha":781,"x_min":37,"x_max":744,"o":"m 391 -11 q 199 48 277 -11 q 79 222 120 108 q 37 500 37 336 q 78 779 37 665 q 198 951 119 892 q 391 1010 277 1010 q 582 951 503 1010 q 702 778 661 892 q 744 500 744 664 q 703 223 744 337 q 582 49 661 109 q 391 -11 503 -11 m 391 192 q 471 228 438 192 q 520 333 504 264 q 536 500 537 401 q 519 669 536 600 q 469 772 502 737 q 391 808 437 808 q 311 772 343 808 q 261 668 278 736 q 245 500 245 599 q 262 333 245 401 q 312 228 279 264 q 391 192 345 192 m 391 1062 q 265 1087 323 1062 q 172 1161 208 1112 q 136 1281 136 1209 l 264 1281 q 305 1202 265 1226 q 391 1177 345 1177 q 481 1202 442 1177 q 519 1281 520 1226 l 648 1281 q 613 1161 649 1209 q 519 1087 578 1112 q 391 1062 460 1062 z "},"Ô":{"ha":781,"x_min":37,"x_max":744,"o":"m 391 -11 q 199 48 277 -11 q 79 222 120 108 q 37 500 37 336 q 78 779 37 665 q 198 951 119 892 q 391 1010 277 1010 q 582 951 503 1010 q 702 778 661 892 q 744 500 744 664 q 703 223 744 337 q 582 49 661 109 q 391 -11 503 -11 m 391 192 q 471 228 438 192 q 520 333 504 264 q 536 500 537 401 q 519 669 536 600 q 469 772 502 737 q 391 808 437 808 q 311 772 343 808 q 261 668 278 736 q 245 500 245 599 q 262 333 245 401 q 312 228 279 264 q 391 192 345 192 m 227 1050 l 131 1149 l 371 1317 l 412 1317 l 652 1149 l 559 1050 l 393 1177 l 389 1177 l 227 1050 z "},"Ố":{"ha":781,"x_min":37,"x_max":841,"o":"m 391 -11 q 199 48 277 -11 q 79 222 120 108 q 37 500 37 336 q 78 779 37 665 q 198 951 119 892 q 391 1010 277 1010 q 582 951 503 1010 q 702 778 661 892 q 744 500 744 664 q 703 223 744 337 q 582 49 661 109 q 391 -11 503 -11 m 391 192 q 471 228 438 192 q 520 333 504 264 q 536 500 537 401 q 519 669 536 600 q 469 772 502 737 q 391 808 437 808 q 311 772 343 808 q 261 668 278 736 q 245 500 245 599 q 262 333 245 401 q 312 228 279 264 q 391 192 345 192 m 618 1235 l 525 1301 l 741 1527 l 841 1393 l 618 1235 m 227 1040 l 132 1137 l 371 1304 l 413 1304 l 652 1137 l 560 1040 l 393 1166 l 390 1166 l 227 1040 z "},"Ộ":{"ha":781,"x_min":37,"x_max":744,"o":"m 391 -11 q 199 48 277 -11 q 79 222 120 108 q 37 500 37 336 q 78 779 37 665 q 198 951 119 892 q 391 1010 277 1010 q 582 951 503 1010 q 702 778 661 892 q 744 500 744 664 q 703 223 744 337 q 582 49 661 109 q 391 -11 503 -11 m 391 192 q 471 228 438 192 q 520 333 504 264 q 536 500 537 401 q 519 669 536 600 q 469 772 502 737 q 391 808 437 808 q 311 772 343 808 q 261 668 278 736 q 245 500 245 599 q 262 333 245 401 q 312 228 279 264 q 391 192 345 192 m 390 -337 q 297 -299 335 -337 q 259 -207 259 -262 q 297 -113 259 -151 q 390 -76 335 -76 q 483 -113 446 -76 q 521 -207 521 -151 q 483 -299 521 -262 q 390 -337 446 -337 m 227 1050 l 131 1149 l 371 1317 l 412 1317 l 652 1149 l 559 1050 l 393 1177 l 389 1177 l 227 1050 z "},"Ồ":{"ha":781,"x_min":-58,"x_max":744,"o":"m 391 -11 q 199 48 277 -11 q 79 222 120 108 q 37 500 37 336 q 78 779 37 665 q 198 951 119 892 q 391 1010 277 1010 q 582 951 503 1010 q 702 778 661 892 q 744 500 744 664 q 703 223 744 337 q 582 49 661 109 q 391 -11 503 -11 m 391 192 q 471 228 438 192 q 520 333 504 264 q 536 500 537 401 q 519 669 536 600 q 469 772 502 737 q 391 808 437 808 q 311 772 343 808 q 261 668 278 736 q 245 500 245 599 q 262 333 245 401 q 312 228 279 264 q 391 192 345 192 m 165 1235 l -58 1393 l 41 1527 l 258 1301 l 165 1235 m 556 1040 l 393 1166 l 390 1166 l 222 1040 l 130 1137 l 370 1304 l 412 1304 l 651 1137 l 556 1040 z "},"Ổ":{"ha":781,"x_min":37,"x_max":744,"o":"m 391 -11 q 199 48 277 -11 q 79 222 120 108 q 37 500 37 336 q 78 779 37 665 q 198 951 119 892 q 391 1010 277 1010 q 582 951 503 1010 q 702 778 661 892 q 744 500 744 664 q 703 223 744 337 q 582 49 661 109 q 391 -11 503 -11 m 391 192 q 471 228 438 192 q 520 333 504 264 q 536 500 537 401 q 519 669 536 600 q 469 772 502 737 q 391 808 437 808 q 311 772 343 808 q 261 668 278 736 q 245 500 245 599 q 262 333 245 401 q 312 228 279 264 q 391 192 345 192 m 600 1236 l 526 1293 q 558 1325 546 1309 q 571 1358 571 1341 q 555 1389 571 1378 q 505 1400 538 1400 q 473 1397 490 1400 q 437 1388 456 1394 l 437 1513 q 481 1524 452 1520 q 535 1527 511 1527 q 653 1493 608 1527 q 698 1388 698 1460 q 682 1323 698 1352 q 643 1271 666 1293 q 600 1236 621 1249 m 227 1040 l 131 1137 l 371 1304 l 412 1304 l 652 1137 l 559 1040 l 393 1166 l 389 1166 l 227 1040 z "},"Ỗ":{"ha":781,"x_min":37,"x_max":744,"o":"m 391 -11 q 199 48 277 -11 q 79 222 120 108 q 37 500 37 336 q 78 779 37 665 q 198 951 119 892 q 391 1010 277 1010 q 582 951 503 1010 q 702 778 661 892 q 744 500 744 664 q 703 223 744 337 q 582 49 661 109 q 391 -11 503 -11 m 391 192 q 471 228 438 192 q 520 333 504 264 q 536 500 537 401 q 519 669 536 600 q 469 772 502 737 q 391 808 437 808 q 311 772 343 808 q 261 668 278 736 q 245 500 245 599 q 262 333 245 401 q 312 228 279 264 q 391 192 345 192 m 136 1322 q 176 1470 134 1413 q 294 1527 219 1527 q 357 1516 332 1527 q 400 1489 382 1504 q 434 1461 418 1473 q 470 1450 450 1450 q 505 1472 493 1450 q 517 1527 517 1493 l 648 1527 q 632 1424 648 1470 q 584 1350 616 1377 q 502 1322 552 1322 q 439 1334 464 1322 q 396 1361 414 1345 q 363 1389 378 1377 q 329 1400 347 1400 q 282 1381 301 1400 q 263 1322 264 1361 l 136 1322 m 226 1040 l 130 1137 l 370 1304 l 412 1304 l 651 1137 l 559 1040 l 391 1166 l 389 1166 l 226 1040 z "},"Ȍ":{"ha":781,"x_min":37,"x_max":744,"o":"m 391 -11 q 199 48 277 -11 q 79 222 120 108 q 37 500 37 336 q 78 779 37 665 q 198 951 119 892 q 391 1010 277 1010 q 582 951 503 1010 q 702 778 661 892 q 744 500 744 664 q 703 223 744 337 q 582 49 661 109 q 391 -11 503 -11 m 391 192 q 471 228 438 192 q 520 333 504 264 q 536 500 537 401 q 519 669 536 600 q 469 772 502 737 q 391 808 437 808 q 311 772 343 808 q 261 668 278 736 q 245 500 245 599 q 262 333 245 401 q 312 228 279 264 q 391 192 345 192 m 212 1060 l 37 1278 l 178 1357 l 319 1112 l 212 1060 m 475 1060 l 305 1278 l 445 1357 l 583 1112 l 475 1060 z "},"Ö":{"ha":781,"x_min":37,"x_max":744,"o":"m 391 -11 q 199 48 277 -11 q 79 222 120 108 q 37 500 37 336 q 78 779 37 665 q 198 951 119 892 q 391 1010 277 1010 q 582 951 503 1010 q 702 778 661 892 q 744 500 744 664 q 703 223 744 337 q 582 49 661 109 q 391 -11 503 -11 m 391 192 q 471 228 438 192 q 520 333 504 264 q 536 500 537 401 q 519 669 536 600 q 469 772 502 737 q 391 808 437 808 q 311 772 343 808 q 261 668 278 736 q 245 500 245 599 q 262 333 245 401 q 312 228 279 264 q 391 192 345 192 m 558 1050 q 471 1084 505 1050 q 437 1168 436 1117 q 471 1254 436 1220 q 558 1289 505 1289 q 642 1254 608 1289 q 675 1168 675 1220 q 642 1084 675 1117 q 558 1050 608 1050 m 230 1050 q 145 1084 178 1050 q 111 1168 111 1117 q 145 1254 111 1220 q 230 1289 178 1289 q 316 1254 281 1289 q 350 1168 350 1220 q 316 1084 350 1117 q 230 1050 281 1050 z "},"Ȫ":{"ha":781,"x_min":37,"x_max":744,"o":"m 391 -11 q 199 48 277 -11 q 79 222 120 108 q 37 500 37 336 q 78 779 37 665 q 198 951 119 892 q 391 1010 277 1010 q 582 951 503 1010 q 702 778 661 892 q 744 500 744 664 q 703 223 744 337 q 582 49 661 109 q 391 -11 503 -11 m 391 192 q 471 228 438 192 q 520 333 504 264 q 536 500 537 401 q 519 669 536 600 q 469 772 502 737 q 391 808 437 808 q 311 772 343 808 q 261 668 278 736 q 245 500 245 599 q 262 333 245 401 q 312 228 279 264 q 391 192 345 192 m 558 1050 q 471 1084 505 1050 q 437 1168 436 1117 q 471 1254 436 1220 q 558 1289 505 1289 q 642 1254 608 1289 q 675 1168 675 1220 q 642 1084 675 1117 q 558 1050 608 1050 m 230 1050 q 145 1084 178 1050 q 111 1168 111 1117 q 145 1254 111 1220 q 230 1289 178 1289 q 316 1254 281 1289 q 350 1168 350 1220 q 316 1084 350 1117 q 230 1050 281 1050 m 125 1340 l 125 1481 l 658 1481 l 658 1340 l 125 1340 z "},"Ȱ":{"ha":781,"x_min":37,"x_max":744,"o":"m 391 -11 q 199 48 277 -11 q 79 222 120 108 q 37 500 37 336 q 78 779 37 665 q 198 951 119 892 q 391 1010 277 1010 q 582 951 503 1010 q 702 778 661 892 q 744 500 744 664 q 703 223 744 337 q 582 49 661 109 q 391 -11 503 -11 m 391 192 q 471 228 438 192 q 520 333 504 264 q 536 500 537 401 q 519 669 536 600 q 469 772 502 737 q 391 808 437 808 q 311 772 343 808 q 261 668 278 736 q 245 500 245 599 q 262 333 245 401 q 312 228 279 264 q 391 192 345 192 m 391 1060 q 298 1098 336 1060 q 260 1190 260 1135 q 298 1284 260 1246 q 391 1321 336 1321 q 484 1284 446 1321 q 522 1190 522 1246 q 484 1098 522 1135 q 391 1060 446 1060 m 125 1367 l 125 1508 l 658 1508 l 658 1367 l 125 1367 z "},"Ọ":{"ha":781,"x_min":37,"x_max":744,"o":"m 391 -11 q 199 48 277 -11 q 79 222 120 108 q 37 500 37 336 q 78 779 37 665 q 198 951 119 892 q 391 1010 277 1010 q 582 951 503 1010 q 702 778 661 892 q 744 500 744 664 q 703 223 744 337 q 582 49 661 109 q 391 -11 503 -11 m 391 192 q 471 228 438 192 q 520 333 504 264 q 536 500 537 401 q 519 669 536 600 q 469 772 502 737 q 391 808 437 808 q 311 772 343 808 q 261 668 278 736 q 245 500 245 599 q 262 333 245 401 q 312 228 279 264 q 391 192 345 192 m 391 -337 q 298 -299 336 -337 q 260 -207 260 -262 q 298 -113 260 -151 q 391 -76 336 -76 q 485 -113 447 -76 q 522 -207 522 -151 q 485 -299 522 -262 q 391 -337 447 -337 z "},"Ò":{"ha":781,"x_min":37,"x_max":744,"o":"m 391 -11 q 199 48 277 -11 q 79 222 120 108 q 37 500 37 336 q 78 779 37 665 q 198 951 119 892 q 391 1010 277 1010 q 582 951 503 1010 q 702 778 661 892 q 744 500 744 664 q 703 223 744 337 q 582 49 661 109 q 391 -11 503 -11 m 391 192 q 471 228 438 192 q 520 333 504 264 q 536 500 537 401 q 519 669 536 600 q 469 772 502 737 q 391 808 437 808 q 311 772 343 808 q 261 668 278 736 q 245 500 245 599 q 262 333 245 401 q 312 228 279 264 q 391 192 345 192 m 391 1048 l 149 1213 l 249 1344 l 479 1137 l 391 1048 z "},"Ỏ":{"ha":781,"x_min":37,"x_max":744,"o":"m 391 -11 q 199 48 277 -11 q 79 222 120 108 q 37 500 37 336 q 78 779 37 665 q 198 951 119 892 q 391 1010 277 1010 q 582 951 503 1010 q 702 778 661 892 q 744 500 744 664 q 703 223 744 337 q 582 49 661 109 q 391 -11 503 -11 m 391 192 q 471 228 438 192 q 520 333 504 264 q 536 500 537 401 q 519 669 536 600 q 469 772 502 737 q 391 808 437 808 q 311 772 343 808 q 261 668 278 736 q 245 500 245 599 q 262 333 245 401 q 312 228 279 264 q 391 192 345 192 m 416 1052 l 340 1126 q 374 1157 359 1140 q 389 1193 389 1173 q 373 1222 389 1212 q 325 1232 357 1232 q 293 1230 313 1232 q 256 1220 272 1227 l 256 1344 q 299 1356 270 1352 q 351 1360 328 1360 q 472 1324 427 1360 q 517 1222 517 1289 q 485 1116 517 1162 q 416 1052 453 1070 z "},"Ơ":{"ha":781,"x_min":37,"x_max":813,"o":"m 391 -11 q 199 48 277 -11 q 79 222 120 108 q 37 500 37 336 q 78 779 37 665 q 198 951 119 892 q 391 1010 277 1010 q 582 951 503 1010 q 702 778 661 892 q 744 500 744 664 q 703 223 744 337 q 582 49 661 109 q 391 -11 503 -11 m 391 192 q 471 228 438 192 q 520 333 504 264 q 536 500 537 401 q 519 669 536 600 q 469 772 502 737 q 391 808 437 808 q 311 772 343 808 q 261 668 278 736 q 245 500 245 599 q 262 333 245 401 q 312 228 279 264 q 391 192 345 192 m 529 829 l 526 966 q 625 997 596 966 q 654 1093 654 1028 q 652 1124 654 1104 q 647 1163 650 1144 l 798 1192 q 810 1135 807 1166 q 813 1085 813 1104 q 772 946 813 1005 q 665 855 730 886 q 529 829 600 824 z "},"Ớ":{"ha":781,"x_min":37,"x_max":813,"o":"m 391 -11 q 199 48 277 -11 q 79 222 120 108 q 37 500 37 336 q 78 779 37 665 q 198 951 119 892 q 391 1010 277 1010 q 582 951 503 1010 q 702 778 661 892 q 744 500 744 664 q 703 223 744 337 q 582 49 661 109 q 391 -11 503 -11 m 391 192 q 471 228 438 192 q 520 333 504 264 q 536 500 537 401 q 519 669 536 600 q 469 772 502 737 q 391 808 437 808 q 311 772 343 808 q 261 668 278 736 q 245 500 245 599 q 262 333 245 401 q 312 228 279 264 q 391 192 345 192 m 529 829 l 526 966 q 625 997 596 966 q 654 1093 654 1028 q 652 1124 654 1104 q 647 1163 650 1144 l 798 1192 q 810 1135 807 1166 q 813 1085 813 1104 q 772 946 813 1005 q 665 855 730 886 q 529 829 600 824 m 391 1048 l 303 1137 l 534 1344 l 634 1213 l 391 1048 z "},"Ợ":{"ha":781,"x_min":37,"x_max":813,"o":"m 391 -11 q 199 48 277 -11 q 79 222 120 108 q 37 500 37 336 q 78 779 37 665 q 198 951 119 892 q 391 1010 277 1010 q 582 951 503 1010 q 702 778 661 892 q 744 500 744 664 q 703 223 744 337 q 582 49 661 109 q 391 -11 503 -11 m 391 192 q 471 228 438 192 q 520 333 504 264 q 536 500 537 401 q 519 669 536 600 q 469 772 502 737 q 391 808 437 808 q 311 772 343 808 q 261 668 278 736 q 245 500 245 599 q 262 333 245 401 q 312 228 279 264 q 391 192 345 192 m 529 829 l 526 966 q 625 997 596 966 q 654 1093 654 1028 q 652 1124 654 1104 q 647 1163 650 1144 l 798 1192 q 810 1135 807 1166 q 813 1085 813 1104 q 772 946 813 1005 q 665 855 730 886 q 529 829 600 824 m 390 -337 q 297 -299 335 -337 q 259 -207 259 -262 q 297 -113 259 -151 q 390 -76 335 -76 q 483 -113 446 -76 q 521 -207 521 -151 q 483 -299 521 -262 q 390 -337 446 -337 z "},"Ờ":{"ha":781,"x_min":37,"x_max":813,"o":"m 391 -11 q 199 48 277 -11 q 79 222 120 108 q 37 500 37 336 q 78 779 37 665 q 198 951 119 892 q 391 1010 277 1010 q 582 951 503 1010 q 702 778 661 892 q 744 500 744 664 q 703 223 744 337 q 582 49 661 109 q 391 -11 503 -11 m 391 192 q 471 228 438 192 q 520 333 504 264 q 536 500 537 401 q 519 669 536 600 q 469 772 502 737 q 391 808 437 808 q 311 772 343 808 q 261 668 278 736 q 245 500 245 599 q 262 333 245 401 q 312 228 279 264 q 391 192 345 192 m 529 829 l 526 966 q 625 997 596 966 q 654 1093 654 1028 q 652 1124 654 1104 q 647 1163 650 1144 l 798 1192 q 810 1135 807 1166 q 813 1085 813 1104 q 772 946 813 1005 q 665 855 730 886 q 529 829 600 824 m 391 1048 l 149 1213 l 249 1344 l 479 1137 l 391 1048 z "},"Ở":{"ha":781,"x_min":37,"x_max":813,"o":"m 391 -11 q 199 48 277 -11 q 79 222 120 108 q 37 500 37 336 q 78 779 37 665 q 198 951 119 892 q 391 1010 277 1010 q 582 951 503 1010 q 702 778 661 892 q 744 500 744 664 q 703 223 744 337 q 582 49 661 109 q 391 -11 503 -11 m 391 192 q 471 228 438 192 q 520 333 504 264 q 536 500 537 401 q 519 669 536 600 q 469 772 502 737 q 391 808 437 808 q 311 772 343 808 q 261 668 278 736 q 245 500 245 599 q 262 333 245 401 q 312 228 279 264 q 391 192 345 192 m 529 829 l 526 966 q 625 997 596 966 q 654 1093 654 1028 q 652 1124 654 1104 q 647 1163 650 1144 l 798 1192 q 810 1135 807 1166 q 813 1085 813 1104 q 772 946 813 1005 q 665 855 730 886 q 529 829 600 824 m 416 1052 l 340 1126 q 374 1157 359 1140 q 389 1193 389 1173 q 373 1222 389 1212 q 325 1232 357 1232 q 293 1230 313 1232 q 256 1220 272 1227 l 256 1344 q 299 1356 270 1352 q 351 1360 328 1360 q 472 1324 427 1360 q 517 1222 517 1289 q 485 1116 517 1162 q 416 1052 453 1070 z "},"Ỡ":{"ha":781,"x_min":37,"x_max":813,"o":"m 391 -11 q 199 48 277 -11 q 79 222 120 108 q 37 500 37 336 q 78 779 37 665 q 198 951 119 892 q 391 1010 277 1010 q 582 951 503 1010 q 702 778 661 892 q 744 500 744 664 q 703 223 744 337 q 582 49 661 109 q 391 -11 503 -11 m 391 192 q 471 228 438 192 q 520 333 504 264 q 536 500 537 401 q 519 669 536 600 q 469 772 502 737 q 391 808 437 808 q 311 772 343 808 q 261 668 278 736 q 245 500 245 599 q 262 333 245 401 q 312 228 279 264 q 391 192 345 192 m 529 829 l 526 966 q 625 997 596 966 q 654 1093 654 1028 q 652 1124 654 1104 q 647 1163 650 1144 l 798 1192 q 810 1135 807 1166 q 813 1085 813 1104 q 772 946 813 1005 q 665 855 730 886 q 529 829 600 824 m 136 1067 q 177 1214 136 1156 q 294 1272 218 1272 q 359 1260 333 1272 q 402 1233 385 1249 q 435 1206 420 1218 q 470 1195 451 1195 q 507 1217 495 1195 q 519 1272 519 1240 l 648 1272 q 607 1126 649 1185 q 486 1067 564 1067 q 424 1079 449 1067 q 381 1106 399 1090 q 347 1134 363 1122 q 311 1146 331 1146 q 275 1125 286 1146 q 264 1067 264 1103 l 136 1067 z "},"Ő":{"ha":781,"x_min":37,"x_max":744,"o":"m 391 -11 q 199 48 277 -11 q 79 222 120 108 q 37 500 37 336 q 78 779 37 665 q 198 951 119 892 q 391 1010 277 1010 q 582 951 503 1010 q 702 778 661 892 q 744 500 744 664 q 703 223 744 337 q 582 49 661 109 q 391 -11 503 -11 m 391 192 q 471 228 438 192 q 520 333 504 264 q 536 500 537 401 q 519 669 536 600 q 469 772 502 737 q 391 808 437 808 q 311 772 343 808 q 261 668 278 736 q 245 500 245 599 q 262 333 245 401 q 312 228 279 264 q 391 192 345 192 m 304 1060 l 196 1112 l 340 1357 l 477 1278 l 304 1060 m 570 1060 l 464 1112 l 602 1357 l 741 1278 l 570 1060 z "},"Ȏ":{"ha":781,"x_min":37,"x_max":744,"o":"m 391 -11 q 199 48 277 -11 q 79 222 120 108 q 37 500 37 336 q 78 779 37 665 q 198 951 119 892 q 391 1010 277 1010 q 582 951 503 1010 q 702 778 661 892 q 744 500 744 664 q 703 223 744 337 q 582 49 661 109 q 391 -11 503 -11 m 391 192 q 471 228 438 192 q 520 333 504 264 q 536 500 537 401 q 519 669 536 600 q 469 772 502 737 q 391 808 437 808 q 311 772 343 808 q 261 668 278 736 q 245 500 245 599 q 262 333 245 401 q 312 228 279 264 q 391 192 345 192 m 390 1284 q 517 1259 458 1284 q 612 1185 576 1234 q 646 1065 647 1136 l 517 1065 q 479 1144 519 1120 q 390 1168 440 1168 q 303 1144 344 1168 q 262 1065 263 1120 l 135 1065 q 170 1185 135 1136 q 263 1259 205 1234 q 390 1284 321 1284 z "},"Ō":{"ha":781,"x_min":37,"x_max":744,"o":"m 391 -11 q 199 48 277 -11 q 79 222 120 108 q 37 500 37 336 q 78 779 37 665 q 198 951 119 892 q 391 1010 277 1010 q 582 951 503 1010 q 702 778 661 892 q 744 500 744 664 q 703 223 744 337 q 582 49 661 109 q 391 -11 503 -11 m 391 192 q 471 228 438 192 q 520 333 504 264 q 536 500 537 401 q 519 669 536 600 q 469 772 502 737 q 391 808 437 808 q 311 772 343 808 q 261 668 278 736 q 245 500 245 599 q 262 333 245 401 q 312 228 279 264 q 391 192 345 192 m 125 1098 l 125 1239 l 658 1239 l 658 1098 l 125 1098 z "},"Ṓ":{"ha":781,"x_min":37,"x_max":744,"o":"m 124 1098 l 124 1239 l 658 1239 l 658 1098 l 124 1098 m 391 1288 l 303 1377 l 534 1584 l 634 1453 l 391 1288 m 391 -11 q 199 48 277 -11 q 79 222 120 108 q 37 500 37 336 q 78 779 37 665 q 198 951 119 892 q 391 1010 277 1010 q 582 951 503 1010 q 702 778 661 892 q 744 500 744 664 q 703 223 744 337 q 582 49 661 109 q 391 -11 503 -11 m 391 192 q 471 228 438 192 q 520 333 504 264 q 536 500 537 401 q 519 669 536 600 q 469 772 502 737 q 391 808 437 808 q 311 772 343 808 q 261 668 278 736 q 245 500 245 599 q 262 333 245 401 q 312 228 279 264 q 391 192 345 192 z "},"Ṑ":{"ha":781,"x_min":37,"x_max":744,"o":"m 391 -11 q 199 48 277 -11 q 79 222 120 108 q 37 500 37 336 q 78 779 37 665 q 198 951 119 892 q 391 1010 277 1010 q 582 951 503 1010 q 702 778 661 892 q 744 500 744 664 q 703 223 744 337 q 582 49 661 109 q 391 -11 503 -11 m 391 192 q 471 228 438 192 q 520 333 504 264 q 536 500 537 401 q 519 669 536 600 q 469 772 502 737 q 391 808 437 808 q 311 772 343 808 q 261 668 278 736 q 245 500 245 599 q 262 333 245 401 q 312 228 279 264 q 391 192 345 192 m 125 1098 l 125 1239 l 658 1239 l 658 1098 l 125 1098 m 391 1288 l 149 1453 l 249 1584 l 479 1377 l 391 1288 z "},"Ǫ":{"ha":781,"x_min":37,"x_max":744,"o":"m 391 -11 q 199 48 277 -11 q 79 222 120 108 q 37 500 37 336 q 78 779 37 665 q 198 951 119 892 q 391 1010 277 1010 q 582 951 503 1010 q 702 778 661 892 q 744 500 744 664 q 703 223 744 337 q 582 49 661 109 q 391 -11 503 -11 m 391 192 q 471 228 438 192 q 520 333 504 264 q 536 500 537 401 q 519 669 536 600 q 469 772 502 737 q 391 808 437 808 q 311 772 343 808 q 261 668 278 736 q 245 500 245 599 q 262 333 245 401 q 312 228 279 264 q 391 192 345 192 m 359 -293 q 251 -255 292 -293 q 209 -155 209 -218 q 247 -54 209 -99 q 354 34 286 -9 l 463 0 q 401 -43 429 -22 q 356 -86 373 -64 q 338 -130 338 -107 q 353 -162 338 -151 q 396 -173 367 -173 q 434 -168 414 -173 q 465 -157 454 -163 l 465 -275 q 413 -288 446 -283 q 359 -293 380 -293 z "},"Ø":{"ha":781,"x_min":-14,"x_max":795,"o":"m 391 -11 q 199 48 277 -11 q 79 222 120 108 q 37 500 37 336 q 78 779 37 665 q 198 951 119 892 q 391 1010 277 1010 q 582 951 503 1010 q 702 778 661 892 q 744 500 744 664 q 703 223 744 337 q 582 49 661 109 q 391 -11 503 -11 m 391 192 q 471 228 438 192 q 520 333 504 264 q 536 500 537 401 q 519 669 536 600 q 469 772 502 737 q 391 808 437 808 q 311 772 343 808 q 261 668 278 736 q 245 500 245 599 q 262 333 245 401 q 312 228 279 264 q 391 192 345 192 m -14 0 l 600 1000 l 795 1000 l 184 0 l -14 0 z "},"Ǿ":{"ha":781,"x_min":-14,"x_max":795,"o":"m 391 -11 q 199 48 277 -11 q 79 222 120 108 q 37 500 37 336 q 78 779 37 665 q 198 951 119 892 q 391 1010 277 1010 q 582 951 503 1010 q 702 778 661 892 q 744 500 744 664 q 703 223 744 337 q 582 49 661 109 q 391 -11 503 -11 m 391 192 q 471 228 438 192 q 520 333 504 264 q 536 500 537 401 q 519 669 536 600 q 469 772 502 737 q 391 808 437 808 q 311 772 343 808 q 261 668 278 736 q 245 500 245 599 q 262 333 245 401 q 312 228 279 264 q 391 192 345 192 m -14 0 l 600 1000 l 795 1000 l 184 0 l -14 0 m 391 1048 l 303 1137 l 534 1344 l 634 1213 l 391 1048 z "},"Õ":{"ha":781,"x_min":37,"x_max":744,"o":"m 391 -11 q 199 48 277 -11 q 79 222 120 108 q 37 500 37 336 q 78 779 37 665 q 198 951 119 892 q 391 1010 277 1010 q 582 951 503 1010 q 702 778 661 892 q 744 500 744 664 q 703 223 744 337 q 582 49 661 109 q 391 -11 503 -11 m 391 192 q 471 228 438 192 q 520 333 504 264 q 536 500 537 401 q 519 669 536 600 q 469 772 502 737 q 391 808 437 808 q 311 772 343 808 q 261 668 278 736 q 245 500 245 599 q 262 333 245 401 q 312 228 279 264 q 391 192 345 192 m 136 1067 q 177 1214 136 1156 q 294 1272 218 1272 q 359 1260 333 1272 q 402 1233 385 1249 q 435 1206 420 1218 q 470 1195 451 1195 q 507 1217 495 1195 q 519 1272 519 1240 l 648 1272 q 607 1126 649 1185 q 486 1067 564 1067 q 424 1079 449 1067 q 381 1106 399 1090 q 347 1134 363 1122 q 311 1146 331 1146 q 275 1125 286 1146 q 264 1067 264 1103 l 136 1067 z "},"Ṍ":{"ha":781,"x_min":37,"x_max":744,"o":"m 391 -11 q 199 48 277 -11 q 79 222 120 108 q 37 500 37 336 q 78 779 37 665 q 198 951 119 892 q 391 1010 277 1010 q 582 951 503 1010 q 702 778 661 892 q 744 500 744 664 q 703 223 744 337 q 582 49 661 109 q 391 -11 503 -11 m 391 192 q 471 228 438 192 q 520 333 504 264 q 536 500 537 401 q 519 669 536 600 q 469 772 502 737 q 391 808 437 808 q 311 772 343 808 q 261 668 278 736 q 245 500 245 599 q 262 333 245 401 q 312 228 279 264 q 391 192 345 192 m 136 1067 q 177 1214 136 1156 q 294 1272 218 1272 q 359 1260 333 1272 q 402 1233 385 1249 q 435 1206 420 1218 q 470 1195 451 1195 q 507 1217 495 1195 q 519 1272 519 1240 l 648 1272 q 607 1126 649 1185 q 486 1067 564 1067 q 424 1079 449 1067 q 381 1106 399 1090 q 347 1134 363 1122 q 311 1146 331 1146 q 275 1125 286 1146 q 264 1067 264 1103 l 136 1067 m 391 1314 l 303 1403 l 534 1610 l 634 1479 l 391 1314 z "},"Ṏ":{"ha":781,"x_min":37,"x_max":744,"o":"m 391 -11 q 199 48 277 -11 q 79 222 120 108 q 37 500 37 336 q 78 779 37 665 q 198 951 119 892 q 391 1010 277 1010 q 582 951 503 1010 q 702 778 661 892 q 744 500 744 664 q 703 223 744 337 q 582 49 661 109 q 391 -11 503 -11 m 391 192 q 471 228 438 192 q 520 333 504 264 q 536 500 537 401 q 519 669 536 600 q 469 772 502 737 q 391 808 437 808 q 311 772 343 808 q 261 668 278 736 q 245 500 245 599 q 262 333 245 401 q 312 228 279 264 q 391 192 345 192 m 136 1067 q 177 1214 136 1156 q 294 1272 218 1272 q 359 1260 333 1272 q 402 1233 385 1249 q 435 1206 420 1218 q 470 1195 451 1195 q 507 1217 495 1195 q 519 1272 519 1240 l 648 1272 q 607 1126 649 1185 q 486 1067 564 1067 q 424 1079 449 1067 q 381 1106 399 1090 q 347 1134 363 1122 q 311 1146 331 1146 q 275 1125 286 1146 q 264 1067 264 1103 l 136 1067 m 558 1316 q 471 1350 505 1316 q 437 1434 436 1383 q 471 1520 436 1486 q 558 1554 505 1554 q 642 1520 608 1554 q 675 1434 675 1486 q 642 1350 675 1383 q 558 1316 608 1316 m 230 1316 q 145 1350 178 1316 q 111 1434 111 1383 q 145 1520 111 1486 q 230 1554 178 1554 q 316 1520 281 1554 q 350 1434 350 1486 q 316 1350 350 1383 q 230 1316 281 1316 z "},"Ȭ":{"ha":781,"x_min":37,"x_max":744,"o":"m 391 -11 q 199 48 277 -11 q 79 222 120 108 q 37 500 37 336 q 78 779 37 665 q 198 951 119 892 q 391 1010 277 1010 q 582 951 503 1010 q 702 778 661 892 q 744 500 744 664 q 703 223 744 337 q 582 49 661 109 q 391 -11 503 -11 m 391 192 q 471 228 438 192 q 520 333 504 264 q 536 500 537 401 q 519 669 536 600 q 469 772 502 737 q 391 808 437 808 q 311 772 343 808 q 261 668 278 736 q 245 500 245 599 q 262 333 245 401 q 312 228 279 264 q 391 192 345 192 m 136 1067 q 177 1214 136 1156 q 294 1272 218 1272 q 359 1260 333 1272 q 402 1233 385 1249 q 435 1206 420 1218 q 470 1195 451 1195 q 507 1217 495 1195 q 519 1272 519 1240 l 648 1272 q 607 1126 649 1185 q 486 1067 564 1067 q 424 1079 449 1067 q 381 1106 399 1090 q 347 1134 363 1122 q 311 1146 331 1146 q 275 1125 286 1146 q 264 1067 264 1103 l 136 1067 m 125 1364 l 125 1505 l 658 1505 l 658 1364 l 125 1364 z "},"Œ":{"ha":781,"x_min":20,"x_max":759,"o":"m 282 -11 q 145 50 204 -11 q 53 224 86 110 q 20 500 20 339 q 53 775 20 661 q 145 950 86 889 q 282 1010 203 1010 q 366 985 332 1010 q 424 909 401 959 q 463 790 448 860 l 437 790 l 437 1000 l 759 1000 l 759 802 l 591 802 l 591 602 l 733 602 l 733 410 l 591 410 l 591 198 l 759 198 l 759 0 l 437 0 l 437 212 l 463 212 q 423 90 447 140 q 365 15 399 41 q 282 -11 331 -11 m 319 184 q 398 266 369 184 q 427 500 427 347 q 398 734 427 652 q 320 815 370 815 q 243 733 268 815 q 218 500 218 650 q 242 268 218 351 q 319 184 267 184 z "},"P":{"ha":781,"x_min":90,"x_max":751,"o":"m 268 326 l 268 522 l 403 522 q 472 540 442 522 q 518 590 502 558 q 535 663 535 623 q 497 764 535 726 q 395 802 459 802 l 268 802 l 268 1000 l 409 1000 q 591 959 515 1000 q 709 844 668 918 q 751 670 751 770 q 708 490 751 568 q 589 369 665 412 q 413 326 513 326 l 268 326 m 90 0 l 90 1000 l 310 1000 l 310 0 l 90 0 z "},"Þ":{"ha":781,"x_min":88,"x_max":745,"o":"m 260 165 l 260 359 l 410 359 q 475 378 447 359 q 518 429 503 397 q 533 503 533 462 q 497 606 533 568 q 402 644 461 644 l 260 644 l 260 838 l 415 838 q 588 798 514 838 q 704 684 663 758 q 745 509 745 611 q 704 330 745 408 q 590 209 663 253 q 420 165 517 165 l 260 165 m 88 0 l 88 1000 l 308 1000 l 308 0 l 88 0 z "},"Q":{"ha":781,"x_min":40,"x_max":774,"o":"m 387 -11 q 198 49 276 -11 q 80 222 121 109 q 40 499 40 336 q 81 778 40 664 q 200 952 122 892 q 391 1012 279 1012 q 581 952 504 1012 q 697 780 658 893 q 736 508 736 667 q 710 277 736 377 q 635 111 684 178 l 582 94 q 506 17 558 44 q 387 -11 454 -11 m 600 0 l 538 113 l 417 176 l 302 368 l 468 368 l 541 235 l 648 189 l 774 0 l 600 0 m 390 185 q 478 216 445 185 q 526 314 511 246 q 541 494 541 382 q 526 665 541 595 q 478 772 511 735 q 390 809 445 809 q 303 774 338 809 q 252 668 269 739 q 235 494 235 598 q 252 327 235 395 q 302 221 268 258 q 390 185 336 185 z "},"R":{"ha":781,"x_min":58,"x_max":769,"o":"m 223 345 l 223 526 l 374 526 q 441 544 412 526 q 487 592 470 561 q 504 664 504 623 q 465 764 504 727 q 368 802 427 802 l 223 802 l 223 1000 l 400 1000 q 558 964 487 1000 q 672 860 629 928 q 714 692 714 791 q 669 516 714 595 q 541 391 625 437 q 344 345 458 345 l 223 345 m 58 0 l 58 1000 l 270 1000 l 270 0 l 58 0 m 529 0 l 347 377 l 505 509 l 769 0 l 529 0 z "},"Ŕ":{"ha":781,"x_min":58,"x_max":769,"o":"m 223 345 l 223 526 l 374 526 q 441 544 412 526 q 487 592 470 561 q 504 664 504 623 q 465 764 504 727 q 368 802 427 802 l 223 802 l 223 1000 l 400 1000 q 558 964 487 1000 q 672 860 629 928 q 714 692 714 791 q 669 516 714 595 q 541 391 625 437 q 344 345 458 345 l 223 345 m 58 0 l 58 1000 l 270 1000 l 270 0 l 58 0 m 529 0 l 347 377 l 505 509 l 769 0 l 529 0 m 354 1048 l 266 1137 l 496 1344 l 597 1213 l 354 1048 z "},"Ř":{"ha":781,"x_min":58,"x_max":769,"o":"m 223 345 l 223 526 l 374 526 q 441 544 412 526 q 487 592 470 561 q 504 664 504 623 q 465 764 504 727 q 368 802 427 802 l 223 802 l 223 1000 l 400 1000 q 558 964 487 1000 q 672 860 629 928 q 714 692 714 791 q 669 516 714 595 q 541 391 625 437 q 344 345 458 345 l 223 345 m 58 0 l 58 1000 l 270 1000 l 270 0 l 58 0 m 529 0 l 347 377 l 505 509 l 769 0 l 529 0 m 189 1314 l 351 1188 l 355 1188 l 522 1314 l 614 1215 l 374 1047 l 332 1047 l 93 1215 l 189 1314 z "},"Ŗ":{"ha":781,"x_min":58,"x_max":769,"o":"m 223 345 l 223 526 l 374 526 q 441 544 412 526 q 487 592 470 561 q 504 664 504 623 q 465 764 504 727 q 368 802 427 802 l 223 802 l 223 1000 l 400 1000 q 558 964 487 1000 q 672 860 629 928 q 714 692 714 791 q 669 516 714 595 q 541 391 625 437 q 344 345 458 345 l 223 345 m 58 0 l 58 1000 l 270 1000 l 270 0 l 58 0 m 529 0 l 347 377 l 505 509 l 769 0 l 529 0 m 336 -423 l 296 -370 l 357 -319 q 383 -292 369 -308 q 408 -259 397 -276 q 418 -229 418 -242 l 443 -228 q 430 -259 442 -245 q 392 -273 418 -273 q 331 -247 361 -273 q 301 -179 301 -221 q 329 -113 301 -138 q 392 -89 357 -89 q 459 -115 431 -89 q 488 -193 488 -140 q 472 -270 488 -236 q 435 -328 456 -304 q 401 -363 415 -351 l 336 -423 z "},"Ȑ":{"ha":781,"x_min":0,"x_max":769,"o":"m 223 345 l 223 526 l 374 526 q 441 544 412 526 q 487 592 470 561 q 504 664 504 623 q 465 764 504 727 q 368 802 427 802 l 223 802 l 223 1000 l 400 1000 q 558 964 487 1000 q 672 860 629 928 q 714 692 714 791 q 669 516 714 595 q 541 391 625 437 q 344 345 458 345 l 223 345 m 58 0 l 58 1000 l 270 1000 l 270 0 l 58 0 m 529 0 l 347 377 l 505 509 l 769 0 l 529 0 m 175 1060 l 0 1278 l 141 1357 l 281 1112 l 175 1060 m 437 1060 l 268 1278 l 408 1357 l 545 1112 l 437 1060 z "},"Ṛ":{"ha":781,"x_min":58,"x_max":769,"o":"m 223 345 l 223 526 l 374 526 q 441 544 412 526 q 487 592 470 561 q 504 664 504 623 q 465 764 504 727 q 368 802 427 802 l 223 802 l 223 1000 l 400 1000 q 558 964 487 1000 q 672 860 629 928 q 714 692 714 791 q 669 516 714 595 q 541 391 625 437 q 344 345 458 345 l 223 345 m 58 0 l 58 1000 l 270 1000 l 270 0 l 58 0 m 529 0 l 347 377 l 505 509 l 769 0 l 529 0 m 391 -337 q 298 -299 336 -337 q 260 -207 260 -262 q 298 -113 260 -151 q 391 -76 336 -76 q 485 -113 447 -76 q 522 -207 522 -151 q 485 -299 522 -262 q 391 -337 447 -337 z "},"Ȓ":{"ha":781,"x_min":58,"x_max":769,"o":"m 223 345 l 223 526 l 374 526 q 441 544 412 526 q 487 592 470 561 q 504 664 504 623 q 465 764 504 727 q 368 802 427 802 l 223 802 l 223 1000 l 400 1000 q 558 964 487 1000 q 672 860 629 928 q 714 692 714 791 q 669 516 714 595 q 541 391 625 437 q 344 345 458 345 l 223 345 m 58 0 l 58 1000 l 270 1000 l 270 0 l 58 0 m 529 0 l 347 377 l 505 509 l 769 0 l 529 0 m 353 1284 q 480 1259 421 1284 q 574 1185 539 1234 q 609 1065 610 1136 l 479 1065 q 442 1144 481 1120 q 353 1168 403 1168 q 266 1144 306 1168 q 224 1065 226 1120 l 98 1065 q 133 1185 98 1136 q 226 1259 168 1234 q 353 1284 284 1284 z "},"Ṟ":{"ha":781,"x_min":58,"x_max":769,"o":"m 223 345 l 223 526 l 374 526 q 441 544 412 526 q 487 592 470 561 q 504 664 504 623 q 465 764 504 727 q 368 802 427 802 l 223 802 l 223 1000 l 400 1000 q 558 964 487 1000 q 672 860 629 928 q 714 692 714 791 q 669 516 714 595 q 541 391 625 437 q 344 345 458 345 l 223 345 m 58 0 l 58 1000 l 270 1000 l 270 0 l 58 0 m 529 0 l 347 377 l 505 509 l 769 0 l 529 0 m 115 -285 l 115 -155 l 667 -155 l 667 -285 l 115 -285 z "},"S":{"ha":781,"x_min":44,"x_max":727,"o":"m 403 -11 q 249 22 322 -11 q 121 110 176 54 q 44 236 67 165 l 256 325 q 289 260 268 291 q 339 211 311 230 q 402 192 368 192 q 454 205 431 192 q 491 242 477 219 q 505 294 505 266 q 482 356 505 332 q 420 399 458 380 q 336 435 382 418 q 244 474 290 452 q 161 528 199 496 q 99 607 123 559 q 76 722 76 654 q 115 874 76 809 q 224 975 154 939 q 386 1010 294 1010 q 531 984 467 1010 q 639 910 595 957 q 705 805 683 864 l 501 721 q 476 769 492 749 q 436 802 459 790 q 387 813 413 813 q 323 790 349 813 q 298 726 298 766 q 321 664 298 688 q 382 621 345 639 q 466 586 420 603 q 558 549 512 570 q 642 497 604 528 q 704 420 680 466 q 727 306 727 374 q 684 143 727 215 q 567 31 640 72 q 403 -11 494 -11 z "},"Ś":{"ha":781,"x_min":44,"x_max":727,"o":"m 403 -11 q 249 22 322 -11 q 121 110 176 54 q 44 236 67 165 l 256 325 q 289 260 268 291 q 339 211 311 230 q 402 192 368 192 q 454 205 431 192 q 491 242 477 219 q 505 294 505 266 q 482 356 505 332 q 420 399 458 380 q 336 435 382 418 q 244 474 290 452 q 161 528 199 496 q 99 607 123 559 q 76 722 76 654 q 115 874 76 809 q 224 975 154 939 q 386 1010 294 1010 q 531 984 467 1010 q 639 910 595 957 q 705 805 683 864 l 501 721 q 476 769 492 749 q 436 802 459 790 q 387 813 413 813 q 323 790 349 813 q 298 726 298 766 q 321 664 298 688 q 382 621 345 639 q 466 586 420 603 q 558 549 512 570 q 642 497 604 528 q 704 420 680 466 q 727 306 727 374 q 684 143 727 215 q 567 31 640 72 q 403 -11 494 -11 m 392 1048 l 304 1137 l 534 1344 l 635 1213 l 392 1048 z "},"Ṥ":{"ha":781,"x_min":44,"x_max":727,"o":"m 403 -11 q 249 22 322 -11 q 121 110 176 54 q 44 236 67 165 l 256 325 q 289 260 268 291 q 339 211 311 230 q 402 192 368 192 q 454 205 431 192 q 491 242 477 219 q 505 294 505 266 q 482 356 505 332 q 420 399 458 380 q 336 435 382 418 q 244 474 290 452 q 161 528 199 496 q 99 607 123 559 q 76 722 76 654 q 115 874 76 809 q 224 975 154 939 q 386 1010 294 1010 q 531 984 467 1010 q 639 910 595 957 q 705 805 683 864 l 501 721 q 476 769 492 749 q 436 802 459 790 q 387 813 413 813 q 323 790 349 813 q 298 726 298 766 q 321 664 298 688 q 382 621 345 639 q 466 586 420 603 q 558 549 512 570 q 642 497 604 528 q 704 420 680 466 q 727 306 727 374 q 684 143 727 215 q 567 31 640 72 q 403 -11 494 -11 m 501 1054 l 412 1131 l 606 1388 l 724 1271 l 501 1054 m 241 1083 q 149 1121 186 1083 q 111 1213 111 1158 q 149 1307 111 1270 q 241 1344 186 1344 q 335 1307 297 1344 q 372 1213 372 1270 q 335 1121 372 1158 q 241 1083 297 1083 z "},"Š":{"ha":781,"x_min":44,"x_max":727,"o":"m 403 -11 q 249 22 322 -11 q 121 110 176 54 q 44 236 67 165 l 256 325 q 289 260 268 291 q 339 211 311 230 q 402 192 368 192 q 454 205 431 192 q 491 242 477 219 q 505 294 505 266 q 482 356 505 332 q 420 399 458 380 q 336 435 382 418 q 244 474 290 452 q 161 528 199 496 q 99 607 123 559 q 76 722 76 654 q 115 874 76 809 q 224 975 154 939 q 386 1010 294 1010 q 531 984 467 1010 q 639 910 595 957 q 705 805 683 864 l 501 721 q 476 769 492 749 q 436 802 459 790 q 387 813 413 813 q 323 790 349 813 q 298 726 298 766 q 321 664 298 688 q 382 621 345 639 q 466 586 420 603 q 558 549 512 570 q 642 497 604 528 q 704 420 680 466 q 727 306 727 374 q 684 143 727 215 q 567 31 640 72 q 403 -11 494 -11 m 227 1314 l 389 1188 l 393 1188 l 559 1314 l 652 1215 l 413 1047 l 371 1047 l 131 1215 l 227 1314 z "},"Ṧ":{"ha":781,"x_min":44,"x_max":727,"o":"m 403 -11 q 249 22 322 -11 q 121 110 176 54 q 44 236 67 165 l 256 325 q 289 260 268 291 q 339 211 311 230 q 402 192 368 192 q 454 205 431 192 q 491 242 477 219 q 505 294 505 266 q 482 356 505 332 q 420 399 458 380 q 336 435 382 418 q 244 474 290 452 q 161 528 199 496 q 99 607 123 559 q 76 722 76 654 q 115 874 76 809 q 224 975 154 939 q 386 1010 294 1010 q 531 984 467 1010 q 639 910 595 957 q 705 805 683 864 l 501 721 q 476 769 492 749 q 436 802 459 790 q 387 813 413 813 q 323 790 349 813 q 298 726 298 766 q 321 664 298 688 q 382 621 345 639 q 466 586 420 603 q 558 549 512 570 q 642 497 604 528 q 704 420 680 466 q 727 306 727 374 q 684 143 727 215 q 567 31 640 72 q 403 -11 494 -11 m 227 1314 l 389 1188 l 393 1188 l 559 1314 l 652 1215 l 413 1047 l 371 1047 l 131 1215 l 227 1314 m 391 1296 q 298 1334 336 1296 q 260 1426 260 1371 q 298 1520 260 1482 q 391 1557 336 1557 q 484 1520 447 1557 q 522 1426 522 1482 q 484 1334 522 1371 q 391 1296 447 1296 z "},"Ş":{"ha":781,"x_min":44,"x_max":727,"o":"m 403 -11 q 249 22 322 -11 q 121 110 176 54 q 44 236 67 165 l 256 325 q 289 260 268 291 q 339 211 311 230 q 402 192 368 192 q 454 205 431 192 q 491 242 477 219 q 505 294 505 266 q 482 356 505 332 q 420 399 458 380 q 336 435 382 418 q 244 474 290 452 q 161 528 199 496 q 99 607 123 559 q 76 722 76 654 q 115 874 76 809 q 224 975 154 939 q 386 1010 294 1010 q 531 984 467 1010 q 639 910 595 957 q 705 805 683 864 l 501 721 q 476 769 492 749 q 436 802 459 790 q 387 813 413 813 q 323 790 349 813 q 298 726 298 766 q 321 664 298 688 q 382 621 345 639 q 466 586 420 603 q 558 549 512 570 q 642 497 604 528 q 704 420 680 466 q 727 306 727 374 q 684 143 727 215 q 567 31 640 72 q 403 -11 494 -11 m 302 -347 l 302 -243 q 405 -229 374 -245 q 436 -187 436 -213 q 410 -153 436 -168 q 338 -136 385 -139 l 382 0 l 472 0 l 433 -111 l 425 -64 q 524 -108 486 -75 q 561 -197 561 -142 q 499 -307 561 -264 q 302 -347 437 -349 z "},"Ŝ":{"ha":781,"x_min":44,"x_max":727,"o":"m 403 -11 q 249 22 322 -11 q 121 110 176 54 q 44 236 67 165 l 256 325 q 289 260 268 291 q 339 211 311 230 q 402 192 368 192 q 454 205 431 192 q 491 242 477 219 q 505 294 505 266 q 482 356 505 332 q 420 399 458 380 q 336 435 382 418 q 244 474 290 452 q 161 528 199 496 q 99 607 123 559 q 76 722 76 654 q 115 874 76 809 q 224 975 154 939 q 386 1010 294 1010 q 531 984 467 1010 q 639 910 595 957 q 705 805 683 864 l 501 721 q 476 769 492 749 q 436 802 459 790 q 387 813 413 813 q 323 790 349 813 q 298 726 298 766 q 321 664 298 688 q 382 621 345 639 q 466 586 420 603 q 558 549 512 570 q 642 497 604 528 q 704 420 680 466 q 727 306 727 374 q 684 143 727 215 q 567 31 640 72 q 403 -11 494 -11 m 227 1050 l 132 1149 l 372 1317 l 413 1317 l 652 1149 l 560 1050 l 393 1177 l 390 1177 l 227 1050 z "},"Ș":{"ha":781,"x_min":44,"x_max":727,"o":"m 403 -11 q 249 22 322 -11 q 121 110 176 54 q 44 236 67 165 l 256 325 q 289 260 268 291 q 339 211 311 230 q 402 192 368 192 q 454 205 431 192 q 491 242 477 219 q 505 294 505 266 q 482 356 505 332 q 420 399 458 380 q 336 435 382 418 q 244 474 290 452 q 161 528 199 496 q 99 607 123 559 q 76 722 76 654 q 115 874 76 809 q 224 975 154 939 q 386 1010 294 1010 q 531 984 467 1010 q 639 910 595 957 q 705 805 683 864 l 501 721 q 476 769 492 749 q 436 802 459 790 q 387 813 413 813 q 323 790 349 813 q 298 726 298 766 q 321 664 298 688 q 382 621 345 639 q 466 586 420 603 q 558 549 512 570 q 642 497 604 528 q 704 420 680 466 q 727 306 727 374 q 684 143 727 215 q 567 31 640 72 q 403 -11 494 -11 m 357 -423 l 317 -370 l 378 -319 q 404 -292 390 -308 q 429 -259 418 -276 q 439 -229 439 -242 l 464 -228 q 451 -259 463 -245 q 413 -273 439 -273 q 352 -247 382 -273 q 322 -179 322 -221 q 350 -113 322 -138 q 413 -89 378 -89 q 480 -115 452 -89 q 509 -193 509 -140 q 493 -270 509 -236 q 456 -328 477 -304 q 422 -363 436 -351 l 357 -423 z "},"Ṡ":{"ha":781,"x_min":44,"x_max":727,"o":"m 403 -11 q 249 22 322 -11 q 121 110 176 54 q 44 236 67 165 l 256 325 q 289 260 268 291 q 339 211 311 230 q 402 192 368 192 q 454 205 431 192 q 491 242 477 219 q 505 294 505 266 q 482 356 505 332 q 420 399 458 380 q 336 435 382 418 q 244 474 290 452 q 161 528 199 496 q 99 607 123 559 q 76 722 76 654 q 115 874 76 809 q 224 975 154 939 q 386 1010 294 1010 q 531 984 467 1010 q 639 910 595 957 q 705 805 683 864 l 501 721 q 476 769 492 749 q 436 802 459 790 q 387 813 413 813 q 323 790 349 813 q 298 726 298 766 q 321 664 298 688 q 382 621 345 639 q 466 586 420 603 q 558 549 512 570 q 642 497 604 528 q 704 420 680 466 q 727 306 727 374 q 684 143 727 215 q 567 31 640 72 q 403 -11 494 -11 m 391 1060 q 298 1098 336 1060 q 260 1190 260 1135 q 298 1284 260 1246 q 391 1321 336 1321 q 485 1284 447 1321 q 522 1190 522 1246 q 485 1098 522 1135 q 391 1060 447 1060 z "},"Ṣ":{"ha":781,"x_min":44,"x_max":727,"o":"m 403 -11 q 249 22 322 -11 q 121 110 176 54 q 44 236 67 165 l 256 325 q 289 260 268 291 q 339 211 311 230 q 402 192 368 192 q 454 205 431 192 q 491 242 477 219 q 505 294 505 266 q 482 356 505 332 q 420 399 458 380 q 336 435 382 418 q 244 474 290 452 q 161 528 199 496 q 99 607 123 559 q 76 722 76 654 q 115 874 76 809 q 224 975 154 939 q 386 1010 294 1010 q 531 984 467 1010 q 639 910 595 957 q 705 805 683 864 l 501 721 q 476 769 492 749 q 436 802 459 790 q 387 813 413 813 q 323 790 349 813 q 298 726 298 766 q 321 664 298 688 q 382 621 345 639 q 466 586 420 603 q 558 549 512 570 q 642 497 604 528 q 704 420 680 466 q 727 306 727 374 q 684 143 727 215 q 567 31 640 72 q 403 -11 494 -11 m 412 -337 q 319 -299 357 -337 q 281 -207 281 -262 q 319 -113 281 -151 q 412 -76 357 -76 q 506 -113 468 -76 q 543 -207 543 -151 q 506 -299 543 -262 q 412 -337 468 -337 z "},"Ṩ":{"ha":781,"x_min":44,"x_max":727,"o":"m 403 -11 q 249 22 322 -11 q 121 110 176 54 q 44 236 67 165 l 256 325 q 289 260 268 291 q 339 211 311 230 q 402 192 368 192 q 454 205 431 192 q 491 242 477 219 q 505 294 505 266 q 482 356 505 332 q 420 399 458 380 q 336 435 382 418 q 244 474 290 452 q 161 528 199 496 q 99 607 123 559 q 76 722 76 654 q 115 874 76 809 q 224 975 154 939 q 386 1010 294 1010 q 531 984 467 1010 q 639 910 595 957 q 705 805 683 864 l 501 721 q 476 769 492 749 q 436 802 459 790 q 387 813 413 813 q 323 790 349 813 q 298 726 298 766 q 321 664 298 688 q 382 621 345 639 q 466 586 420 603 q 558 549 512 570 q 642 497 604 528 q 704 420 680 466 q 727 306 727 374 q 684 143 727 215 q 567 31 640 72 q 403 -11 494 -11 m 411 -337 q 318 -299 356 -337 q 280 -207 280 -262 q 318 -113 280 -151 q 411 -76 356 -76 q 504 -113 467 -76 q 542 -207 542 -151 q 504 -299 542 -262 q 411 -337 467 -337 m 411 1060 q 318 1098 356 1060 q 280 1190 280 1135 q 318 1284 280 1246 q 411 1321 356 1321 q 504 1284 467 1321 q 542 1190 542 1246 q 504 1098 542 1135 q 411 1060 467 1060 z "},"ẞ":{"ha":781,"x_min":53,"x_max":770,"o":"m 452 -11 q 415 -9 431 -11 q 380 -5 400 -7 l 380 198 q 422 189 410 191 q 442 187 435 187 q 510 204 484 187 q 550 252 537 220 q 564 326 564 283 q 538 430 566 388 q 450 473 511 473 l 388 473 l 388 513 l 484 844 l 496 787 q 467 808 491 800 q 408 817 442 817 q 330 801 359 817 q 286 764 300 786 q 268 718 272 741 q 263 675 263 694 l 263 0 l 53 0 l 53 701 q 70 810 53 762 q 118 897 87 859 q 192 960 149 935 q 287 998 235 985 q 399 1010 340 1010 q 515 1001 456 1010 q 626 975 575 991 q 709 938 677 958 l 709 916 l 574 528 l 566 630 q 678 578 633 621 q 747 470 724 536 q 770 323 770 404 q 731 148 770 223 q 621 31 692 73 q 452 -11 549 -11 z "},"T":{"ha":781,"x_min":39,"x_max":742,"o":"m 279 0 l 279 833 l 502 833 l 502 0 l 279 0 m 39 802 l 39 1000 l 742 1000 l 742 802 l 39 802 z "},"Ŧ":{"ha":781,"x_min":39,"x_max":742,"o":"m 279 0 l 279 833 l 502 833 l 502 0 l 279 0 m 39 802 l 39 1000 l 742 1000 l 742 802 l 39 802 m 175 406 l 175 515 l 606 515 l 606 406 l 175 406 z "},"Ť":{"ha":781,"x_min":39,"x_max":742,"o":"m 279 0 l 279 833 l 502 833 l 502 0 l 279 0 m 39 802 l 39 1000 l 742 1000 l 742 802 l 39 802 m 225 1314 l 388 1188 l 391 1188 l 558 1314 l 650 1215 l 411 1047 l 370 1047 l 130 1215 l 225 1314 z "},"Ţ":{"ha":781,"x_min":39,"x_max":742,"o":"m 279 0 l 279 833 l 502 833 l 502 0 l 279 0 m 39 802 l 39 1000 l 742 1000 l 742 802 l 39 802 m 267 -347 l 267 -243 q 369 -229 338 -245 q 400 -187 400 -213 q 374 -153 400 -168 q 302 -136 349 -139 l 346 0 l 436 0 l 397 -111 l 389 -64 q 488 -108 450 -75 q 525 -197 525 -142 q 463 -307 525 -264 q 267 -347 401 -349 z "},"Ț":{"ha":781,"x_min":39,"x_max":742,"o":"m 279 0 l 279 833 l 502 833 l 502 0 l 279 0 m 39 802 l 39 1000 l 742 1000 l 742 802 l 39 802 m 336 -423 l 295 -370 l 357 -319 q 382 -292 368 -308 q 407 -259 397 -276 q 418 -229 418 -242 l 442 -228 q 430 -259 441 -245 q 391 -273 418 -273 q 331 -247 361 -273 q 300 -179 300 -221 q 329 -113 300 -138 q 391 -89 357 -89 q 459 -115 431 -89 q 487 -193 487 -140 q 471 -270 487 -236 q 435 -328 455 -304 q 401 -363 414 -351 l 336 -423 z "},"Ṭ":{"ha":781,"x_min":39,"x_max":742,"o":"m 279 0 l 279 833 l 502 833 l 502 0 l 279 0 m 39 802 l 39 1000 l 742 1000 l 742 802 l 39 802 m 391 -337 q 298 -299 336 -337 q 260 -207 260 -262 q 298 -113 260 -151 q 391 -76 336 -76 q 484 -113 446 -76 q 522 -207 522 -151 q 484 -299 522 -262 q 391 -337 446 -337 z "},"Ṯ":{"ha":781,"x_min":39,"x_max":742,"o":"m 279 0 l 279 833 l 502 833 l 502 0 l 279 0 m 39 802 l 39 1000 l 742 1000 l 742 802 l 39 802 m 115 -285 l 115 -155 l 667 -155 l 667 -285 l 115 -285 z "},"U":{"ha":781,"x_min":52,"x_max":729,"o":"m 391 -11 q 212 36 288 -11 q 94 166 136 82 q 52 364 52 250 l 52 1000 l 266 1000 l 266 346 q 299 231 266 274 q 391 187 332 187 q 483 231 450 187 q 515 346 515 274 l 515 1000 l 729 1000 l 729 364 q 688 166 729 250 q 570 36 646 82 q 391 -11 494 -11 z "},"Ú":{"ha":781,"x_min":52,"x_max":729,"o":"m 391 -11 q 212 36 288 -11 q 94 166 136 82 q 52 364 52 250 l 52 1000 l 266 1000 l 266 346 q 299 231 266 274 q 391 187 332 187 q 483 231 450 187 q 515 346 515 274 l 515 1000 l 729 1000 l 729 364 q 688 166 729 250 q 570 36 646 82 q 391 -11 494 -11 m 391 1048 l 302 1137 l 533 1344 l 633 1213 l 391 1048 z "},"Ŭ":{"ha":781,"x_min":52,"x_max":729,"o":"m 391 -11 q 212 36 288 -11 q 94 166 136 82 q 52 364 52 250 l 52 1000 l 266 1000 l 266 346 q 299 231 266 274 q 391 187 332 187 q 483 231 450 187 q 515 346 515 274 l 515 1000 l 729 1000 l 729 364 q 688 166 729 250 q 570 36 646 82 q 391 -11 494 -11 m 391 1062 q 264 1087 322 1062 q 171 1161 207 1112 q 136 1281 136 1209 l 263 1281 q 304 1202 264 1226 q 391 1177 345 1177 q 480 1202 441 1177 q 518 1281 519 1226 l 647 1281 q 613 1161 648 1209 q 518 1087 577 1112 q 391 1062 459 1062 z "},"Û":{"ha":781,"x_min":52,"x_max":729,"o":"m 391 -11 q 212 36 288 -11 q 94 166 136 82 q 52 364 52 250 l 52 1000 l 266 1000 l 266 346 q 299 231 266 274 q 391 187 332 187 q 483 231 450 187 q 515 346 515 274 l 515 1000 l 729 1000 l 729 364 q 688 166 729 250 q 570 36 646 82 q 391 -11 494 -11 m 226 1050 l 130 1149 l 370 1317 l 412 1317 l 651 1149 l 559 1050 l 392 1177 l 389 1177 l 226 1050 z "},"Ȕ":{"ha":781,"x_min":37,"x_max":729,"o":"m 391 -11 q 212 36 288 -11 q 94 166 136 82 q 52 364 52 250 l 52 1000 l 266 1000 l 266 346 q 299 231 266 274 q 391 187 332 187 q 483 231 450 187 q 515 346 515 274 l 515 1000 l 729 1000 l 729 364 q 688 166 729 250 q 570 36 646 82 q 391 -11 494 -11 m 212 1060 l 37 1278 l 178 1357 l 318 1112 l 212 1060 m 474 1060 l 304 1278 l 444 1357 l 582 1112 l 474 1060 z "},"Ü":{"ha":781,"x_min":52,"x_max":729,"o":"m 391 -11 q 212 36 288 -11 q 94 166 136 82 q 52 364 52 250 l 52 1000 l 266 1000 l 266 346 q 299 231 266 274 q 391 187 332 187 q 483 231 450 187 q 515 346 515 274 l 515 1000 l 729 1000 l 729 364 q 688 166 729 250 q 570 36 646 82 q 391 -11 494 -11 m 557 1050 q 470 1084 505 1050 q 436 1168 435 1117 q 470 1254 435 1220 q 557 1289 505 1289 q 641 1254 608 1289 q 674 1168 674 1220 q 641 1084 674 1117 q 557 1050 608 1050 m 229 1050 q 144 1084 178 1050 q 111 1168 111 1117 q 144 1254 111 1220 q 229 1289 178 1289 q 315 1254 281 1289 q 349 1168 349 1220 q 315 1084 349 1117 q 229 1050 281 1050 z "},"Ụ":{"ha":781,"x_min":52,"x_max":729,"o":"m 391 -11 q 212 36 288 -11 q 94 166 136 82 q 52 364 52 250 l 52 1000 l 266 1000 l 266 346 q 299 231 266 274 q 391 187 332 187 q 483 231 450 187 q 515 346 515 274 l 515 1000 l 729 1000 l 729 364 q 688 166 729 250 q 570 36 646 82 q 391 -11 494 -11 m 389 -337 q 296 -299 334 -337 q 258 -207 258 -262 q 296 -113 258 -151 q 389 -76 334 -76 q 483 -113 445 -76 q 520 -207 520 -151 q 483 -299 520 -262 q 389 -337 445 -337 z "},"Ù":{"ha":781,"x_min":52,"x_max":729,"o":"m 391 -11 q 212 36 288 -11 q 94 166 136 82 q 52 364 52 250 l 52 1000 l 266 1000 l 266 346 q 299 231 266 274 q 391 187 332 187 q 483 231 450 187 q 515 346 515 274 l 515 1000 l 729 1000 l 729 364 q 688 166 729 250 q 570 36 646 82 q 391 -11 494 -11 m 391 1048 l 148 1213 l 248 1344 l 479 1137 l 391 1048 z "},"Ủ":{"ha":781,"x_min":52,"x_max":729,"o":"m 391 -11 q 212 36 288 -11 q 94 166 136 82 q 52 364 52 250 l 52 1000 l 266 1000 l 266 346 q 299 231 266 274 q 391 187 332 187 q 483 231 450 187 q 515 346 515 274 l 515 1000 l 729 1000 l 729 364 q 688 166 729 250 q 570 36 646 82 q 391 -11 494 -11 m 415 1052 l 339 1126 q 373 1157 358 1140 q 389 1193 389 1173 q 372 1222 389 1212 q 324 1232 356 1232 q 292 1230 313 1232 q 256 1220 271 1227 l 256 1344 q 298 1356 269 1352 q 351 1360 327 1360 q 471 1324 426 1360 q 516 1222 516 1289 q 484 1116 516 1162 q 415 1052 452 1070 z "},"Ư":{"ha":781,"x_min":52,"x_max":961,"o":"m 391 -11 q 212 36 288 -11 q 94 166 136 82 q 52 364 52 250 l 52 1000 l 266 1000 l 266 346 q 299 231 266 274 q 391 187 332 187 q 483 231 450 187 q 515 346 515 274 l 515 1000 l 729 1000 l 729 364 q 688 166 729 250 q 570 36 646 82 q 391 -11 494 -11 m 676 862 l 673 1000 q 772 1030 743 1000 q 802 1126 802 1061 q 800 1157 802 1137 q 794 1196 798 1177 l 945 1225 q 957 1168 954 1199 q 960 1118 960 1137 q 919 979 960 1038 q 812 888 878 920 q 676 862 747 857 z "},"Ứ":{"ha":781,"x_min":52,"x_max":961,"o":"m 391 -11 q 212 36 288 -11 q 94 166 136 82 q 52 364 52 250 l 52 1000 l 266 1000 l 266 346 q 299 231 266 274 q 391 187 332 187 q 483 231 450 187 q 515 346 515 274 l 515 1000 l 729 1000 l 729 364 q 688 166 729 250 q 570 36 646 82 q 391 -11 494 -11 m 676 862 l 673 1000 q 772 1030 743 1000 q 802 1126 802 1061 q 800 1157 802 1137 q 794 1196 798 1177 l 945 1225 q 957 1168 954 1199 q 960 1118 960 1137 q 919 979 960 1038 q 812 888 878 920 q 676 862 747 857 m 391 1048 l 302 1137 l 533 1344 l 633 1213 l 391 1048 z "},"Ự":{"ha":781,"x_min":52,"x_max":961,"o":"m 391 -11 q 212 36 288 -11 q 94 166 136 82 q 52 364 52 250 l 52 1000 l 266 1000 l 266 346 q 299 231 266 274 q 391 187 332 187 q 483 231 450 187 q 515 346 515 274 l 515 1000 l 729 1000 l 729 364 q 688 166 729 250 q 570 36 646 82 q 391 -11 494 -11 m 676 862 l 673 1000 q 772 1030 743 1000 q 802 1126 802 1061 q 800 1157 802 1137 q 794 1196 798 1177 l 945 1225 q 957 1168 954 1199 q 960 1118 960 1137 q 919 979 960 1038 q 812 888 878 920 q 676 862 747 857 m 389 -337 q 296 -299 334 -337 q 258 -207 258 -262 q 296 -113 258 -151 q 389 -76 334 -76 q 483 -113 445 -76 q 520 -207 520 -151 q 483 -299 520 -262 q 389 -337 445 -337 z "},"Ừ":{"ha":781,"x_min":52,"x_max":961,"o":"m 391 -11 q 212 36 288 -11 q 94 166 136 82 q 52 364 52 250 l 52 1000 l 266 1000 l 266 346 q 299 231 266 274 q 391 187 332 187 q 483 231 450 187 q 515 346 515 274 l 515 1000 l 729 1000 l 729 364 q 688 166 729 250 q 570 36 646 82 q 391 -11 494 -11 m 676 862 l 673 1000 q 772 1030 743 1000 q 802 1126 802 1061 q 800 1157 802 1137 q 794 1196 798 1177 l 945 1225 q 957 1168 954 1199 q 960 1118 960 1137 q 919 979 960 1038 q 812 888 878 920 q 676 862 747 857 m 391 1048 l 148 1213 l 248 1344 l 479 1137 l 391 1048 z "},"Ử":{"ha":781,"x_min":52,"x_max":961,"o":"m 391 -11 q 212 36 288 -11 q 94 166 136 82 q 52 364 52 250 l 52 1000 l 266 1000 l 266 346 q 299 231 266 274 q 391 187 332 187 q 483 231 450 187 q 515 346 515 274 l 515 1000 l 729 1000 l 729 364 q 688 166 729 250 q 570 36 646 82 q 391 -11 494 -11 m 676 862 l 673 1000 q 772 1030 743 1000 q 802 1126 802 1061 q 800 1157 802 1137 q 794 1196 798 1177 l 945 1225 q 957 1168 954 1199 q 960 1118 960 1137 q 919 979 960 1038 q 812 888 878 920 q 676 862 747 857 m 415 1052 l 339 1126 q 373 1157 358 1140 q 389 1193 389 1173 q 372 1222 389 1212 q 324 1232 356 1232 q 292 1230 313 1232 q 256 1220 271 1227 l 256 1344 q 298 1356 269 1352 q 351 1360 327 1360 q 471 1324 426 1360 q 516 1222 516 1289 q 484 1116 516 1162 q 415 1052 452 1070 z "},"Ữ":{"ha":781,"x_min":52,"x_max":961,"o":"m 391 -11 q 212 36 288 -11 q 94 166 136 82 q 52 364 52 250 l 52 1000 l 266 1000 l 266 346 q 299 231 266 274 q 391 187 332 187 q 483 231 450 187 q 515 346 515 274 l 515 1000 l 729 1000 l 729 364 q 688 166 729 250 q 570 36 646 82 q 391 -11 494 -11 m 676 862 l 673 1000 q 772 1030 743 1000 q 802 1126 802 1061 q 800 1157 802 1137 q 794 1196 798 1177 l 945 1225 q 957 1168 954 1199 q 960 1118 960 1137 q 919 979 960 1038 q 812 888 878 920 q 676 862 747 857 m 135 1067 q 176 1214 135 1156 q 293 1272 218 1272 q 358 1260 332 1272 q 401 1233 384 1249 q 435 1206 419 1218 q 469 1195 450 1195 q 507 1217 494 1195 q 519 1272 519 1240 l 647 1272 q 606 1126 648 1185 q 486 1067 564 1067 q 423 1079 448 1067 q 380 1106 398 1090 q 346 1134 362 1122 q 311 1146 330 1146 q 275 1125 286 1146 q 264 1067 264 1103 l 135 1067 z "},"Ű":{"ha":781,"x_min":52,"x_max":741,"o":"m 391 -11 q 212 36 288 -11 q 94 166 136 82 q 52 364 52 250 l 52 1000 l 266 1000 l 266 346 q 299 231 266 274 q 391 187 332 187 q 483 231 450 187 q 515 346 515 274 l 515 1000 l 729 1000 l 729 364 q 688 166 729 250 q 570 36 646 82 q 391 -11 494 -11 m 303 1060 l 195 1112 l 340 1357 l 477 1278 l 303 1060 m 570 1060 l 463 1112 l 602 1357 l 741 1278 l 570 1060 z "},"Ȗ":{"ha":781,"x_min":52,"x_max":729,"o":"m 391 -11 q 212 36 288 -11 q 94 166 136 82 q 52 364 52 250 l 52 1000 l 266 1000 l 266 346 q 299 231 266 274 q 391 187 332 187 q 483 231 450 187 q 515 346 515 274 l 515 1000 l 729 1000 l 729 364 q 688 166 729 250 q 570 36 646 82 q 391 -11 494 -11 m 389 1284 q 517 1259 458 1284 q 611 1185 576 1234 q 646 1065 646 1136 l 516 1065 q 479 1144 518 1120 q 389 1168 439 1168 q 303 1144 343 1168 q 262 1065 262 1120 l 134 1065 q 170 1185 134 1136 q 263 1259 205 1234 q 389 1284 321 1284 z "},"Ū":{"ha":781,"x_min":52,"x_max":729,"o":"m 391 -11 q 212 36 288 -11 q 94 166 136 82 q 52 364 52 250 l 52 1000 l 266 1000 l 266 346 q 299 231 266 274 q 391 187 332 187 q 483 231 450 187 q 515 346 515 274 l 515 1000 l 729 1000 l 729 364 q 688 166 729 250 q 570 36 646 82 q 391 -11 494 -11 m 123 1098 l 123 1239 l 656 1239 l 656 1098 l 123 1098 z "},"Ṻ":{"ha":781,"x_min":52,"x_max":729,"o":"m 391 -11 q 212 36 288 -11 q 94 166 136 82 q 52 364 52 250 l 52 1000 l 266 1000 l 266 346 q 299 231 266 274 q 391 187 332 187 q 483 231 450 187 q 515 346 515 274 l 515 1000 l 729 1000 l 729 364 q 688 166 729 250 q 570 36 646 82 q 391 -11 494 -11 m 123 1098 l 123 1239 l 656 1239 l 656 1098 l 123 1098 m 557 1290 q 470 1323 505 1290 q 436 1408 435 1356 q 470 1494 435 1459 q 557 1528 505 1528 q 641 1494 608 1528 q 674 1408 674 1459 q 641 1323 674 1356 q 557 1290 608 1290 m 229 1290 q 144 1323 178 1290 q 111 1408 111 1356 q 144 1494 111 1459 q 229 1528 178 1528 q 315 1494 281 1528 q 349 1408 349 1459 q 315 1323 349 1356 q 229 1290 281 1290 z "},"Ų":{"ha":781,"x_min":52,"x_max":729,"o":"m 391 -11 q 212 36 288 -11 q 94 166 136 82 q 52 364 52 250 l 52 1000 l 266 1000 l 266 346 q 299 231 266 274 q 391 187 332 187 q 483 231 450 187 q 515 346 515 274 l 515 1000 l 729 1000 l 729 364 q 688 166 729 250 q 570 36 646 82 q 391 -11 494 -11 m 366 -293 q 258 -255 300 -293 q 216 -155 216 -218 q 255 -54 216 -99 q 361 34 293 -9 l 470 0 q 409 -43 437 -22 q 363 -86 380 -64 q 346 -130 346 -107 q 360 -162 346 -151 q 404 -173 374 -173 q 441 -168 421 -173 q 472 -157 462 -163 l 472 -275 q 420 -288 453 -283 q 366 -293 388 -293 z "},"Ů":{"ha":781,"x_min":52,"x_max":729,"o":"m 391 -11 q 212 36 288 -11 q 94 166 136 82 q 52 364 52 250 l 52 1000 l 266 1000 l 266 346 q 299 231 266 274 q 391 187 332 187 q 483 231 450 187 q 515 346 515 274 l 515 1000 l 729 1000 l 729 364 q 688 166 729 250 q 570 36 646 82 q 391 -11 494 -11 m 391 1044 q 296 1069 338 1044 q 229 1135 254 1093 q 204 1227 204 1176 q 229 1323 204 1281 q 296 1390 254 1365 q 391 1414 338 1414 q 486 1390 444 1414 q 553 1323 528 1365 q 577 1227 577 1281 q 553 1135 577 1176 q 486 1069 528 1093 q 391 1044 444 1044 m 391 1158 q 438 1179 420 1158 q 457 1227 456 1199 q 438 1279 458 1260 q 391 1298 418 1298 q 345 1279 363 1298 q 325 1227 326 1260 q 343 1179 324 1200 q 391 1158 362 1158 z "},"Ũ":{"ha":781,"x_min":52,"x_max":729,"o":"m 391 -11 q 212 36 288 -11 q 94 166 136 82 q 52 364 52 250 l 52 1000 l 266 1000 l 266 346 q 299 231 266 274 q 391 187 332 187 q 483 231 450 187 q 515 346 515 274 l 515 1000 l 729 1000 l 729 364 q 688 166 729 250 q 570 36 646 82 q 391 -11 494 -11 m 135 1067 q 176 1214 135 1156 q 293 1272 218 1272 q 358 1260 332 1272 q 401 1233 384 1249 q 435 1206 419 1218 q 469 1195 450 1195 q 507 1217 494 1195 q 519 1272 519 1240 l 647 1272 q 606 1126 648 1185 q 486 1067 564 1067 q 423 1079 448 1067 q 380 1106 398 1090 q 346 1134 362 1122 q 311 1146 330 1146 q 275 1125 286 1146 q 264 1067 264 1103 l 135 1067 z "},"Ṹ":{"ha":781,"x_min":52,"x_max":729,"o":"m 391 -11 q 212 36 288 -11 q 94 166 136 82 q 52 364 52 250 l 52 1000 l 266 1000 l 266 346 q 299 231 266 274 q 391 187 332 187 q 483 231 450 187 q 515 346 515 274 l 515 1000 l 729 1000 l 729 364 q 688 166 729 250 q 570 36 646 82 q 391 -11 494 -11 m 135 1067 q 176 1214 135 1156 q 293 1272 218 1272 q 358 1260 332 1272 q 401 1233 384 1249 q 435 1206 419 1218 q 469 1195 450 1195 q 507 1217 494 1195 q 519 1272 519 1240 l 647 1272 q 606 1126 648 1185 q 486 1067 564 1067 q 423 1079 448 1067 q 380 1106 398 1090 q 346 1134 362 1122 q 311 1146 330 1146 q 275 1125 286 1146 q 264 1067 264 1103 l 135 1067 m 391 1314 l 302 1403 l 533 1610 l 633 1479 l 391 1314 z "},"V":{"ha":781,"x_min":-3,"x_max":784,"o":"m 282 0 l -3 1000 l 225 1000 l 325 560 l 388 301 l 393 301 l 456 560 l 554 1000 l 784 1000 l 500 0 l 282 0 z "},"W":{"ha":781,"x_min":26,"x_max":757,"o":"m 113 0 q 68 222 88 116 q 37 434 48 329 q 26 652 26 540 l 26 1000 l 205 1000 l 205 652 q 209 517 205 583 q 218 393 212 452 q 232 283 224 334 l 237 283 l 349 631 l 433 631 l 544 283 l 549 283 q 564 393 557 334 q 573 517 570 452 q 577 652 577 583 l 577 1000 l 757 1000 l 757 652 q 745 433 757 538 q 714 222 734 328 q 671 0 695 116 l 499 0 l 393 351 l 388 351 l 281 0 l 113 0 z "},"Ẃ":{"ha":781,"x_min":26,"x_max":757,"o":"m 113 0 q 68 222 88 116 q 37 434 48 329 q 26 652 26 540 l 26 1000 l 205 1000 l 205 652 q 209 517 205 583 q 218 393 212 452 q 232 283 224 334 l 237 283 l 349 631 l 433 631 l 544 283 l 549 283 q 564 393 557 334 q 573 517 570 452 q 577 652 577 583 l 577 1000 l 757 1000 l 757 652 q 745 433 757 538 q 714 222 734 328 q 671 0 695 116 l 499 0 l 393 351 l 388 351 l 281 0 l 113 0 m 391 1048 l 302 1137 l 533 1344 l 633 1213 l 391 1048 z "},"Ŵ":{"ha":781,"x_min":26,"x_max":757,"o":"m 113 0 q 68 222 88 116 q 37 434 48 329 q 26 652 26 540 l 26 1000 l 205 1000 l 205 652 q 209 517 205 583 q 218 393 212 452 q 232 283 224 334 l 237 283 l 349 631 l 433 631 l 544 283 l 549 283 q 564 393 557 334 q 573 517 570 452 q 577 652 577 583 l 577 1000 l 757 1000 l 757 652 q 745 433 757 538 q 714 222 734 328 q 671 0 695 116 l 499 0 l 393 351 l 388 351 l 281 0 l 113 0 m 226 1050 l 130 1149 l 370 1317 l 412 1317 l 651 1149 l 559 1050 l 392 1177 l 389 1177 l 226 1050 z "},"Ẅ":{"ha":781,"x_min":26,"x_max":757,"o":"m 113 0 q 68 222 88 116 q 37 434 48 329 q 26 652 26 540 l 26 1000 l 205 1000 l 205 652 q 209 517 205 583 q 218 393 212 452 q 232 283 224 334 l 237 283 l 349 631 l 433 631 l 544 283 l 549 283 q 564 393 557 334 q 573 517 570 452 q 577 652 577 583 l 577 1000 l 757 1000 l 757 652 q 745 433 757 538 q 714 222 734 328 q 671 0 695 116 l 499 0 l 393 351 l 388 351 l 281 0 l 113 0 m 557 1050 q 470 1084 505 1050 q 436 1168 435 1117 q 470 1254 435 1220 q 557 1289 505 1289 q 641 1254 608 1289 q 674 1168 674 1220 q 641 1084 674 1117 q 557 1050 608 1050 m 229 1050 q 144 1084 178 1050 q 111 1168 111 1117 q 144 1254 111 1220 q 229 1289 178 1289 q 315 1254 281 1289 q 349 1168 349 1220 q 315 1084 349 1117 q 229 1050 281 1050 z "},"Ẁ":{"ha":781,"x_min":26,"x_max":757,"o":"m 113 0 q 68 222 88 116 q 37 434 48 329 q 26 652 26 540 l 26 1000 l 205 1000 l 205 652 q 209 517 205 583 q 218 393 212 452 q 232 283 224 334 l 237 283 l 349 631 l 433 631 l 544 283 l 549 283 q 564 393 557 334 q 573 517 570 452 q 577 652 577 583 l 577 1000 l 757 1000 l 757 652 q 745 433 757 538 q 714 222 734 328 q 671 0 695 116 l 499 0 l 393 351 l 388 351 l 281 0 l 113 0 m 391 1048 l 148 1213 l 248 1344 l 479 1137 l 391 1048 z "},"X":{"ha":781,"x_min":-14,"x_max":795,"o":"m 546 0 l 391 334 l 387 334 l 247 500 l 247 503 l -9 1000 l 233 1000 l 389 644 l 393 644 l 536 501 l 536 498 l 795 0 l 546 0 m -14 0 l 247 498 l 247 501 l 387 644 l 391 644 l 546 1000 l 790 1000 l 536 503 l 536 500 l 393 334 l 389 334 l 233 0 l -14 0 z "},"Y":{"ha":781,"x_min":-19,"x_max":800,"o":"m 283 0 l 283 387 l -19 1000 l 228 1000 l 307 804 l 388 601 l 393 601 l 474 804 l 553 1000 l 800 1000 l 498 387 l 498 0 l 283 0 z "},"Ý":{"ha":781,"x_min":-19,"x_max":800,"o":"m 283 0 l 283 387 l -19 1000 l 228 1000 l 307 804 l 388 601 l 393 601 l 474 804 l 553 1000 l 800 1000 l 498 387 l 498 0 l 283 0 m 391 1048 l 302 1137 l 533 1344 l 633 1213 l 391 1048 z "},"Ŷ":{"ha":781,"x_min":-19,"x_max":800,"o":"m 283 0 l 283 387 l -19 1000 l 228 1000 l 307 804 l 388 601 l 393 601 l 474 804 l 553 1000 l 800 1000 l 498 387 l 498 0 l 283 0 m 226 1050 l 130 1149 l 370 1317 l 412 1317 l 651 1149 l 559 1050 l 392 1177 l 389 1177 l 226 1050 z "},"Ÿ":{"ha":781,"x_min":-19,"x_max":800,"o":"m 283 0 l 283 387 l -19 1000 l 228 1000 l 307 804 l 388 601 l 393 601 l 474 804 l 553 1000 l 800 1000 l 498 387 l 498 0 l 283 0 m 557 1050 q 470 1084 505 1050 q 436 1168 435 1117 q 470 1254 435 1220 q 557 1289 505 1289 q 641 1254 608 1289 q 674 1168 674 1220 q 641 1084 674 1117 q 557 1050 608 1050 m 229 1050 q 144 1084 178 1050 q 111 1168 111 1117 q 144 1254 111 1220 q 229 1289 178 1289 q 315 1254 281 1289 q 349 1168 349 1220 q 315 1084 349 1117 q 229 1050 281 1050 z "},"Ẏ":{"ha":781,"x_min":-19,"x_max":800,"o":"m 283 0 l 283 387 l -19 1000 l 228 1000 l 307 804 l 388 601 l 393 601 l 474 804 l 553 1000 l 800 1000 l 498 387 l 498 0 l 283 0 m 389 1060 q 296 1098 334 1060 q 258 1190 258 1135 q 296 1284 258 1246 q 389 1321 334 1321 q 483 1284 445 1321 q 520 1190 520 1246 q 483 1098 520 1135 q 389 1060 445 1060 z "},"Ỵ":{"ha":781,"x_min":-19,"x_max":800,"o":"m 283 0 l 283 387 l -19 1000 l 228 1000 l 307 804 l 388 601 l 393 601 l 474 804 l 553 1000 l 800 1000 l 498 387 l 498 0 l 283 0 m 389 -337 q 296 -299 334 -337 q 258 -207 258 -262 q 296 -113 258 -151 q 389 -76 334 -76 q 483 -113 445 -76 q 520 -207 520 -151 q 483 -299 520 -262 q 389 -337 445 -337 z "},"Ỳ":{"ha":781,"x_min":-19,"x_max":800,"o":"m 283 0 l 283 387 l -19 1000 l 228 1000 l 307 804 l 388 601 l 393 601 l 474 804 l 553 1000 l 800 1000 l 498 387 l 498 0 l 283 0 m 391 1048 l 148 1213 l 248 1344 l 479 1137 l 391 1048 z "},"Ỷ":{"ha":781,"x_min":-19,"x_max":800,"o":"m 283 0 l 283 387 l -19 1000 l 228 1000 l 307 804 l 388 601 l 393 601 l 474 804 l 553 1000 l 800 1000 l 498 387 l 498 0 l 283 0 m 415 1052 l 339 1126 q 373 1157 358 1140 q 389 1193 389 1173 q 372 1222 389 1212 q 324 1232 356 1232 q 292 1230 313 1232 q 256 1220 271 1227 l 256 1344 q 298 1356 269 1352 q 351 1360 327 1360 q 471 1324 426 1360 q 516 1222 516 1289 q 484 1116 516 1162 q 415 1052 452 1070 z "},"Ȳ":{"ha":781,"x_min":-19,"x_max":800,"o":"m 283 0 l 283 387 l -19 1000 l 228 1000 l 307 804 l 388 601 l 393 601 l 474 804 l 553 1000 l 800 1000 l 498 387 l 498 0 l 283 0 m 123 1098 l 123 1239 l 656 1239 l 656 1098 l 123 1098 z "},"Ỹ":{"ha":781,"x_min":-19,"x_max":800,"o":"m 283 0 l 283 387 l -19 1000 l 228 1000 l 307 804 l 388 601 l 393 601 l 474 804 l 553 1000 l 800 1000 l 498 387 l 498 0 l 283 0 m 135 1067 q 176 1214 135 1156 q 293 1272 218 1272 q 358 1260 332 1272 q 401 1233 384 1249 q 435 1206 419 1218 q 469 1195 450 1195 q 507 1217 494 1195 q 519 1272 519 1240 l 647 1272 q 606 1126 648 1185 q 486 1067 564 1067 q 423 1079 448 1067 q 380 1106 398 1090 q 346 1134 362 1122 q 311 1146 330 1146 q 275 1125 286 1146 q 264 1067 264 1103 l 135 1067 z "},"Z":{"ha":781,"x_min":41,"x_max":743,"o":"m 41 0 l 41 33 l 410 801 l 410 804 l 59 804 l 59 1000 l 733 1000 l 733 966 l 366 199 l 366 196 l 743 196 l 743 0 l 41 0 z "},"Ź":{"ha":781,"x_min":41,"x_max":743,"o":"m 41 0 l 41 33 l 410 801 l 410 804 l 59 804 l 59 1000 l 733 1000 l 733 966 l 366 199 l 366 196 l 743 196 l 743 0 l 41 0 m 391 1048 l 303 1137 l 534 1344 l 634 1213 l 391 1048 z "},"Ž":{"ha":781,"x_min":41,"x_max":743,"o":"m 41 0 l 41 33 l 410 801 l 410 804 l 59 804 l 59 1000 l 733 1000 l 733 966 l 366 199 l 366 196 l 743 196 l 743 0 l 41 0 m 226 1314 l 389 1188 l 391 1188 l 559 1314 l 651 1215 l 412 1047 l 370 1047 l 130 1215 l 226 1314 z "},"Ż":{"ha":781,"x_min":41,"x_max":743,"o":"m 41 0 l 41 33 l 410 801 l 410 804 l 59 804 l 59 1000 l 733 1000 l 733 966 l 366 199 l 366 196 l 743 196 l 743 0 l 41 0 m 390 1060 q 297 1098 335 1060 q 259 1190 259 1135 q 297 1284 259 1246 q 390 1321 335 1321 q 483 1284 446 1321 q 521 1190 521 1246 q 483 1098 521 1135 q 390 1060 446 1060 z "},"Ẓ":{"ha":781,"x_min":41,"x_max":743,"o":"m 41 0 l 41 33 l 410 801 l 410 804 l 59 804 l 59 1000 l 733 1000 l 733 966 l 366 199 l 366 196 l 743 196 l 743 0 l 41 0 m 391 -337 q 298 -299 336 -337 q 260 -207 260 -262 q 298 -113 260 -151 q 391 -76 336 -76 q 485 -113 447 -76 q 522 -207 522 -151 q 485 -299 522 -262 q 391 -337 447 -337 z "},"a":{"ha":781,"x_min":66,"x_max":740,"o":"m 302 -11 q 177 19 231 -11 q 95 100 123 50 q 66 214 66 151 q 99 331 66 279 q 193 413 132 383 q 342 443 255 443 l 517 443 l 517 313 l 384 313 q 327 303 353 313 q 286 274 301 294 q 270 227 270 255 q 281 185 270 203 q 313 157 292 168 q 362 147 334 147 q 424 160 394 147 q 474 198 454 174 q 494 256 494 222 l 494 345 l 482 375 l 482 475 q 476 513 482 496 q 457 542 470 530 q 424 562 445 555 q 374 568 404 568 q 304 561 340 568 q 235 539 268 553 q 176 509 202 526 l 106 673 q 189 710 142 694 q 288 733 236 725 q 387 742 339 742 q 549 708 483 742 q 650 615 616 675 q 685 478 685 555 l 685 256 q 694 201 685 221 q 724 174 704 181 l 740 168 l 666 -11 l 640 -3 q 550 48 585 15 q 507 119 515 81 l 558 85 l 464 85 l 526 100 q 444 23 507 56 q 302 -11 382 -11 z "},"á":{"ha":781,"x_min":66,"x_max":740,"o":"m 302 -11 q 177 19 231 -11 q 95 100 123 50 q 66 214 66 151 q 99 331 66 279 q 193 413 132 383 q 342 443 255 443 l 517 443 l 517 313 l 384 313 q 327 303 353 313 q 286 274 301 294 q 270 227 270 255 q 281 185 270 203 q 313 157 292 168 q 362 147 334 147 q 424 160 394 147 q 474 198 454 174 q 494 256 494 222 l 494 345 l 482 375 l 482 475 q 476 513 482 496 q 457 542 470 530 q 424 562 445 555 q 374 568 404 568 q 304 561 340 568 q 235 539 268 553 q 176 509 202 526 l 106 673 q 189 710 142 694 q 288 733 236 725 q 387 742 339 742 q 549 708 483 742 q 650 615 616 675 q 685 478 685 555 l 685 256 q 694 201 685 221 q 724 174 704 181 l 740 168 l 666 -11 l 640 -3 q 550 48 585 15 q 507 119 515 81 l 558 85 l 464 85 l 526 100 q 444 23 507 56 q 302 -11 382 -11 m 399 784 l 309 861 l 503 1118 l 621 1001 l 399 784 z "},"ă":{"ha":781,"x_min":66,"x_max":740,"o":"m 302 -11 q 177 19 231 -11 q 95 100 123 50 q 66 214 66 151 q 99 331 66 279 q 193 413 132 383 q 342 443 255 443 l 517 443 l 517 313 l 384 313 q 327 303 353 313 q 286 274 301 294 q 270 227 270 255 q 281 185 270 203 q 313 157 292 168 q 362 147 334 147 q 424 160 394 147 q 474 198 454 174 q 494 256 494 222 l 494 345 l 482 375 l 482 475 q 476 513 482 496 q 457 542 470 530 q 424 562 445 555 q 374 568 404 568 q 304 561 340 568 q 235 539 268 553 q 176 509 202 526 l 106 673 q 189 710 142 694 q 288 733 236 725 q 387 742 339 742 q 549 708 483 742 q 650 615 616 675 q 685 478 685 555 l 685 256 q 694 201 685 221 q 724 174 704 181 l 740 168 l 666 -11 l 640 -3 q 550 48 585 15 q 507 119 515 81 l 558 85 l 464 85 l 526 100 q 444 23 507 56 q 302 -11 382 -11 m 398 809 q 268 840 326 809 q 176 923 210 871 q 142 1042 142 976 l 272 1042 q 309 959 273 992 q 398 925 345 925 q 489 959 452 925 q 526 1042 525 992 l 656 1042 q 622 923 656 976 q 529 840 587 871 q 398 809 471 809 z "},"ắ":{"ha":781,"x_min":66,"x_max":740,"o":"m 302 -11 q 177 19 231 -11 q 95 100 123 50 q 66 214 66 151 q 99 331 66 279 q 193 413 132 383 q 342 443 255 443 l 517 443 l 517 313 l 384 313 q 327 303 353 313 q 286 274 301 294 q 270 227 270 255 q 281 185 270 203 q 313 157 292 168 q 362 147 334 147 q 424 160 394 147 q 474 198 454 174 q 494 256 494 222 l 494 345 l 482 375 l 482 475 q 476 513 482 496 q 457 542 470 530 q 424 562 445 555 q 374 568 404 568 q 304 561 340 568 q 235 539 268 553 q 176 509 202 526 l 106 673 q 189 710 142 694 q 288 733 236 725 q 387 742 339 742 q 549 708 483 742 q 650 615 616 675 q 685 478 685 555 l 685 256 q 694 201 685 221 q 724 174 704 181 l 740 168 l 666 -11 l 640 -3 q 550 48 585 15 q 507 119 515 81 l 558 85 l 464 85 l 526 100 q 444 23 507 56 q 302 -11 382 -11 m 381 987 l 307 1084 l 534 1278 l 627 1149 l 381 987 m 399 809 q 265 836 323 809 q 176 912 208 863 q 144 1026 144 961 l 274 1026 q 309 949 274 979 q 399 920 343 920 q 492 949 457 920 q 528 1026 528 979 l 654 1026 q 623 912 654 961 q 533 836 591 863 q 399 809 476 809 z "},"ặ":{"ha":781,"x_min":66,"x_max":740,"o":"m 302 -11 q 177 19 231 -11 q 95 100 123 50 q 66 214 66 151 q 99 331 66 279 q 193 413 132 383 q 342 443 255 443 l 517 443 l 517 313 l 384 313 q 327 303 353 313 q 286 274 301 294 q 270 227 270 255 q 281 185 270 203 q 313 157 292 168 q 362 147 334 147 q 424 160 394 147 q 474 198 454 174 q 494 256 494 222 l 494 345 l 482 375 l 482 475 q 476 513 482 496 q 457 542 470 530 q 424 562 445 555 q 374 568 404 568 q 304 561 340 568 q 235 539 268 553 q 176 509 202 526 l 106 673 q 189 710 142 694 q 288 733 236 725 q 387 742 339 742 q 549 708 483 742 q 650 615 616 675 q 685 478 685 555 l 685 256 q 694 201 685 221 q 724 174 704 181 l 740 168 l 666 -11 l 640 -3 q 550 48 585 15 q 507 119 515 81 l 558 85 l 464 85 l 526 100 q 444 23 507 56 q 302 -11 382 -11 m 385 -337 q 292 -299 330 -337 q 254 -207 254 -262 q 292 -113 254 -151 q 385 -76 330 -76 q 478 -113 440 -76 q 515 -207 515 -151 q 478 -299 515 -262 q 385 -337 440 -337 m 398 809 q 268 840 326 809 q 176 923 210 871 q 142 1042 142 976 l 272 1042 q 309 959 273 992 q 398 925 345 925 q 489 959 452 925 q 526 1042 525 992 l 656 1042 q 622 923 656 976 q 529 840 587 871 q 398 809 471 809 z "},"ằ":{"ha":781,"x_min":66,"x_max":740,"o":"m 302 -11 q 177 19 231 -11 q 95 100 123 50 q 66 214 66 151 q 99 331 66 279 q 193 413 132 383 q 342 443 255 443 l 517 443 l 517 313 l 384 313 q 327 303 353 313 q 286 274 301 294 q 270 227 270 255 q 281 185 270 203 q 313 157 292 168 q 362 147 334 147 q 424 160 394 147 q 474 198 454 174 q 494 256 494 222 l 494 345 l 482 375 l 482 475 q 476 513 482 496 q 457 542 470 530 q 424 562 445 555 q 374 568 404 568 q 304 561 340 568 q 235 539 268 553 q 176 509 202 526 l 106 673 q 189 710 142 694 q 288 733 236 725 q 387 742 339 742 q 549 708 483 742 q 650 615 616 675 q 685 478 685 555 l 685 256 q 694 201 685 221 q 724 174 704 181 l 740 168 l 666 -11 l 640 -3 q 550 48 585 15 q 507 119 515 81 l 558 85 l 464 85 l 526 100 q 444 23 507 56 q 302 -11 382 -11 m 417 987 l 172 1149 l 265 1278 l 492 1084 l 417 987 m 399 809 q 266 836 323 809 q 176 912 208 863 q 144 1026 144 961 l 271 1026 q 307 949 271 979 q 399 920 342 920 q 490 949 456 920 q 525 1026 525 979 l 654 1026 q 623 912 654 961 q 533 836 591 863 q 399 809 476 809 z "},"ẳ":{"ha":781,"x_min":66,"x_max":740,"o":"m 302 -11 q 177 19 231 -11 q 95 100 123 50 q 66 214 66 151 q 99 331 66 279 q 193 413 132 383 q 342 443 255 443 l 517 443 l 517 313 l 384 313 q 327 303 353 313 q 286 274 301 294 q 270 227 270 255 q 281 185 270 203 q 313 157 292 168 q 362 147 334 147 q 424 160 394 147 q 474 198 454 174 q 494 256 494 222 l 494 345 l 482 375 l 482 475 q 476 513 482 496 q 457 542 470 530 q 424 562 445 555 q 374 568 404 568 q 304 561 340 568 q 235 539 268 553 q 176 509 202 526 l 106 673 q 189 710 142 694 q 288 733 236 725 q 387 742 339 742 q 549 708 483 742 q 650 615 616 675 q 685 478 685 555 l 685 256 q 694 201 685 221 q 724 174 704 181 l 740 168 l 666 -11 l 640 -3 q 550 48 585 15 q 507 119 515 81 l 558 85 l 464 85 l 526 100 q 444 23 507 56 q 302 -11 382 -11 m 399 809 q 266 836 323 809 q 176 912 208 863 q 144 1026 144 961 l 271 1026 q 307 949 271 979 q 399 920 342 920 q 490 949 456 920 q 525 1026 525 979 l 654 1026 q 623 912 654 961 q 533 836 591 863 q 399 809 476 809 m 404 968 l 328 1043 q 362 1073 347 1057 q 378 1109 378 1090 q 361 1139 378 1128 q 313 1149 345 1149 q 280 1146 301 1149 q 244 1137 260 1143 l 244 1261 q 287 1272 258 1268 q 340 1276 316 1276 q 460 1241 415 1276 q 505 1139 505 1206 q 473 1033 505 1078 q 404 968 441 987 z "},"ẵ":{"ha":781,"x_min":66,"x_max":740,"o":"m 302 -11 q 177 19 231 -11 q 95 100 123 50 q 66 214 66 151 q 99 331 66 279 q 193 413 132 383 q 342 443 255 443 l 517 443 l 517 313 l 384 313 q 327 303 353 313 q 286 274 301 294 q 270 227 270 255 q 281 185 270 203 q 313 157 292 168 q 362 147 334 147 q 424 160 394 147 q 474 198 454 174 q 494 256 494 222 l 494 345 l 482 375 l 482 475 q 476 513 482 496 q 457 542 470 530 q 424 562 445 555 q 374 568 404 568 q 304 561 340 568 q 235 539 268 553 q 176 509 202 526 l 106 673 q 189 710 142 694 q 288 733 236 725 q 387 742 339 742 q 549 708 483 742 q 650 615 616 675 q 685 478 685 555 l 685 256 q 694 201 685 221 q 724 174 704 181 l 740 168 l 666 -11 l 640 -3 q 550 48 585 15 q 507 119 515 81 l 558 85 l 464 85 l 526 100 q 444 23 507 56 q 302 -11 382 -11 m 144 1071 q 185 1219 144 1161 q 302 1276 227 1276 q 367 1265 341 1276 q 410 1238 392 1253 q 444 1211 429 1222 q 479 1199 460 1199 q 516 1220 504 1199 q 526 1276 528 1242 l 656 1276 q 637 1173 656 1219 q 582 1099 618 1126 q 495 1071 545 1071 q 433 1083 458 1071 q 390 1110 408 1095 q 355 1138 372 1126 q 319 1149 339 1149 q 284 1129 295 1149 q 272 1071 273 1109 l 144 1071 m 399 809 q 266 836 323 809 q 176 912 208 863 q 144 1026 144 961 l 271 1026 q 307 949 271 979 q 399 920 342 920 q 490 949 456 920 q 525 1026 525 979 l 654 1026 q 623 912 654 961 q 533 836 591 863 q 399 809 476 809 z "},"ǎ":{"ha":781,"x_min":66,"x_max":740,"o":"m 302 -11 q 177 19 231 -11 q 95 100 123 50 q 66 214 66 151 q 99 331 66 279 q 193 413 132 383 q 342 443 255 443 l 517 443 l 517 313 l 384 313 q 327 303 353 313 q 286 274 301 294 q 270 227 270 255 q 281 185 270 203 q 313 157 292 168 q 362 147 334 147 q 424 160 394 147 q 474 198 454 174 q 494 256 494 222 l 494 345 l 482 375 l 482 475 q 476 513 482 496 q 457 542 470 530 q 424 562 445 555 q 374 568 404 568 q 304 561 340 568 q 235 539 268 553 q 176 509 202 526 l 106 673 q 189 710 142 694 q 288 733 236 725 q 387 742 339 742 q 549 708 483 742 q 650 615 616 675 q 685 478 685 555 l 685 256 q 694 201 685 221 q 724 174 704 181 l 740 168 l 666 -11 l 640 -3 q 550 48 585 15 q 507 119 515 81 l 558 85 l 464 85 l 526 100 q 444 23 507 56 q 302 -11 382 -11 m 219 1088 l 396 932 l 401 932 l 576 1088 l 659 988 l 418 781 l 376 781 l 139 988 l 219 1088 z "},"â":{"ha":781,"x_min":66,"x_max":740,"o":"m 302 -11 q 177 19 231 -11 q 95 100 123 50 q 66 214 66 151 q 99 331 66 279 q 193 413 132 383 q 342 443 255 443 l 517 443 l 517 313 l 384 313 q 327 303 353 313 q 286 274 301 294 q 270 227 270 255 q 281 185 270 203 q 313 157 292 168 q 362 147 334 147 q 424 160 394 147 q 474 198 454 174 q 494 256 494 222 l 494 345 l 482 375 l 482 475 q 476 513 482 496 q 457 542 470 530 q 424 562 445 555 q 374 568 404 568 q 304 561 340 568 q 235 539 268 553 q 176 509 202 526 l 106 673 q 189 710 142 694 q 288 733 236 725 q 387 742 339 742 q 549 708 483 742 q 650 615 616 675 q 685 478 685 555 l 685 256 q 694 201 685 221 q 724 174 704 181 l 740 168 l 666 -11 l 640 -3 q 550 48 585 15 q 507 119 515 81 l 558 85 l 464 85 l 526 100 q 444 23 507 56 q 302 -11 382 -11 m 220 777 l 140 876 l 378 1083 l 419 1083 l 659 876 l 576 777 l 402 933 l 397 933 l 220 777 z "},"ấ":{"ha":781,"x_min":66,"x_max":847,"o":"m 302 -11 q 177 19 231 -11 q 95 100 123 50 q 66 214 66 151 q 99 331 66 279 q 193 413 132 383 q 342 443 255 443 l 517 443 l 517 313 l 384 313 q 327 303 353 313 q 286 274 301 294 q 270 227 270 255 q 281 185 270 203 q 313 157 292 168 q 362 147 334 147 q 424 160 394 147 q 474 198 454 174 q 494 256 494 222 l 494 345 l 482 375 l 482 475 q 476 513 482 496 q 457 542 470 530 q 424 562 445 555 q 374 568 404 568 q 304 561 340 568 q 235 539 268 553 q 176 509 202 526 l 106 673 q 189 710 142 694 q 288 733 236 725 q 387 742 339 742 q 549 708 483 742 q 650 615 616 675 q 685 478 685 555 l 685 256 q 694 201 685 221 q 724 174 704 181 l 740 168 l 666 -11 l 640 -3 q 550 48 585 15 q 507 119 515 81 l 558 85 l 464 85 l 526 100 q 444 23 507 56 q 302 -11 382 -11 m 623 984 l 530 1050 l 747 1276 l 846 1142 l 623 984 m 233 789 l 137 886 l 376 1053 l 418 1053 l 658 886 l 566 789 l 399 915 l 395 915 l 233 789 z "},"ậ":{"ha":781,"x_min":66,"x_max":740,"o":"m 302 -11 q 177 19 231 -11 q 95 100 123 50 q 66 214 66 151 q 99 331 66 279 q 193 413 132 383 q 342 443 255 443 l 517 443 l 517 313 l 384 313 q 327 303 353 313 q 286 274 301 294 q 270 227 270 255 q 281 185 270 203 q 313 157 292 168 q 362 147 334 147 q 424 160 394 147 q 474 198 454 174 q 494 256 494 222 l 494 345 l 482 375 l 482 475 q 476 513 482 496 q 457 542 470 530 q 424 562 445 555 q 374 568 404 568 q 304 561 340 568 q 235 539 268 553 q 176 509 202 526 l 106 673 q 189 710 142 694 q 288 733 236 725 q 387 742 339 742 q 549 708 483 742 q 650 615 616 675 q 685 478 685 555 l 685 256 q 694 201 685 221 q 724 174 704 181 l 740 168 l 666 -11 l 640 -3 q 550 48 585 15 q 507 119 515 81 l 558 85 l 464 85 l 526 100 q 444 23 507 56 q 302 -11 382 -11 m 385 -337 q 292 -299 330 -337 q 254 -207 254 -262 q 292 -113 254 -151 q 385 -76 330 -76 q 478 -113 440 -76 q 515 -207 515 -151 q 478 -299 515 -262 q 385 -337 440 -337 m 220 777 l 140 876 l 378 1083 l 419 1083 l 659 876 l 576 777 l 402 933 l 397 933 l 220 777 z "},"ầ":{"ha":781,"x_min":-48,"x_max":740,"o":"m 302 -11 q 177 19 231 -11 q 95 100 123 50 q 66 214 66 151 q 99 331 66 279 q 193 413 132 383 q 342 443 255 443 l 517 443 l 517 313 l 384 313 q 327 303 353 313 q 286 274 301 294 q 270 227 270 255 q 281 185 270 203 q 313 157 292 168 q 362 147 334 147 q 424 160 394 147 q 474 198 454 174 q 494 256 494 222 l 494 345 l 482 375 l 482 475 q 476 513 482 496 q 457 542 470 530 q 424 562 445 555 q 374 568 404 568 q 304 561 340 568 q 235 539 268 553 q 176 509 202 526 l 106 673 q 189 710 142 694 q 288 733 236 725 q 387 742 339 742 q 549 708 483 742 q 650 615 616 675 q 685 478 685 555 l 685 256 q 694 201 685 221 q 724 174 704 181 l 740 168 l 666 -11 l 640 -3 q 550 48 585 15 q 507 119 515 81 l 558 85 l 464 85 l 526 100 q 444 23 507 56 q 302 -11 382 -11 m 174 984 l -48 1142 l 52 1276 l 268 1050 l 174 984 m 566 789 l 403 915 l 399 915 l 233 789 l 140 886 l 380 1053 l 422 1053 l 661 886 l 566 789 z "},"ẩ":{"ha":781,"x_min":66,"x_max":740,"o":"m 302 -11 q 177 19 231 -11 q 95 100 123 50 q 66 214 66 151 q 99 331 66 279 q 193 413 132 383 q 342 443 255 443 l 517 443 l 517 313 l 384 313 q 327 303 353 313 q 286 274 301 294 q 270 227 270 255 q 281 185 270 203 q 313 157 292 168 q 362 147 334 147 q 424 160 394 147 q 474 198 454 174 q 494 256 494 222 l 494 345 l 482 375 l 482 475 q 476 513 482 496 q 457 542 470 530 q 424 562 445 555 q 374 568 404 568 q 304 561 340 568 q 235 539 268 553 q 176 509 202 526 l 106 673 q 189 710 142 694 q 288 733 236 725 q 387 742 339 742 q 549 708 483 742 q 650 615 616 675 q 685 478 685 555 l 685 256 q 694 201 685 221 q 724 174 704 181 l 740 168 l 666 -11 l 640 -3 q 550 48 585 15 q 507 119 515 81 l 558 85 l 464 85 l 526 100 q 444 23 507 56 q 302 -11 382 -11 m 608 985 l 534 1042 q 567 1074 554 1058 q 579 1107 579 1090 q 563 1138 579 1127 q 513 1149 547 1149 q 481 1146 498 1149 q 446 1137 465 1143 l 446 1262 q 490 1273 460 1270 q 543 1276 519 1276 q 661 1242 616 1276 q 706 1137 706 1209 q 690 1072 706 1101 q 651 1020 674 1042 q 608 985 629 998 m 235 789 l 139 886 l 379 1053 l 420 1053 l 660 886 l 568 789 l 401 915 l 397 915 l 235 789 z "},"ẫ":{"ha":781,"x_min":66,"x_max":740,"o":"m 302 -11 q 177 19 231 -11 q 95 100 123 50 q 66 214 66 151 q 99 331 66 279 q 193 413 132 383 q 342 443 255 443 l 517 443 l 517 313 l 384 313 q 327 303 353 313 q 286 274 301 294 q 270 227 270 255 q 281 185 270 203 q 313 157 292 168 q 362 147 334 147 q 424 160 394 147 q 474 198 454 174 q 494 256 494 222 l 494 345 l 482 375 l 482 475 q 476 513 482 496 q 457 542 470 530 q 424 562 445 555 q 374 568 404 568 q 304 561 340 568 q 235 539 268 553 q 176 509 202 526 l 106 673 q 189 710 142 694 q 288 733 236 725 q 387 742 339 742 q 549 708 483 742 q 650 615 616 675 q 685 478 685 555 l 685 256 q 694 201 685 221 q 724 174 704 181 l 740 168 l 666 -11 l 640 -3 q 550 48 585 15 q 507 119 515 81 l 558 85 l 464 85 l 526 100 q 444 23 507 56 q 302 -11 382 -11 m 144 1071 q 184 1219 142 1162 q 302 1276 227 1276 q 366 1265 340 1276 q 408 1238 391 1253 q 442 1211 426 1222 q 478 1199 458 1199 q 513 1221 501 1199 q 526 1276 525 1242 l 656 1276 q 641 1173 656 1219 q 592 1099 625 1126 q 510 1071 560 1071 q 447 1083 472 1071 q 404 1110 422 1095 q 371 1138 387 1126 q 337 1149 355 1149 q 291 1130 309 1149 q 271 1071 272 1110 l 144 1071 m 234 789 l 138 886 l 378 1053 l 420 1053 l 659 886 l 567 789 l 399 915 l 397 915 l 234 789 z "},"ȁ":{"ha":781,"x_min":66,"x_max":740,"o":"m 302 -11 q 177 19 231 -11 q 95 100 123 50 q 66 214 66 151 q 99 331 66 279 q 193 413 132 383 q 342 443 255 443 l 517 443 l 517 313 l 384 313 q 327 303 353 313 q 286 274 301 294 q 270 227 270 255 q 281 185 270 203 q 313 157 292 168 q 362 147 334 147 q 424 160 394 147 q 474 198 454 174 q 494 256 494 222 l 494 345 l 482 375 l 482 475 q 476 513 482 496 q 457 542 470 530 q 424 562 445 555 q 374 568 404 568 q 304 561 340 568 q 235 539 268 553 q 176 509 202 526 l 106 673 q 189 710 142 694 q 288 733 236 725 q 387 742 339 742 q 549 708 483 742 q 650 615 616 675 q 685 478 685 555 l 685 256 q 694 201 685 221 q 724 174 704 181 l 740 168 l 666 -11 l 640 -3 q 550 48 585 15 q 507 119 515 81 l 558 85 l 464 85 l 526 100 q 444 23 507 56 q 302 -11 382 -11 m 502 794 l 350 1029 l 495 1097 l 614 820 l 502 794 m 254 794 l 102 1029 l 244 1097 l 366 820 l 254 794 z "},"ä":{"ha":781,"x_min":66,"x_max":740,"o":"m 302 -11 q 177 19 231 -11 q 95 100 123 50 q 66 214 66 151 q 99 331 66 279 q 193 413 132 383 q 342 443 255 443 l 517 443 l 517 313 l 384 313 q 327 303 353 313 q 286 274 301 294 q 270 227 270 255 q 281 185 270 203 q 313 157 292 168 q 362 147 334 147 q 424 160 394 147 q 474 198 454 174 q 494 256 494 222 l 494 345 l 482 375 l 482 475 q 476 513 482 496 q 457 542 470 530 q 424 562 445 555 q 374 568 404 568 q 304 561 340 568 q 235 539 268 553 q 176 509 202 526 l 106 673 q 189 710 142 694 q 288 733 236 725 q 387 742 339 742 q 549 708 483 742 q 650 615 616 675 q 685 478 685 555 l 685 256 q 694 201 685 221 q 724 174 704 181 l 740 168 l 666 -11 l 640 -3 q 550 48 585 15 q 507 119 515 81 l 558 85 l 464 85 l 526 100 q 444 23 507 56 q 302 -11 382 -11 m 564 824 q 480 859 514 824 q 446 943 446 893 q 480 1027 446 993 q 564 1061 514 1061 q 648 1027 614 1061 q 682 943 682 993 q 648 859 682 893 q 564 824 614 824 m 235 824 q 151 859 186 824 q 117 943 117 893 q 151 1027 117 993 q 235 1061 186 1061 q 319 1027 286 1061 q 353 943 353 993 q 319 859 353 893 q 235 824 286 824 z "},"ȧ":{"ha":781,"x_min":66,"x_max":740,"o":"m 302 -11 q 177 19 231 -11 q 95 100 123 50 q 66 214 66 151 q 99 331 66 279 q 193 413 132 383 q 342 443 255 443 l 517 443 l 517 313 l 384 313 q 327 303 353 313 q 286 274 301 294 q 270 227 270 255 q 281 185 270 203 q 313 157 292 168 q 362 147 334 147 q 424 160 394 147 q 474 198 454 174 q 494 256 494 222 l 494 345 l 482 375 l 482 475 q 476 513 482 496 q 457 542 470 530 q 424 562 445 555 q 374 568 404 568 q 304 561 340 568 q 235 539 268 553 q 176 509 202 526 l 106 673 q 189 710 142 694 q 288 733 236 725 q 387 742 339 742 q 549 708 483 742 q 650 615 616 675 q 685 478 685 555 l 685 256 q 694 201 685 221 q 724 174 704 181 l 740 168 l 666 -11 l 640 -3 q 550 48 585 15 q 507 119 515 81 l 558 85 l 464 85 l 526 100 q 444 23 507 56 q 302 -11 382 -11 m 399 813 q 307 851 345 813 q 269 943 269 888 q 307 1037 269 1000 q 399 1074 345 1074 q 493 1037 455 1074 q 530 943 530 1000 q 493 851 530 888 q 399 813 455 813 z "},"ạ":{"ha":781,"x_min":66,"x_max":740,"o":"m 302 -11 q 177 19 231 -11 q 95 100 123 50 q 66 214 66 151 q 99 331 66 279 q 193 413 132 383 q 342 443 255 443 l 517 443 l 517 313 l 384 313 q 327 303 353 313 q 286 274 301 294 q 270 227 270 255 q 281 185 270 203 q 313 157 292 168 q 362 147 334 147 q 424 160 394 147 q 474 198 454 174 q 494 256 494 222 l 494 345 l 482 375 l 482 475 q 476 513 482 496 q 457 542 470 530 q 424 562 445 555 q 374 568 404 568 q 304 561 340 568 q 235 539 268 553 q 176 509 202 526 l 106 673 q 189 710 142 694 q 288 733 236 725 q 387 742 339 742 q 549 708 483 742 q 650 615 616 675 q 685 478 685 555 l 685 256 q 694 201 685 221 q 724 174 704 181 l 740 168 l 666 -11 l 640 -3 q 550 48 585 15 q 507 119 515 81 l 558 85 l 464 85 l 526 100 q 444 23 507 56 q 302 -11 382 -11 m 385 -337 q 292 -299 330 -337 q 254 -207 254 -262 q 292 -113 254 -151 q 385 -76 330 -76 q 478 -113 440 -76 q 515 -207 515 -151 q 478 -299 515 -262 q 385 -337 440 -337 z "},"à":{"ha":781,"x_min":66,"x_max":740,"o":"m 302 -11 q 177 19 231 -11 q 95 100 123 50 q 66 214 66 151 q 99 331 66 279 q 193 413 132 383 q 342 443 255 443 l 517 443 l 517 313 l 384 313 q 327 303 353 313 q 286 274 301 294 q 270 227 270 255 q 281 185 270 203 q 313 157 292 168 q 362 147 334 147 q 424 160 394 147 q 474 198 454 174 q 494 256 494 222 l 494 345 l 482 375 l 482 475 q 476 513 482 496 q 457 542 470 530 q 424 562 445 555 q 374 568 404 568 q 304 561 340 568 q 235 539 268 553 q 176 509 202 526 l 106 673 q 189 710 142 694 q 288 733 236 725 q 387 742 339 742 q 549 708 483 742 q 650 615 616 675 q 685 478 685 555 l 685 256 q 694 201 685 221 q 724 174 704 181 l 740 168 l 666 -11 l 640 -3 q 550 48 585 15 q 507 119 515 81 l 558 85 l 464 85 l 526 100 q 444 23 507 56 q 302 -11 382 -11 m 399 784 l 177 1001 l 295 1118 l 489 861 l 399 784 z "},"ả":{"ha":781,"x_min":66,"x_max":740,"o":"m 302 -11 q 177 19 231 -11 q 95 100 123 50 q 66 214 66 151 q 99 331 66 279 q 193 413 132 383 q 342 443 255 443 l 517 443 l 517 313 l 384 313 q 327 303 353 313 q 286 274 301 294 q 270 227 270 255 q 281 185 270 203 q 313 157 292 168 q 362 147 334 147 q 424 160 394 147 q 474 198 454 174 q 494 256 494 222 l 494 345 l 482 375 l 482 475 q 476 513 482 496 q 457 542 470 530 q 424 562 445 555 q 374 568 404 568 q 304 561 340 568 q 235 539 268 553 q 176 509 202 526 l 106 673 q 189 710 142 694 q 288 733 236 725 q 387 742 339 742 q 549 708 483 742 q 650 615 616 675 q 685 478 685 555 l 685 256 q 694 201 685 221 q 724 174 704 181 l 740 168 l 666 -11 l 640 -3 q 550 48 585 15 q 507 119 515 81 l 558 85 l 464 85 l 526 100 q 444 23 507 56 q 302 -11 382 -11 m 423 782 l 347 857 q 381 887 366 870 q 397 923 397 903 q 380 952 397 942 q 332 962 364 962 q 300 960 321 962 q 264 950 279 957 l 264 1074 q 306 1086 277 1082 q 359 1090 335 1090 q 479 1055 434 1090 q 524 952 524 1019 q 492 846 524 892 q 423 782 460 800 z "},"ȃ":{"ha":781,"x_min":66,"x_max":740,"o":"m 302 -11 q 177 19 231 -11 q 95 100 123 50 q 66 214 66 151 q 99 331 66 279 q 193 413 132 383 q 342 443 255 443 l 517 443 l 517 313 l 384 313 q 327 303 353 313 q 286 274 301 294 q 270 227 270 255 q 281 185 270 203 q 313 157 292 168 q 362 147 334 147 q 424 160 394 147 q 474 198 454 174 q 494 256 494 222 l 494 345 l 482 375 l 482 475 q 476 513 482 496 q 457 542 470 530 q 424 562 445 555 q 374 568 404 568 q 304 561 340 568 q 235 539 268 553 q 176 509 202 526 l 106 673 q 189 710 142 694 q 288 733 236 725 q 387 742 339 742 q 549 708 483 742 q 650 615 616 675 q 685 478 685 555 l 685 256 q 694 201 685 221 q 724 174 704 181 l 740 168 l 666 -11 l 640 -3 q 550 48 585 15 q 507 119 515 81 l 558 85 l 464 85 l 526 100 q 444 23 507 56 q 302 -11 382 -11 m 398 1046 q 529 1016 471 1046 q 622 932 587 985 q 656 814 656 880 l 526 814 q 488 897 525 863 q 398 930 452 930 q 308 897 345 930 q 272 814 272 863 l 142 814 q 176 932 142 880 q 268 1016 210 985 q 398 1046 326 1046 z "},"ā":{"ha":781,"x_min":66,"x_max":740,"o":"m 302 -11 q 177 19 231 -11 q 95 100 123 50 q 66 214 66 151 q 99 331 66 279 q 193 413 132 383 q 342 443 255 443 l 517 443 l 517 313 l 384 313 q 327 303 353 313 q 286 274 301 294 q 270 227 270 255 q 281 185 270 203 q 313 157 292 168 q 362 147 334 147 q 424 160 394 147 q 474 198 454 174 q 494 256 494 222 l 494 345 l 482 375 l 482 475 q 476 513 482 496 q 457 542 470 530 q 424 562 445 555 q 374 568 404 568 q 304 561 340 568 q 235 539 268 553 q 176 509 202 526 l 106 673 q 189 710 142 694 q 288 733 236 725 q 387 742 339 742 q 549 708 483 742 q 650 615 616 675 q 685 478 685 555 l 685 256 q 694 201 685 221 q 724 174 704 181 l 740 168 l 666 -11 l 640 -3 q 550 48 585 15 q 507 119 515 81 l 558 85 l 464 85 l 526 100 q 444 23 507 56 q 302 -11 382 -11 m 123 849 l 123 979 l 675 979 l 675 849 l 123 849 z "},"ą":{"ha":781,"x_min":66,"x_max":740,"o":"m 637 -302 q 527 -263 571 -302 q 483 -163 483 -224 q 503 -80 483 -118 q 545 -12 522 -41 q 578 34 568 17 l 666 -11 q 630 -72 642 -42 q 618 -125 618 -101 q 635 -165 618 -155 q 672 -176 653 -176 q 707 -172 689 -176 q 737 -161 725 -168 l 737 -285 q 689 -298 719 -294 q 637 -302 659 -302 m 302 -11 q 177 19 231 -11 q 95 100 123 50 q 66 214 66 151 q 99 331 66 279 q 193 413 132 383 q 342 443 255 443 l 517 443 l 517 313 l 384 313 q 327 303 353 313 q 286 274 301 294 q 270 227 270 255 q 281 185 270 203 q 313 157 292 168 q 362 147 334 147 q 424 160 394 147 q 474 198 454 174 q 494 256 494 222 l 494 345 l 482 375 l 482 475 q 476 513 482 496 q 457 542 470 530 q 424 562 445 555 q 374 568 404 568 q 304 561 340 568 q 235 539 268 553 q 176 509 202 526 l 106 673 q 189 710 142 694 q 288 733 236 725 q 387 742 339 742 q 549 708 483 742 q 650 615 616 675 q 685 478 685 555 l 685 256 q 694 201 685 221 q 724 174 704 181 l 740 168 l 666 -11 l 640 -3 q 550 48 585 15 q 507 119 515 81 l 558 85 l 464 85 l 526 100 q 444 23 507 56 q 302 -11 382 -11 z "},"å":{"ha":781,"x_min":66,"x_max":740,"o":"m 302 -11 q 177 19 231 -11 q 95 100 123 50 q 66 214 66 151 q 99 331 66 279 q 193 413 132 383 q 342 443 255 443 l 517 443 l 517 313 l 384 313 q 327 303 353 313 q 286 274 301 294 q 270 227 270 255 q 281 185 270 203 q 313 157 292 168 q 362 147 334 147 q 424 160 394 147 q 474 198 454 174 q 494 256 494 222 l 494 345 l 482 375 l 482 475 q 476 513 482 496 q 457 542 470 530 q 424 562 445 555 q 374 568 404 568 q 304 561 340 568 q 235 539 268 553 q 176 509 202 526 l 106 673 q 189 710 142 694 q 288 733 236 725 q 387 742 339 742 q 549 708 483 742 q 650 615 616 675 q 685 478 685 555 l 685 256 q 694 201 685 221 q 724 174 704 181 l 740 168 l 666 -11 l 640 -3 q 550 48 585 15 q 507 119 515 81 l 558 85 l 464 85 l 526 100 q 444 23 507 56 q 302 -11 382 -11 m 399 818 q 278 864 328 818 q 229 978 229 910 q 278 1092 229 1046 q 399 1137 328 1137 q 521 1092 473 1137 q 570 978 570 1046 q 521 864 570 910 q 399 818 473 818 m 399 913 q 445 932 427 913 q 463 979 463 951 q 446 1024 463 1006 q 399 1042 429 1042 q 354 1025 373 1042 q 336 978 336 1007 q 354 932 336 951 q 399 913 373 913 z "},"ǻ":{"ha":781,"x_min":66,"x_max":740,"o":"m 399 818 q 278 864 327 818 q 229 978 229 910 q 278 1092 229 1046 q 399 1137 327 1137 q 520 1092 472 1137 q 569 978 569 1046 q 521 864 569 910 q 399 818 473 818 m 399 913 q 445 932 427 913 q 463 979 463 951 q 446 1024 463 1006 q 399 1042 428 1042 q 354 1025 373 1042 q 335 978 335 1007 q 354 932 335 951 q 399 913 373 913 m 443 1172 l 355 1261 l 585 1468 l 686 1337 l 443 1172 m 302 -11 q 177 19 231 -11 q 95 100 123 50 q 66 214 66 151 q 99 331 66 279 q 193 413 132 383 q 342 443 255 443 l 517 443 l 517 313 l 384 313 q 327 303 353 313 q 286 274 301 294 q 270 227 270 255 q 281 185 270 203 q 313 157 292 168 q 362 147 334 147 q 424 160 394 147 q 474 198 454 174 q 494 256 494 222 l 494 345 l 482 375 l 482 475 q 476 513 482 496 q 457 542 470 530 q 424 562 445 555 q 374 568 404 568 q 304 561 340 568 q 235 539 268 553 q 176 509 202 526 l 106 673 q 189 710 142 694 q 288 733 236 725 q 387 742 339 742 q 549 708 483 742 q 650 615 616 675 q 685 478 685 555 l 685 256 q 694 201 685 221 q 724 174 704 181 l 740 168 l 666 -11 l 640 -3 q 550 48 585 15 q 507 119 515 81 l 558 85 l 464 85 l 526 100 q 444 23 507 56 q 302 -11 382 -11 z "},"ã":{"ha":781,"x_min":66,"x_max":740,"o":"m 302 -11 q 177 19 231 -11 q 95 100 123 50 q 66 214 66 151 q 99 331 66 279 q 193 413 132 383 q 342 443 255 443 l 517 443 l 517 313 l 384 313 q 327 303 353 313 q 286 274 301 294 q 270 227 270 255 q 281 185 270 203 q 313 157 292 168 q 362 147 334 147 q 424 160 394 147 q 474 198 454 174 q 494 256 494 222 l 494 345 l 482 375 l 482 475 q 476 513 482 496 q 457 542 470 530 q 424 562 445 555 q 374 568 404 568 q 304 561 340 568 q 235 539 268 553 q 176 509 202 526 l 106 673 q 189 710 142 694 q 288 733 236 725 q 387 742 339 742 q 549 708 483 742 q 650 615 616 675 q 685 478 685 555 l 685 256 q 694 201 685 221 q 724 174 704 181 l 740 168 l 666 -11 l 640 -3 q 550 48 585 15 q 507 119 515 81 l 558 85 l 464 85 l 526 100 q 444 23 507 56 q 302 -11 382 -11 m 134 814 q 179 973 134 912 q 300 1034 224 1034 q 363 1020 338 1034 q 408 988 389 1006 q 441 957 426 970 q 476 943 457 943 q 513 970 502 943 q 525 1034 524 997 l 659 1034 q 614 876 660 937 q 492 814 568 814 q 430 828 455 814 q 386 861 404 842 q 352 893 368 879 q 315 907 335 907 q 280 881 292 907 q 268 814 269 855 l 134 814 z "},"æ":{"ha":781,"x_min":18,"x_max":762,"o":"m 211 -11 q 107 20 150 -11 q 41 102 64 50 q 18 215 18 153 q 80 376 18 319 q 237 433 142 433 l 329 433 l 329 303 l 284 303 q 216 280 243 303 q 189 219 189 258 q 205 169 189 189 q 241 149 220 149 q 289 184 272 149 q 306 276 306 220 l 306 461 q 297 527 306 502 q 272 563 289 551 q 233 574 256 574 q 165 559 201 574 q 109 527 130 544 l 51 686 q 135 725 84 709 q 245 741 186 741 q 367 707 321 741 q 432 610 412 673 l 376 610 q 437 704 386 667 q 553 741 489 741 q 664 701 617 741 q 736 588 711 661 q 762 414 762 514 q 760 351 762 385 q 755 303 758 318 l 439 303 l 431 433 l 602 433 q 588 535 602 496 q 541 574 574 574 q 495 551 515 574 q 463 487 475 528 q 452 388 452 445 q 469 266 452 318 q 517 184 486 213 q 587 155 547 155 q 638 166 609 155 q 694 205 667 178 l 752 45 q 713 19 740 32 q 651 -3 686 5 q 583 -11 616 -11 q 443 35 506 -11 q 353 153 380 80 l 405 153 q 375 70 401 107 q 306 11 349 33 q 211 -11 263 -11 z "},"ǽ":{"ha":781,"x_min":18,"x_max":762,"o":"m 211 -11 q 107 20 150 -11 q 41 102 64 50 q 18 215 18 153 q 80 376 18 319 q 237 433 142 433 l 329 433 l 329 303 l 284 303 q 216 280 243 303 q 189 219 189 258 q 205 169 189 189 q 241 149 220 149 q 289 184 272 149 q 306 276 306 220 l 306 461 q 297 527 306 502 q 272 563 289 551 q 233 574 256 574 q 165 559 201 574 q 109 527 130 544 l 51 686 q 135 725 84 709 q 245 741 186 741 q 367 707 321 741 q 432 610 412 673 l 376 610 q 437 704 386 667 q 553 741 489 741 q 664 701 617 741 q 736 588 711 661 q 762 414 762 514 q 760 351 762 385 q 755 303 758 318 l 439 303 l 431 433 l 602 433 q 588 535 602 496 q 541 574 574 574 q 495 551 515 574 q 463 487 475 528 q 452 388 452 445 q 469 266 452 318 q 517 184 486 213 q 587 155 547 155 q 638 166 609 155 q 694 205 667 178 l 752 45 q 713 19 740 32 q 651 -3 686 5 q 583 -11 616 -11 q 443 35 506 -11 q 353 153 380 80 l 405 153 q 375 70 401 107 q 306 11 349 33 q 211 -11 263 -11 m 397 783 l 307 859 l 501 1116 l 619 1000 l 397 783 z "},"b":{"ha":781,"x_min":74,"x_max":734,"o":"m 74 0 l 74 1044 l 286 1044 l 286 667 l 302 667 l 272 553 l 272 156 l 302 82 l 275 82 l 275 0 l 74 0 m 465 -11 q 318 36 381 -11 q 221 166 256 82 q 186 365 186 251 q 220 563 186 479 q 316 694 254 648 q 460 741 378 741 q 605 694 543 741 q 701 563 667 648 q 734 365 734 479 q 701 166 734 250 q 608 36 668 82 q 465 -11 547 -11 m 408 168 q 473 193 445 168 q 516 261 500 217 q 531 365 531 306 q 515 468 531 425 q 470 536 499 512 q 403 561 441 561 q 337 537 365 561 q 293 469 309 513 q 277 365 277 425 q 294 262 277 306 q 339 193 310 218 q 408 168 368 168 z "},"c":{"ha":781,"x_min":80,"x_max":693,"o":"m 463 -8 q 263 39 349 -8 q 128 172 176 87 q 80 368 80 256 q 127 562 80 478 q 258 693 174 646 q 453 741 342 741 q 580 720 513 741 q 692 667 647 699 l 614 496 q 544 541 585 524 q 467 558 503 558 q 372 534 413 558 q 308 467 331 510 q 284 368 284 424 q 307 267 284 311 q 370 199 330 224 q 463 175 410 175 q 548 191 505 175 q 616 231 591 207 l 693 58 q 582 10 646 28 q 463 -8 519 -8 z "},"ć":{"ha":781,"x_min":80,"x_max":693,"o":"m 463 -8 q 263 39 349 -8 q 128 172 176 87 q 80 368 80 256 q 127 562 80 478 q 258 693 174 646 q 453 741 342 741 q 580 720 513 741 q 692 667 647 699 l 614 496 q 544 541 585 524 q 467 558 503 558 q 372 534 413 558 q 308 467 331 510 q 284 368 284 424 q 307 267 284 311 q 370 199 330 224 q 463 175 410 175 q 548 191 505 175 q 616 231 591 207 l 693 58 q 582 10 646 28 q 463 -8 519 -8 m 454 784 l 365 861 l 559 1118 l 677 1001 l 454 784 z "},"č":{"ha":781,"x_min":80,"x_max":714,"o":"m 463 -8 q 263 39 349 -8 q 128 172 176 87 q 80 368 80 256 q 127 562 80 478 q 258 693 174 646 q 453 741 342 741 q 580 720 513 741 q 692 667 647 699 l 614 496 q 544 541 585 524 q 467 558 503 558 q 372 534 413 558 q 308 467 331 510 q 284 368 284 424 q 307 267 284 311 q 370 199 330 224 q 463 175 410 175 q 548 191 505 175 q 616 231 591 207 l 693 58 q 582 10 646 28 q 463 -8 519 -8 m 275 1088 l 451 932 l 456 932 l 631 1088 l 714 988 l 474 781 l 432 781 l 194 988 l 275 1088 z "},"ç":{"ha":781,"x_min":80,"x_max":693,"o":"m 463 -8 q 263 39 349 -8 q 128 172 176 87 q 80 368 80 256 q 127 562 80 478 q 258 693 174 646 q 453 741 342 741 q 580 720 513 741 q 692 667 647 699 l 614 496 q 544 541 585 524 q 467 558 503 558 q 372 534 413 558 q 308 467 331 510 q 284 368 284 424 q 307 267 284 311 q 370 199 330 224 q 463 175 410 175 q 548 191 505 175 q 616 231 591 207 l 693 58 q 582 10 646 28 q 463 -8 519 -8 m 333 -347 l 333 -243 q 435 -229 404 -245 q 467 -187 467 -213 q 441 -153 467 -168 q 368 -136 415 -139 l 412 0 l 503 0 l 463 -111 l 456 -64 q 554 -108 517 -75 q 591 -197 591 -142 q 530 -307 591 -264 q 333 -347 468 -349 z "},"ḉ":{"ha":781,"x_min":80,"x_max":693,"o":"m 463 -8 q 263 39 349 -8 q 128 172 176 87 q 80 368 80 256 q 127 562 80 478 q 258 693 174 646 q 453 741 342 741 q 580 720 513 741 q 692 667 647 699 l 614 496 q 544 541 585 524 q 467 558 503 558 q 372 534 413 558 q 308 467 331 510 q 284 368 284 424 q 307 267 284 311 q 370 199 330 224 q 463 175 410 175 q 548 191 505 175 q 616 231 591 207 l 693 58 q 582 10 646 28 q 463 -8 519 -8 m 333 -347 l 333 -243 q 435 -229 404 -245 q 467 -187 467 -213 q 441 -153 467 -168 q 368 -136 415 -139 l 412 0 l 503 0 l 463 -111 l 456 -64 q 554 -108 517 -75 q 591 -197 591 -142 q 530 -307 591 -264 q 333 -347 468 -349 m 454 784 l 365 861 l 559 1118 l 677 1001 l 454 784 z "},"ĉ":{"ha":781,"x_min":80,"x_max":715,"o":"m 463 -8 q 263 39 349 -8 q 128 172 176 87 q 80 368 80 256 q 127 562 80 478 q 258 693 174 646 q 453 741 342 741 q 580 720 513 741 q 692 667 647 699 l 614 496 q 544 541 585 524 q 467 558 503 558 q 372 534 413 558 q 308 467 331 510 q 284 368 284 424 q 307 267 284 311 q 370 199 330 224 q 463 175 410 175 q 548 191 505 175 q 616 231 591 207 l 693 58 q 582 10 646 28 q 463 -8 519 -8 m 276 777 l 195 876 l 433 1083 l 475 1083 l 715 876 l 632 777 l 458 933 l 452 933 l 276 777 z "},"ċ":{"ha":781,"x_min":80,"x_max":693,"o":"m 463 -8 q 263 39 349 -8 q 128 172 176 87 q 80 368 80 256 q 127 562 80 478 q 258 693 174 646 q 453 741 342 741 q 580 720 513 741 q 692 667 647 699 l 614 496 q 544 541 585 524 q 467 558 503 558 q 372 534 413 558 q 308 467 331 510 q 284 368 284 424 q 307 267 284 311 q 370 199 330 224 q 463 175 410 175 q 548 191 505 175 q 616 231 591 207 l 693 58 q 582 10 646 28 q 463 -8 519 -8 m 455 813 q 362 851 400 813 q 324 943 324 888 q 362 1037 324 1000 q 455 1074 400 1074 q 548 1037 511 1074 q 586 943 586 1000 q 548 851 586 888 q 455 813 511 813 z "},"d":{"ha":781,"x_min":47,"x_max":758,"o":"m 685 -11 q 579 45 622 11 q 525 114 536 79 l 538 102 l 482 102 l 509 188 l 509 595 l 479 670 l 495 670 l 495 1044 l 707 1044 l 707 252 q 721 201 707 224 q 758 168 734 178 l 685 -11 m 316 -11 q 174 36 235 -11 q 80 166 113 82 q 47 365 47 251 q 81 564 47 479 q 176 694 115 648 q 321 741 238 741 q 466 694 404 741 q 561 563 527 648 q 595 365 595 479 q 560 166 595 251 q 463 36 526 82 q 316 -11 401 -11 m 374 168 q 443 193 414 168 q 488 261 471 217 q 504 365 504 306 q 488 469 504 425 q 445 537 473 513 q 378 561 416 561 q 311 536 340 561 q 266 468 282 512 q 250 365 250 425 q 266 261 250 306 q 309 193 281 217 q 374 168 337 168 z "},"ď":{"ha":781,"x_min":18,"x_max":777,"o":"m 252 -11 q 122 33 174 -11 q 44 161 70 77 q 18 365 18 245 q 44 569 18 486 q 118 697 69 653 q 237 741 168 741 q 356 697 307 741 q 431 569 406 653 q 456 365 456 486 q 434 161 456 245 q 366 33 411 77 q 252 -11 321 -11 m 293 168 q 335 191 318 168 q 361 258 352 214 q 371 365 371 302 q 362 471 371 428 q 337 538 353 515 q 298 561 321 561 q 257 538 274 561 q 230 471 239 515 q 221 365 221 428 q 230 258 221 302 q 254 191 238 214 q 293 168 271 168 m 570 -11 q 461 45 501 12 q 409 114 420 77 l 418 102 l 367 102 l 375 188 l 375 595 l 350 670 l 363 670 l 363 1044 l 575 1044 l 575 252 q 594 201 575 224 q 642 168 613 179 l 570 -11 m 608 698 l 609 1044 l 777 1044 l 754 698 l 608 698 z "},"đ":{"ha":781,"x_min":47,"x_max":817,"o":"m 685 -11 q 579 45 622 11 q 525 114 536 79 l 538 102 l 482 102 l 509 188 l 509 595 l 479 670 l 495 670 l 495 1044 l 707 1044 l 707 252 q 721 201 707 224 q 758 168 734 178 l 685 -11 m 316 -11 q 174 36 235 -11 q 80 166 113 82 q 47 365 47 251 q 81 564 47 479 q 176 694 115 648 q 321 741 238 741 q 466 694 404 741 q 561 563 527 648 q 595 365 595 479 q 560 166 595 251 q 463 36 526 82 q 316 -11 401 -11 m 374 168 q 443 193 414 168 q 488 261 471 217 q 504 365 504 306 q 488 469 504 425 q 445 537 473 513 q 378 561 416 561 q 311 536 340 561 q 266 468 282 512 q 250 365 250 425 q 266 261 250 306 q 309 193 281 217 q 374 168 337 168 m 386 821 l 386 930 l 817 930 l 817 821 l 386 821 z "},"ḍ":{"ha":781,"x_min":47,"x_max":758,"o":"m 685 -11 q 579 45 622 11 q 525 114 536 79 l 538 102 l 482 102 l 509 188 l 509 595 l 479 670 l 495 670 l 495 1044 l 707 1044 l 707 252 q 721 201 707 224 q 758 168 734 178 l 685 -11 m 316 -11 q 174 36 235 -11 q 80 166 113 82 q 47 365 47 251 q 81 564 47 479 q 176 694 115 648 q 321 741 238 741 q 466 694 404 741 q 561 563 527 648 q 595 365 595 479 q 560 166 595 251 q 463 36 526 82 q 316 -11 401 -11 m 374 168 q 443 193 414 168 q 488 261 471 217 q 504 365 504 306 q 488 469 504 425 q 445 537 473 513 q 378 561 416 561 q 311 536 340 561 q 266 468 282 512 q 250 365 250 425 q 266 261 250 306 q 309 193 281 217 q 374 168 337 168 m 389 -337 q 296 -299 334 -337 q 258 -207 258 -262 q 296 -113 258 -151 q 389 -76 334 -76 q 483 -113 445 -76 q 520 -207 520 -151 q 483 -299 520 -262 q 389 -337 445 -337 z "},"ḏ":{"ha":781,"x_min":47,"x_max":758,"o":"m 685 -11 q 579 45 622 11 q 525 114 536 79 l 538 102 l 482 102 l 509 188 l 509 595 l 479 670 l 495 670 l 495 1044 l 707 1044 l 707 252 q 721 201 707 224 q 758 168 734 178 l 685 -11 m 316 -11 q 174 36 235 -11 q 80 166 113 82 q 47 365 47 251 q 81 564 47 479 q 176 694 115 648 q 321 741 238 741 q 466 694 404 741 q 561 563 527 648 q 595 365 595 479 q 560 166 595 251 q 463 36 526 82 q 316 -11 401 -11 m 374 168 q 443 193 414 168 q 488 261 471 217 q 504 365 504 306 q 488 469 504 425 q 445 537 473 513 q 378 561 416 561 q 311 536 340 561 q 266 468 282 512 q 250 365 250 425 q 266 261 250 306 q 309 193 281 217 q 374 168 337 168 m 113 -285 l 113 -155 l 665 -155 l 665 -285 l 113 -285 z "},"ǆ":{"ha":781,"x_min":16,"x_max":772,"o":"m 163 -11 q 53 86 91 -11 q 16 366 16 182 q 50 645 16 549 q 149 741 83 741 q 251 644 217 741 q 285 365 285 548 q 255 85 285 182 q 163 -11 224 -11 m 207 163 q 241 215 229 163 q 252 366 252 267 q 241 515 252 464 q 208 567 230 567 q 173 515 185 567 q 161 366 161 464 q 173 215 161 267 q 207 163 184 163 m 359 -11 q 285 48 311 14 q 256 117 259 82 l 273 97 l 237 97 l 255 157 l 255 580 l 208 673 l 241 673 l 241 1044 l 389 1044 l 389 212 q 397 185 389 197 q 422 165 406 173 l 359 -11 m 414 0 l 414 34 l 583 577 l 583 581 l 448 581 l 448 729 l 759 729 l 759 694 l 591 152 l 591 149 l 753 149 l 753 0 l 414 0 m 576 789 l 413 963 l 483 1055 l 591 924 l 594 924 l 702 1055 l 772 963 l 609 789 l 576 789 z "},"ð":{"ha":781,"x_min":32,"x_max":749,"o":"m 385 -11 q 209 36 289 -11 q 80 163 128 82 q 32 349 32 245 q 76 525 32 446 q 193 651 119 604 q 358 698 267 698 q 436 687 395 698 q 510 653 477 676 q 551 592 542 630 l 515 635 l 569 635 l 542 605 q 481 722 519 667 q 393 823 444 777 q 280 908 342 870 q 143 974 217 946 l 225 1140 q 448 1008 351 1082 q 612 846 545 935 q 714 655 680 757 q 749 437 749 553 q 702 202 749 302 q 574 45 656 101 q 385 -11 492 -11 m 390 177 q 469 202 434 178 q 524 268 504 227 q 543 360 543 309 q 524 449 543 411 q 469 508 504 487 q 389 529 434 529 q 312 507 347 529 q 258 447 277 486 q 238 359 238 409 q 258 266 238 307 q 312 201 278 224 q 390 177 347 177 m 202 742 l 145 825 l 592 1137 l 666 1027 l 202 742 z "},"e":{"ha":781,"x_min":56,"x_max":726,"o":"m 427 -11 q 231 36 315 -11 q 102 166 148 82 q 56 363 56 250 q 99 562 56 477 q 220 694 142 647 q 404 741 299 741 q 574 698 502 741 q 686 578 646 655 q 726 398 726 501 q 723 342 726 371 q 715 294 721 313 l 226 294 l 226 427 l 524 427 q 508 504 524 471 q 464 555 492 537 q 399 574 436 574 q 317 548 352 574 q 262 477 281 522 q 243 370 243 431 q 266 259 243 306 q 330 186 289 212 q 427 160 372 160 q 518 174 475 160 q 588 210 562 188 l 654 52 q 551 6 614 24 q 427 -11 489 -11 z "},"é":{"ha":781,"x_min":56,"x_max":726,"o":"m 427 -11 q 231 36 315 -11 q 102 166 148 82 q 56 363 56 250 q 99 562 56 477 q 220 694 142 647 q 404 741 299 741 q 574 698 502 741 q 686 578 646 655 q 726 398 726 501 q 723 342 726 371 q 715 294 721 313 l 226 294 l 226 427 l 524 427 q 508 504 524 471 q 464 555 492 537 q 399 574 436 574 q 317 548 352 574 q 262 477 281 522 q 243 370 243 431 q 266 259 243 306 q 330 186 289 212 q 427 160 372 160 q 518 174 475 160 q 588 210 562 188 l 654 52 q 551 6 614 24 q 427 -11 489 -11 m 401 784 l 311 861 l 505 1118 l 623 1001 l 401 784 z "},"ĕ":{"ha":781,"x_min":56,"x_max":726,"o":"m 427 -11 q 231 36 315 -11 q 102 166 148 82 q 56 363 56 250 q 99 562 56 477 q 220 694 142 647 q 404 741 299 741 q 574 698 502 741 q 686 578 646 655 q 726 398 726 501 q 723 342 726 371 q 715 294 721 313 l 226 294 l 226 427 l 524 427 q 508 504 524 471 q 464 555 492 537 q 399 574 436 574 q 317 548 352 574 q 262 477 281 522 q 243 370 243 431 q 266 259 243 306 q 330 186 289 212 q 427 160 372 160 q 518 174 475 160 q 588 210 562 188 l 654 52 q 551 6 614 24 q 427 -11 489 -11 m 400 809 q 270 840 328 809 q 178 923 212 871 q 144 1042 144 976 l 274 1042 q 311 959 275 992 q 400 925 347 925 q 491 959 454 925 q 528 1042 527 992 l 658 1042 q 624 923 659 976 q 531 840 589 871 q 400 809 473 809 z "},"ě":{"ha":781,"x_min":56,"x_max":726,"o":"m 427 -11 q 231 36 315 -11 q 102 166 148 82 q 56 363 56 250 q 99 562 56 477 q 220 694 142 647 q 404 741 299 741 q 574 698 502 741 q 686 578 646 655 q 726 398 726 501 q 723 342 726 371 q 715 294 721 313 l 226 294 l 226 427 l 524 427 q 508 504 524 471 q 464 555 492 537 q 399 574 436 574 q 317 548 352 574 q 262 477 281 522 q 243 370 243 431 q 266 259 243 306 q 330 186 289 212 q 427 160 372 160 q 518 174 475 160 q 588 210 562 188 l 654 52 q 551 6 614 24 q 427 -11 489 -11 m 221 1088 l 397 932 l 403 932 l 578 1088 l 661 988 l 420 781 l 378 781 l 140 988 l 221 1088 z "},"ḝ":{"ha":781,"x_min":56,"x_max":726,"o":"m 427 -11 q 231 36 315 -11 q 102 166 148 82 q 56 363 56 250 q 99 562 56 477 q 220 694 142 647 q 404 741 299 741 q 574 698 502 741 q 686 578 646 655 q 726 398 726 501 q 723 342 726 371 q 715 294 721 313 l 226 294 l 226 427 l 524 427 q 508 504 524 471 q 464 555 492 537 q 399 574 436 574 q 317 548 352 574 q 262 477 281 522 q 243 370 243 431 q 266 259 243 306 q 330 186 289 212 q 427 160 372 160 q 518 174 475 160 q 588 210 562 188 l 654 52 q 551 6 614 24 q 427 -11 489 -11 m 300 -347 l 300 -243 q 402 -229 371 -245 q 433 -187 433 -213 q 408 -153 433 -168 q 335 -136 382 -139 l 379 0 l 469 0 l 430 -111 l 422 -64 q 521 -108 484 -75 q 558 -197 558 -142 q 496 -307 558 -264 q 300 -347 435 -349 m 400 809 q 270 840 328 809 q 178 923 212 871 q 144 1042 144 976 l 274 1042 q 311 959 275 992 q 400 925 347 925 q 491 959 454 925 q 528 1042 527 992 l 658 1042 q 624 923 659 976 q 531 840 589 871 q 400 809 473 809 z "},"ê":{"ha":781,"x_min":56,"x_max":726,"o":"m 427 -11 q 231 36 315 -11 q 102 166 148 82 q 56 363 56 250 q 99 562 56 477 q 220 694 142 647 q 404 741 299 741 q 574 698 502 741 q 686 578 646 655 q 726 398 726 501 q 723 342 726 371 q 715 294 721 313 l 226 294 l 226 427 l 524 427 q 508 504 524 471 q 464 555 492 537 q 399 574 436 574 q 317 548 352 574 q 262 477 281 522 q 243 370 243 431 q 266 259 243 306 q 330 186 289 212 q 427 160 372 160 q 518 174 475 160 q 588 210 562 188 l 654 52 q 551 6 614 24 q 427 -11 489 -11 m 222 777 l 142 876 l 380 1083 l 421 1083 l 661 876 l 578 777 l 404 933 l 399 933 l 222 777 z "},"ế":{"ha":781,"x_min":56,"x_max":848,"o":"m 427 -11 q 231 36 315 -11 q 102 166 148 82 q 56 363 56 250 q 99 562 56 477 q 220 694 142 647 q 404 741 299 741 q 574 698 502 741 q 686 578 646 655 q 726 398 726 501 q 723 342 726 371 q 715 294 721 313 l 226 294 l 226 427 l 524 427 q 508 504 524 471 q 464 555 492 537 q 399 574 436 574 q 317 548 352 574 q 262 477 281 522 q 243 370 243 431 q 266 259 243 306 q 330 186 289 212 q 427 160 372 160 q 518 174 475 160 q 588 210 562 188 l 654 52 q 551 6 614 24 q 427 -11 489 -11 m 625 984 l 532 1050 l 749 1276 l 848 1142 l 625 984 m 235 789 l 139 886 l 378 1053 l 420 1053 l 660 886 l 568 789 l 401 915 l 397 915 l 235 789 z "},"ệ":{"ha":781,"x_min":56,"x_max":726,"o":"m 427 -11 q 231 36 315 -11 q 102 166 148 82 q 56 363 56 250 q 99 562 56 477 q 220 694 142 647 q 404 741 299 741 q 574 698 502 741 q 686 578 646 655 q 726 398 726 501 q 723 342 726 371 q 715 294 721 313 l 226 294 l 226 427 l 524 427 q 508 504 524 471 q 464 555 492 537 q 399 574 436 574 q 317 548 352 574 q 262 477 281 522 q 243 370 243 431 q 266 259 243 306 q 330 186 289 212 q 427 160 372 160 q 518 174 475 160 q 588 210 562 188 l 654 52 q 551 6 614 24 q 427 -11 489 -11 m 406 -337 q 313 -299 351 -337 q 275 -207 275 -262 q 313 -113 275 -151 q 406 -76 351 -76 q 499 -113 462 -76 q 537 -207 537 -151 q 499 -299 537 -262 q 406 -337 462 -337 m 222 777 l 142 876 l 380 1083 l 421 1083 l 661 876 l 578 777 l 404 933 l 399 933 l 222 777 z "},"ề":{"ha":781,"x_min":-46,"x_max":726,"o":"m 427 -11 q 231 36 315 -11 q 102 166 148 82 q 56 363 56 250 q 99 562 56 477 q 220 694 142 647 q 404 741 299 741 q 574 698 502 741 q 686 578 646 655 q 726 398 726 501 q 723 342 726 371 q 715 294 721 313 l 226 294 l 226 427 l 524 427 q 508 504 524 471 q 464 555 492 537 q 399 574 436 574 q 317 548 352 574 q 262 477 281 522 q 243 370 243 431 q 266 259 243 306 q 330 186 289 212 q 427 160 372 160 q 518 174 475 160 q 588 210 562 188 l 654 52 q 551 6 614 24 q 427 -11 489 -11 m 176 984 l -46 1142 l 53 1276 l 270 1050 l 176 984 m 568 789 l 405 915 l 401 915 l 235 789 l 142 886 l 382 1053 l 424 1053 l 663 886 l 568 789 z "},"ể":{"ha":781,"x_min":56,"x_max":726,"o":"m 427 -11 q 231 36 315 -11 q 102 166 148 82 q 56 363 56 250 q 99 562 56 477 q 220 694 142 647 q 404 741 299 741 q 574 698 502 741 q 686 578 646 655 q 726 398 726 501 q 723 342 726 371 q 715 294 721 313 l 226 294 l 226 427 l 524 427 q 508 504 524 471 q 464 555 492 537 q 399 574 436 574 q 317 548 352 574 q 262 477 281 522 q 243 370 243 431 q 266 259 243 306 q 330 186 289 212 q 427 160 372 160 q 518 174 475 160 q 588 210 562 188 l 654 52 q 551 6 614 24 q 427 -11 489 -11 m 610 985 l 536 1042 q 569 1074 556 1058 q 581 1107 581 1090 q 565 1138 581 1127 q 515 1149 549 1149 q 483 1146 500 1149 q 448 1137 467 1143 l 448 1262 q 492 1273 462 1270 q 545 1276 522 1276 q 663 1242 618 1276 q 708 1137 708 1209 q 692 1072 708 1101 q 653 1020 676 1042 q 610 985 631 998 m 237 789 l 141 886 l 381 1053 l 422 1053 l 662 886 l 570 789 l 403 915 l 399 915 l 237 789 z "},"ễ":{"ha":781,"x_min":56,"x_max":726,"o":"m 427 -11 q 231 36 315 -11 q 102 166 148 82 q 56 363 56 250 q 99 562 56 477 q 220 694 142 647 q 404 741 299 741 q 574 698 502 741 q 686 578 646 655 q 726 398 726 501 q 723 342 726 371 q 715 294 721 313 l 226 294 l 226 427 l 524 427 q 508 504 524 471 q 464 555 492 537 q 399 574 436 574 q 317 548 352 574 q 262 477 281 522 q 243 370 243 431 q 266 259 243 306 q 330 186 289 212 q 427 160 372 160 q 518 174 475 160 q 588 210 562 188 l 654 52 q 551 6 614 24 q 427 -11 489 -11 m 146 1071 q 186 1219 144 1162 q 304 1276 229 1276 q 368 1265 342 1276 q 410 1238 393 1253 q 444 1211 428 1222 q 480 1199 460 1199 q 515 1221 503 1199 q 528 1276 527 1242 l 658 1276 q 643 1173 659 1219 q 594 1099 627 1126 q 512 1071 562 1071 q 449 1083 474 1071 q 406 1110 424 1095 q 373 1138 389 1126 q 339 1149 357 1149 q 293 1130 311 1149 q 273 1071 274 1110 l 146 1071 m 236 789 l 140 886 l 380 1053 l 422 1053 l 661 886 l 569 789 l 401 915 l 399 915 l 236 789 z "},"ȅ":{"ha":781,"x_min":56,"x_max":726,"o":"m 427 -11 q 231 36 315 -11 q 102 166 148 82 q 56 363 56 250 q 99 562 56 477 q 220 694 142 647 q 404 741 299 741 q 574 698 502 741 q 686 578 646 655 q 726 398 726 501 q 723 342 726 371 q 715 294 721 313 l 226 294 l 226 427 l 524 427 q 508 504 524 471 q 464 555 492 537 q 399 574 436 574 q 317 548 352 574 q 262 477 281 522 q 243 370 243 431 q 266 259 243 306 q 330 186 289 212 q 427 160 372 160 q 518 174 475 160 q 588 210 562 188 l 654 52 q 551 6 614 24 q 427 -11 489 -11 m 504 794 l 352 1029 l 497 1097 l 616 820 l 504 794 m 256 794 l 104 1029 l 246 1097 l 368 820 l 256 794 z "},"ë":{"ha":781,"x_min":56,"x_max":726,"o":"m 427 -11 q 231 36 315 -11 q 102 166 148 82 q 56 363 56 250 q 99 562 56 477 q 220 694 142 647 q 404 741 299 741 q 574 698 502 741 q 686 578 646 655 q 726 398 726 501 q 723 342 726 371 q 715 294 721 313 l 226 294 l 226 427 l 524 427 q 508 504 524 471 q 464 555 492 537 q 399 574 436 574 q 317 548 352 574 q 262 477 281 522 q 243 370 243 431 q 266 259 243 306 q 330 186 289 212 q 427 160 372 160 q 518 174 475 160 q 588 210 562 188 l 654 52 q 551 6 614 24 q 427 -11 489 -11 m 566 824 q 482 859 516 824 q 448 943 448 893 q 482 1027 448 993 q 566 1061 516 1061 q 650 1027 616 1061 q 684 943 684 993 q 650 859 684 893 q 566 824 616 824 m 237 824 q 153 859 188 824 q 119 943 119 893 q 153 1027 119 993 q 237 1061 188 1061 q 321 1027 288 1061 q 355 943 355 993 q 321 859 355 893 q 237 824 288 824 z "},"ė":{"ha":781,"x_min":56,"x_max":726,"o":"m 427 -11 q 231 36 315 -11 q 102 166 148 82 q 56 363 56 250 q 99 562 56 477 q 220 694 142 647 q 404 741 299 741 q 574 698 502 741 q 686 578 646 655 q 726 398 726 501 q 723 342 726 371 q 715 294 721 313 l 226 294 l 226 427 l 524 427 q 508 504 524 471 q 464 555 492 537 q 399 574 436 574 q 317 548 352 574 q 262 477 281 522 q 243 370 243 431 q 266 259 243 306 q 330 186 289 212 q 427 160 372 160 q 518 174 475 160 q 588 210 562 188 l 654 52 q 551 6 614 24 q 427 -11 489 -11 m 401 813 q 309 851 347 813 q 271 943 271 888 q 309 1037 271 1000 q 401 1074 347 1074 q 495 1037 457 1074 q 532 943 532 1000 q 495 851 532 888 q 401 813 457 813 z "},"ẹ":{"ha":781,"x_min":56,"x_max":726,"o":"m 427 -11 q 231 36 315 -11 q 102 166 148 82 q 56 363 56 250 q 99 562 56 477 q 220 694 142 647 q 404 741 299 741 q 574 698 502 741 q 686 578 646 655 q 726 398 726 501 q 723 342 726 371 q 715 294 721 313 l 226 294 l 226 427 l 524 427 q 508 504 524 471 q 464 555 492 537 q 399 574 436 574 q 317 548 352 574 q 262 477 281 522 q 243 370 243 431 q 266 259 243 306 q 330 186 289 212 q 427 160 372 160 q 518 174 475 160 q 588 210 562 188 l 654 52 q 551 6 614 24 q 427 -11 489 -11 m 406 -337 q 313 -299 351 -337 q 275 -207 275 -262 q 313 -113 275 -151 q 406 -76 351 -76 q 499 -113 462 -76 q 537 -207 537 -151 q 499 -299 537 -262 q 406 -337 462 -337 z "},"è":{"ha":781,"x_min":56,"x_max":726,"o":"m 427 -11 q 231 36 315 -11 q 102 166 148 82 q 56 363 56 250 q 99 562 56 477 q 220 694 142 647 q 404 741 299 741 q 574 698 502 741 q 686 578 646 655 q 726 398 726 501 q 723 342 726 371 q 715 294 721 313 l 226 294 l 226 427 l 524 427 q 508 504 524 471 q 464 555 492 537 q 399 574 436 574 q 317 548 352 574 q 262 477 281 522 q 243 370 243 431 q 266 259 243 306 q 330 186 289 212 q 427 160 372 160 q 518 174 475 160 q 588 210 562 188 l 654 52 q 551 6 614 24 q 427 -11 489 -11 m 401 784 l 179 1001 l 297 1118 l 491 861 l 401 784 z "},"ẻ":{"ha":781,"x_min":56,"x_max":726,"o":"m 427 -11 q 231 36 315 -11 q 102 166 148 82 q 56 363 56 250 q 99 562 56 477 q 220 694 142 647 q 404 741 299 741 q 574 698 502 741 q 686 578 646 655 q 726 398 726 501 q 723 342 726 371 q 715 294 721 313 l 226 294 l 226 427 l 524 427 q 508 504 524 471 q 464 555 492 537 q 399 574 436 574 q 317 548 352 574 q 262 477 281 522 q 243 370 243 431 q 266 259 243 306 q 330 186 289 212 q 427 160 372 160 q 518 174 475 160 q 588 210 562 188 l 654 52 q 551 6 614 24 q 427 -11 489 -11 m 425 782 l 349 857 q 384 887 368 870 q 399 923 399 903 q 382 952 399 942 q 334 962 366 962 q 302 960 323 962 q 266 950 281 957 l 266 1074 q 308 1086 279 1082 q 361 1090 337 1090 q 481 1055 436 1090 q 526 952 526 1019 q 494 846 526 892 q 425 782 463 800 z "},"ȇ":{"ha":781,"x_min":56,"x_max":726,"o":"m 427 -11 q 231 36 315 -11 q 102 166 148 82 q 56 363 56 250 q 99 562 56 477 q 220 694 142 647 q 404 741 299 741 q 574 698 502 741 q 686 578 646 655 q 726 398 726 501 q 723 342 726 371 q 715 294 721 313 l 226 294 l 226 427 l 524 427 q 508 504 524 471 q 464 555 492 537 q 399 574 436 574 q 317 548 352 574 q 262 477 281 522 q 243 370 243 431 q 266 259 243 306 q 330 186 289 212 q 427 160 372 160 q 518 174 475 160 q 588 210 562 188 l 654 52 q 551 6 614 24 q 427 -11 489 -11 m 400 1046 q 531 1016 473 1046 q 624 932 589 985 q 657 814 658 880 l 527 814 q 490 897 526 863 q 400 930 454 930 q 310 897 347 930 q 274 814 274 863 l 144 814 q 178 932 144 880 q 270 1016 212 985 q 400 1046 328 1046 z "},"ē":{"ha":781,"x_min":56,"x_max":726,"o":"m 427 -11 q 231 36 315 -11 q 102 166 148 82 q 56 363 56 250 q 99 562 56 477 q 220 694 142 647 q 404 741 299 741 q 574 698 502 741 q 686 578 646 655 q 726 398 726 501 q 723 342 726 371 q 715 294 721 313 l 226 294 l 226 427 l 524 427 q 508 504 524 471 q 464 555 492 537 q 399 574 436 574 q 317 548 352 574 q 262 477 281 522 q 243 370 243 431 q 266 259 243 306 q 330 186 289 212 q 427 160 372 160 q 518 174 475 160 q 588 210 562 188 l 654 52 q 551 6 614 24 q 427 -11 489 -11 m 125 849 l 125 979 l 677 979 l 677 849 l 125 849 z "},"ḗ":{"ha":781,"x_min":56,"x_max":726,"o":"m 427 -11 q 231 36 315 -11 q 102 166 148 82 q 56 363 56 250 q 99 562 56 477 q 220 694 142 647 q 404 741 299 741 q 574 698 502 741 q 686 578 646 655 q 726 398 726 501 q 723 342 726 371 q 715 294 721 313 l 226 294 l 226 427 l 524 427 q 508 504 524 471 q 464 555 492 537 q 399 574 436 574 q 317 548 352 574 q 262 477 281 522 q 243 370 243 431 q 266 259 243 306 q 330 186 289 212 q 427 160 372 160 q 518 174 475 160 q 588 210 562 188 l 654 52 q 551 6 614 24 q 427 -11 489 -11 m 125 849 l 125 979 l 677 979 l 677 849 l 125 849 m 401 1043 l 311 1120 l 505 1377 l 623 1260 l 401 1043 z "},"ḕ":{"ha":781,"x_min":56,"x_max":726,"o":"m 427 -11 q 231 36 315 -11 q 102 166 148 82 q 56 363 56 250 q 99 562 56 477 q 220 694 142 647 q 404 741 299 741 q 574 698 502 741 q 686 578 646 655 q 726 398 726 501 q 723 342 726 371 q 715 294 721 313 l 226 294 l 226 427 l 524 427 q 508 504 524 471 q 464 555 492 537 q 399 574 436 574 q 317 548 352 574 q 262 477 281 522 q 243 370 243 431 q 266 259 243 306 q 330 186 289 212 q 427 160 372 160 q 518 174 475 160 q 588 210 562 188 l 654 52 q 551 6 614 24 q 427 -11 489 -11 m 125 849 l 125 979 l 677 979 l 677 849 l 125 849 m 401 1043 l 179 1260 l 297 1377 l 491 1120 l 401 1043 z "},"ę":{"ha":781,"x_min":56,"x_max":726,"o":"m 427 -11 q 231 36 315 -11 q 102 166 148 82 q 56 363 56 250 q 99 562 56 477 q 220 694 142 647 q 404 741 299 741 q 574 698 502 741 q 686 578 646 655 q 726 398 726 501 q 723 342 726 371 q 715 294 721 313 l 226 294 l 226 427 l 524 427 q 508 504 524 471 q 464 555 492 537 q 399 574 436 574 q 317 548 352 574 q 262 477 281 522 q 243 370 243 431 q 266 259 243 306 q 330 186 289 212 q 427 160 372 160 q 518 174 475 160 q 588 210 562 188 l 654 52 q 551 6 614 24 q 427 -11 489 -11 m 550 -241 q 442 -204 484 -241 q 400 -104 400 -166 q 438 -3 400 -47 q 545 85 477 42 l 654 52 q 592 8 621 29 q 547 -34 564 -13 q 530 -79 530 -56 q 544 -110 530 -99 q 587 -121 558 -121 q 625 -117 605 -121 q 656 -105 646 -112 l 656 -223 q 604 -237 637 -232 q 550 -241 572 -241 z "},"ẽ":{"ha":781,"x_min":56,"x_max":726,"o":"m 427 -11 q 231 36 315 -11 q 102 166 148 82 q 56 363 56 250 q 99 562 56 477 q 220 694 142 647 q 404 741 299 741 q 574 698 502 741 q 686 578 646 655 q 726 398 726 501 q 723 342 726 371 q 715 294 721 313 l 226 294 l 226 427 l 524 427 q 508 504 524 471 q 464 555 492 537 q 399 574 436 574 q 317 548 352 574 q 262 477 281 522 q 243 370 243 431 q 266 259 243 306 q 330 186 289 212 q 427 160 372 160 q 518 174 475 160 q 588 210 562 188 l 654 52 q 551 6 614 24 q 427 -11 489 -11 m 136 814 q 181 973 136 912 q 302 1034 227 1034 q 366 1020 340 1034 q 410 988 391 1006 q 444 957 428 970 q 478 943 459 943 q 515 970 504 943 q 527 1034 526 997 l 661 1034 q 616 876 662 937 q 494 814 570 814 q 432 828 457 814 q 388 861 406 842 q 354 893 370 879 q 317 907 337 907 q 282 881 294 907 q 270 814 271 855 l 136 814 z "},"ə":{"ha":781,"x_min":47,"x_max":736,"o":"m 378 -11 q 207 34 282 -11 q 90 155 132 78 q 47 332 47 232 q 50 391 47 361 q 57 435 53 420 l 566 435 l 566 302 l 249 302 q 267 223 249 256 q 314 173 284 191 q 383 156 345 156 q 472 184 435 156 q 528 258 509 212 q 548 360 548 304 q 523 470 548 423 q 453 543 497 517 q 353 569 409 569 q 288 562 321 569 q 228 543 255 554 q 187 521 201 532 l 121 678 q 222 723 160 705 q 355 741 284 741 q 556 693 471 741 q 689 562 642 646 q 736 367 736 477 q 687 167 736 252 q 556 36 637 82 q 378 -11 474 -11 z "},"f":{"ha":781,"x_min":75,"x_max":755,"o":"m 239 0 l 239 772 q 280 932 239 866 q 390 1032 320 998 q 545 1067 459 1067 q 655 1053 600 1067 q 755 1013 711 1039 l 677 846 q 626 870 656 861 q 568 880 596 880 q 486 851 517 880 q 454 772 454 822 l 454 0 l 239 0 m 75 547 l 75 730 l 694 730 l 694 547 l 75 547 z "},"g":{"ha":781,"x_min":49,"x_max":701,"o":"m 356 -296 q 207 -274 275 -296 q 100 -229 138 -252 l 169 -61 q 251 -102 210 -87 q 329 -117 292 -117 q 405 -102 364 -117 q 474 -54 445 -87 q 503 30 503 -22 l 503 102 l 483 102 l 514 171 l 514 578 l 462 658 l 511 658 l 511 730 l 701 730 l 701 42 q 676 -104 701 -41 q 606 -210 652 -168 q 497 -274 560 -253 q 356 -296 433 -296 m 325 14 q 229 36 277 14 q 139 102 180 58 q 74 215 98 146 q 49 376 49 283 q 91 579 49 498 q 199 700 134 660 q 331 741 264 741 q 475 693 412 741 q 572 565 537 645 q 607 387 607 485 q 570 201 607 286 q 468 65 532 117 q 325 14 404 14 m 380 189 q 448 213 418 189 q 495 282 478 238 q 512 382 512 326 q 495 481 512 439 q 450 545 479 522 q 385 567 422 567 q 319 545 349 567 q 273 481 290 522 q 256 382 256 439 q 272 282 256 326 q 316 214 288 239 q 380 189 344 189 z "},"ǵ":{"ha":781,"x_min":49,"x_max":701,"o":"m 356 -296 q 207 -274 275 -296 q 100 -229 138 -252 l 169 -61 q 251 -102 210 -87 q 329 -117 292 -117 q 405 -102 364 -117 q 474 -54 445 -87 q 503 30 503 -22 l 503 102 l 483 102 l 514 171 l 514 578 l 462 658 l 511 658 l 511 730 l 701 730 l 701 42 q 676 -104 701 -41 q 606 -210 652 -168 q 497 -274 560 -253 q 356 -296 433 -296 m 325 14 q 229 36 277 14 q 139 102 180 58 q 74 215 98 146 q 49 376 49 283 q 91 579 49 498 q 199 700 134 660 q 331 741 264 741 q 475 693 412 741 q 572 565 537 645 q 607 387 607 485 q 570 201 607 286 q 468 65 532 117 q 325 14 404 14 m 380 189 q 448 213 418 189 q 495 282 478 238 q 512 382 512 326 q 495 481 512 439 q 450 545 479 522 q 385 567 422 567 q 319 545 349 567 q 273 481 290 522 q 256 382 256 439 q 272 282 256 326 q 316 214 288 239 q 380 189 344 189 m 373 784 l 283 861 l 477 1118 l 595 1001 l 373 784 z "},"ğ":{"ha":781,"x_min":49,"x_max":701,"o":"m 356 -296 q 207 -274 275 -296 q 100 -229 138 -252 l 169 -61 q 251 -102 210 -87 q 329 -117 292 -117 q 405 -102 364 -117 q 474 -54 445 -87 q 503 30 503 -22 l 503 102 l 483 102 l 514 171 l 514 578 l 462 658 l 511 658 l 511 730 l 701 730 l 701 42 q 676 -104 701 -41 q 606 -210 652 -168 q 497 -274 560 -253 q 356 -296 433 -296 m 325 14 q 229 36 277 14 q 139 102 180 58 q 74 215 98 146 q 49 376 49 283 q 91 579 49 498 q 199 700 134 660 q 331 741 264 741 q 475 693 412 741 q 572 565 537 645 q 607 387 607 485 q 570 201 607 286 q 468 65 532 117 q 325 14 404 14 m 380 189 q 448 213 418 189 q 495 282 478 238 q 512 382 512 326 q 495 481 512 439 q 450 545 479 522 q 385 567 422 567 q 319 545 349 567 q 273 481 290 522 q 256 382 256 439 q 272 282 256 326 q 316 214 288 239 q 380 189 344 189 m 372 809 q 242 840 300 809 q 150 923 184 871 q 116 1042 116 976 l 246 1042 q 283 959 247 992 q 372 925 319 925 q 463 959 427 925 q 500 1042 499 992 l 630 1042 q 596 923 631 976 q 504 840 562 871 q 372 809 446 809 z "},"ǧ":{"ha":781,"x_min":49,"x_max":701,"o":"m 356 -296 q 207 -274 275 -296 q 100 -229 138 -252 l 169 -61 q 251 -102 210 -87 q 329 -117 292 -117 q 405 -102 364 -117 q 474 -54 445 -87 q 503 30 503 -22 l 503 102 l 483 102 l 514 171 l 514 578 l 462 658 l 511 658 l 511 730 l 701 730 l 701 42 q 676 -104 701 -41 q 606 -210 652 -168 q 497 -274 560 -253 q 356 -296 433 -296 m 325 14 q 229 36 277 14 q 139 102 180 58 q 74 215 98 146 q 49 376 49 283 q 91 579 49 498 q 199 700 134 660 q 331 741 264 741 q 475 693 412 741 q 572 565 537 645 q 607 387 607 485 q 570 201 607 286 q 468 65 532 117 q 325 14 404 14 m 380 189 q 448 213 418 189 q 495 282 478 238 q 512 382 512 326 q 495 481 512 439 q 450 545 479 522 q 385 567 422 567 q 319 545 349 567 q 273 481 290 522 q 256 382 256 439 q 272 282 256 326 q 316 214 288 239 q 380 189 344 189 m 193 1088 l 370 932 l 375 932 l 550 1088 l 633 988 l 393 781 l 351 781 l 113 988 l 193 1088 z "},"ĝ":{"ha":781,"x_min":49,"x_max":701,"o":"m 356 -296 q 207 -274 275 -296 q 100 -229 138 -252 l 169 -61 q 251 -102 210 -87 q 329 -117 292 -117 q 405 -102 364 -117 q 474 -54 445 -87 q 503 30 503 -22 l 503 102 l 483 102 l 514 171 l 514 578 l 462 658 l 511 658 l 511 730 l 701 730 l 701 42 q 676 -104 701 -41 q 606 -210 652 -168 q 497 -274 560 -253 q 356 -296 433 -296 m 325 14 q 229 36 277 14 q 139 102 180 58 q 74 215 98 146 q 49 376 49 283 q 91 579 49 498 q 199 700 134 660 q 331 741 264 741 q 475 693 412 741 q 572 565 537 645 q 607 387 607 485 q 570 201 607 286 q 468 65 532 117 q 325 14 404 14 m 380 189 q 448 213 418 189 q 495 282 478 238 q 512 382 512 326 q 495 481 512 439 q 450 545 479 522 q 385 567 422 567 q 319 545 349 567 q 273 481 290 522 q 256 382 256 439 q 272 282 256 326 q 316 214 288 239 q 380 189 344 189 m 195 777 l 114 876 l 352 1083 l 393 1083 l 633 876 l 551 777 l 376 933 l 371 933 l 195 777 z "},"ģ":{"ha":781,"x_min":49,"x_max":701,"o":"m 356 -296 q 207 -274 275 -296 q 100 -229 138 -252 l 169 -61 q 251 -102 210 -87 q 329 -117 292 -117 q 405 -102 364 -117 q 474 -54 445 -87 q 503 30 503 -22 l 503 102 l 483 102 l 514 171 l 514 578 l 462 658 l 511 658 l 511 730 l 701 730 l 701 42 q 676 -104 701 -41 q 606 -210 652 -168 q 497 -274 560 -253 q 356 -296 433 -296 m 325 14 q 229 36 277 14 q 139 102 180 58 q 74 215 98 146 q 49 376 49 283 q 91 579 49 498 q 199 700 134 660 q 331 741 264 741 q 475 693 412 741 q 572 565 537 645 q 607 387 607 485 q 570 201 607 286 q 468 65 532 117 q 325 14 404 14 m 380 189 q 448 213 418 189 q 495 282 478 238 q 512 382 512 326 q 495 481 512 439 q 450 545 479 522 q 385 567 422 567 q 319 545 349 567 q 273 481 290 522 q 256 382 256 439 q 272 282 256 326 q 316 214 288 239 q 380 189 344 189 m 429 1164 l 469 1111 l 408 1060 q 382 1034 396 1050 q 357 1001 368 1018 q 347 970 347 984 l 322 970 q 335 1001 323 987 q 373 1015 347 1015 q 434 989 404 1015 q 464 921 464 964 q 436 855 464 880 q 373 830 408 830 q 306 856 334 830 q 277 935 277 882 q 293 1012 277 978 q 330 1069 309 1046 q 363 1105 350 1093 l 429 1164 z "},"ġ":{"ha":781,"x_min":49,"x_max":701,"o":"m 356 -296 q 207 -274 275 -296 q 100 -229 138 -252 l 169 -61 q 251 -102 210 -87 q 329 -117 292 -117 q 405 -102 364 -117 q 474 -54 445 -87 q 503 30 503 -22 l 503 102 l 483 102 l 514 171 l 514 578 l 462 658 l 511 658 l 511 730 l 701 730 l 701 42 q 676 -104 701 -41 q 606 -210 652 -168 q 497 -274 560 -253 q 356 -296 433 -296 m 325 14 q 229 36 277 14 q 139 102 180 58 q 74 215 98 146 q 49 376 49 283 q 91 579 49 498 q 199 700 134 660 q 331 741 264 741 q 475 693 412 741 q 572 565 537 645 q 607 387 607 485 q 570 201 607 286 q 468 65 532 117 q 325 14 404 14 m 380 189 q 448 213 418 189 q 495 282 478 238 q 512 382 512 326 q 495 481 512 439 q 450 545 479 522 q 385 567 422 567 q 319 545 349 567 q 273 481 290 522 q 256 382 256 439 q 272 282 256 326 q 316 214 288 239 q 380 189 344 189 m 374 813 q 281 851 319 813 q 243 943 243 888 q 281 1037 243 1000 q 374 1074 319 1074 q 467 1037 429 1074 q 505 943 505 1000 q 467 851 505 888 q 374 813 429 813 z "},"ḡ":{"ha":781,"x_min":49,"x_max":701,"o":"m 356 -296 q 207 -274 275 -296 q 100 -229 138 -252 l 169 -61 q 251 -102 210 -87 q 329 -117 292 -117 q 405 -102 364 -117 q 474 -54 445 -87 q 503 30 503 -22 l 503 102 l 483 102 l 514 171 l 514 578 l 462 658 l 511 658 l 511 730 l 701 730 l 701 42 q 676 -104 701 -41 q 606 -210 652 -168 q 497 -274 560 -253 q 356 -296 433 -296 m 325 14 q 229 36 277 14 q 139 102 180 58 q 74 215 98 146 q 49 376 49 283 q 91 579 49 498 q 199 700 134 660 q 331 741 264 741 q 475 693 412 741 q 572 565 537 645 q 607 387 607 485 q 570 201 607 286 q 468 65 532 117 q 325 14 404 14 m 380 189 q 448 213 418 189 q 495 282 478 238 q 512 382 512 326 q 495 481 512 439 q 450 545 479 522 q 385 567 422 567 q 319 545 349 567 q 273 481 290 522 q 256 382 256 439 q 272 282 256 326 q 316 214 288 239 q 380 189 344 189 m 97 849 l 97 979 l 649 979 l 649 849 l 97 849 z "},"h":{"ha":781,"x_min":74,"x_max":712,"o":"m 74 0 l 74 1044 l 288 1044 l 288 663 l 327 663 l 256 587 q 301 672 267 638 q 383 723 335 706 q 482 741 431 741 q 607 707 555 741 q 685 614 659 673 q 712 478 712 555 l 712 0 l 498 0 l 498 431 q 470 530 498 498 q 397 563 442 563 q 343 548 368 563 q 303 503 318 532 q 288 429 288 473 l 288 0 l 74 0 z "},"ħ":{"ha":781,"x_min":-35,"x_max":712,"o":"m 74 0 l 74 1044 l 288 1044 l 288 663 l 327 663 l 256 587 q 301 672 267 638 q 383 723 335 706 q 482 741 431 741 q 607 707 555 741 q 685 614 659 673 q 712 478 712 555 l 712 0 l 498 0 l 498 431 q 470 530 498 498 q 397 563 442 563 q 343 548 368 563 q 303 503 318 532 q 288 429 288 473 l 288 0 l 74 0 m -35 821 l -35 930 l 397 930 l 397 821 l -35 821 z "},"ḫ":{"ha":781,"x_min":74,"x_max":712,"o":"m 74 0 l 74 1044 l 288 1044 l 288 663 l 327 663 l 256 587 q 301 672 267 638 q 383 723 335 706 q 482 741 431 741 q 607 707 555 741 q 685 614 659 673 q 712 478 712 555 l 712 0 l 498 0 l 498 431 q 470 530 498 498 q 397 563 442 563 q 343 548 368 563 q 303 503 318 532 q 288 429 288 473 l 288 0 l 74 0 m 391 -313 q 261 -282 319 -313 q 169 -198 203 -251 q 135 -80 135 -146 l 265 -80 q 302 -163 266 -130 q 391 -197 338 -197 q 482 -163 446 -197 q 519 -80 518 -130 l 649 -80 q 615 -198 650 -146 q 523 -282 581 -251 q 391 -313 465 -313 z "},"ĥ":{"ha":781,"x_min":-80,"x_max":712,"o":"m 74 0 l 74 1044 l 288 1044 l 288 663 l 327 663 l 256 587 q 301 672 267 638 q 383 723 335 706 q 482 741 431 741 q 607 707 555 741 q 685 614 659 673 q 712 478 712 555 l 712 0 l 498 0 l 498 431 q 470 530 498 498 q 397 563 442 563 q 343 548 368 563 q 303 503 318 532 q 288 429 288 473 l 288 0 l 74 0 m 15 1092 l -81 1191 l 159 1358 l 201 1358 l 440 1191 l 348 1092 l 181 1218 l 178 1218 l 15 1092 z "},"ḥ":{"ha":781,"x_min":74,"x_max":712,"o":"m 74 0 l 74 1044 l 288 1044 l 288 663 l 327 663 l 256 587 q 301 672 267 638 q 383 723 335 706 q 482 741 431 741 q 607 707 555 741 q 685 614 659 673 q 712 478 712 555 l 712 0 l 498 0 l 498 431 q 470 530 498 498 q 397 563 442 563 q 343 548 368 563 q 303 503 318 532 q 288 429 288 473 l 288 0 l 74 0 m 393 -337 q 300 -299 338 -337 q 262 -207 262 -262 q 300 -113 262 -151 q 393 -76 338 -76 q 486 -113 448 -76 q 524 -207 524 -151 q 486 -299 524 -262 q 393 -337 448 -337 z "},"i":{"ha":781,"x_min":113,"x_max":564,"o":"m 326 0 l 326 730 l 540 730 l 540 0 l 326 0 m 113 547 l 113 730 l 540 730 l 540 547 l 113 547 m 433 813 q 340 851 378 813 q 302 943 302 888 q 340 1037 302 1000 q 433 1074 378 1074 q 527 1037 489 1074 q 564 943 564 1000 q 527 851 564 888 q 433 813 489 813 z "},"ı":{"ha":781,"x_min":113,"x_max":540,"o":"m 326 0 l 326 730 l 540 730 l 540 0 l 326 0 m 113 547 l 113 730 l 540 730 l 540 547 l 113 547 z "},"í":{"ha":781,"x_min":113,"x_max":655,"o":"m 326 0 l 326 730 l 540 730 l 540 0 l 326 0 m 113 547 l 113 730 l 540 730 l 540 547 l 113 547 m 433 784 l 343 861 l 537 1118 l 655 1001 l 433 784 z "},"ĭ":{"ha":781,"x_min":113,"x_max":690,"o":"m 326 0 l 326 730 l 540 730 l 540 0 l 326 0 m 113 547 l 113 730 l 540 730 l 540 547 l 113 547 m 432 809 q 302 840 360 809 q 210 923 243 871 q 176 1042 176 976 l 306 1042 q 342 959 307 992 q 432 925 378 925 q 523 959 486 925 q 559 1042 559 992 l 690 1042 q 656 923 690 976 q 563 840 621 871 q 432 809 505 809 z "},"ǐ":{"ha":781,"x_min":113,"x_max":692,"o":"m 326 0 l 326 730 l 540 730 l 540 0 l 326 0 m 113 547 l 113 730 l 540 730 l 540 547 l 113 547 m 253 1088 l 430 932 l 435 932 l 610 1088 l 692 988 l 452 781 l 410 781 l 173 988 l 253 1088 z "},"î":{"ha":781,"x_min":113,"x_max":693,"o":"m 326 0 l 326 730 l 540 730 l 540 0 l 326 0 m 113 547 l 113 730 l 540 730 l 540 547 l 113 547 m 254 777 l 174 876 l 412 1083 l 453 1083 l 693 876 l 610 777 l 436 933 l 431 933 l 254 777 z "},"ȉ":{"ha":781,"x_min":113,"x_max":648,"o":"m 326 0 l 326 730 l 540 730 l 540 0 l 326 0 m 113 547 l 113 730 l 540 730 l 540 547 l 113 547 m 536 794 l 384 1029 l 529 1097 l 648 820 l 536 794 m 288 794 l 136 1029 l 278 1097 l 400 820 l 288 794 z "},"ï":{"ha":781,"x_min":113,"x_max":715,"o":"m 326 0 l 326 730 l 540 730 l 540 0 l 326 0 m 113 547 l 113 730 l 540 730 l 540 547 l 113 547 m 597 824 q 514 859 548 824 q 479 943 479 893 q 514 1027 479 993 q 597 1061 548 1061 q 682 1027 648 1061 q 716 943 716 993 q 682 859 716 893 q 597 824 648 824 m 269 824 q 185 859 220 824 q 151 943 151 893 q 185 1027 151 993 q 269 1061 220 1061 q 353 1027 319 1061 q 387 943 387 993 q 353 859 387 893 q 269 824 319 824 z "},"ḯ":{"ha":781,"x_min":113,"x_max":715,"o":"m 326 0 l 326 730 l 540 730 l 540 0 l 326 0 m 113 547 l 113 730 l 540 730 l 540 547 l 113 547 m 597 824 q 514 859 548 824 q 479 943 479 893 q 514 1027 479 993 q 597 1061 548 1061 q 682 1027 648 1061 q 716 943 716 993 q 682 859 716 893 q 597 824 648 824 m 269 824 q 185 859 220 824 q 151 943 151 893 q 185 1027 151 993 q 269 1061 220 1061 q 353 1027 319 1061 q 387 943 387 993 q 353 859 387 893 q 269 824 319 824 m 433 1071 l 343 1147 l 537 1404 l 655 1288 l 433 1071 z "},"ị":{"ha":781,"x_min":113,"x_max":564,"o":"m 326 0 l 326 730 l 540 730 l 540 0 l 326 0 m 113 547 l 113 730 l 540 730 l 540 547 l 113 547 m 433 813 q 340 851 378 813 q 302 943 302 888 q 340 1037 302 1000 q 433 1074 378 1074 q 527 1037 489 1074 q 564 943 564 1000 q 527 851 564 888 q 433 813 489 813 m 433 -337 q 340 -299 378 -337 q 302 -207 302 -262 q 340 -113 302 -151 q 433 -76 378 -76 q 527 -113 489 -76 q 564 -207 564 -151 q 527 -299 564 -262 q 433 -337 489 -337 z "},"ì":{"ha":781,"x_min":113,"x_max":540,"o":"m 326 0 l 326 730 l 540 730 l 540 0 l 326 0 m 113 547 l 113 730 l 540 730 l 540 547 l 113 547 m 433 784 l 211 1001 l 329 1118 l 523 861 l 433 784 z "},"ỉ":{"ha":781,"x_min":113,"x_max":558,"o":"m 326 0 l 326 730 l 540 730 l 540 0 l 326 0 m 113 547 l 113 730 l 540 730 l 540 547 l 113 547 m 457 782 l 381 857 q 415 887 400 870 q 431 923 431 903 q 414 952 431 942 q 366 962 398 962 q 334 960 355 962 q 298 950 313 957 l 298 1074 q 340 1086 311 1082 q 393 1090 369 1090 q 513 1055 468 1090 q 558 952 558 1019 q 526 846 558 892 q 457 782 494 800 z "},"ȋ":{"ha":781,"x_min":113,"x_max":690,"o":"m 326 0 l 326 730 l 540 730 l 540 0 l 326 0 m 113 547 l 113 730 l 540 730 l 540 547 l 113 547 m 432 1046 q 563 1016 505 1046 q 656 932 621 985 q 690 814 690 880 l 559 814 q 522 897 559 863 q 432 930 486 930 q 342 897 378 930 q 306 814 306 863 l 176 814 q 210 932 176 880 q 301 1016 243 985 q 432 1046 359 1046 z "},"ī":{"ha":781,"x_min":113,"x_max":709,"o":"m 326 0 l 326 730 l 540 730 l 540 0 l 326 0 m 113 547 l 113 730 l 540 730 l 540 547 l 113 547 m 157 849 l 157 979 l 709 979 l 709 849 l 157 849 z "},"į":{"ha":781,"x_min":113,"x_max":564,"o":"m 326 0 l 326 730 l 540 730 l 540 0 l 326 0 m 113 547 l 113 730 l 540 730 l 540 547 l 113 547 m 433 813 q 340 851 378 813 q 302 943 302 888 q 340 1037 302 1000 q 433 1074 378 1074 q 527 1037 489 1074 q 564 943 564 1000 q 527 851 564 888 q 433 813 489 813 m 436 -293 q 328 -255 370 -293 q 286 -155 286 -218 q 325 -54 286 -99 q 431 34 363 -9 l 540 0 q 478 -43 507 -22 q 433 -86 450 -64 q 416 -130 416 -107 q 430 -162 416 -151 q 473 -173 444 -173 q 511 -168 491 -173 q 542 -157 532 -163 l 542 -275 q 490 -288 523 -283 q 436 -293 458 -293 z "},"ĩ":{"ha":781,"x_min":113,"x_max":694,"o":"m 326 0 l 326 730 l 540 730 l 540 0 l 326 0 m 113 547 l 113 730 l 540 730 l 540 547 l 113 547 m 168 814 q 213 973 168 912 q 334 1034 258 1034 q 397 1020 372 1034 q 441 988 423 1006 q 475 957 460 970 q 510 943 491 943 q 547 970 536 943 q 559 1034 558 997 l 693 1034 q 648 876 694 937 q 526 814 602 814 q 464 828 489 814 q 420 861 438 842 q 386 893 402 879 q 349 907 369 907 q 314 881 326 907 q 302 814 303 855 l 168 814 z "},"j":{"ha":781,"x_min":33,"x_max":630,"o":"m 281 -296 q 152 -280 216 -296 q 33 -238 87 -265 l 104 -64 q 183 -99 139 -86 q 265 -112 227 -112 q 324 -102 294 -112 q 373 -69 353 -92 q 393 -5 393 -45 l 393 730 l 607 730 l 607 -7 q 592 -104 607 -60 q 550 -184 578 -149 q 482 -244 522 -220 q 392 -282 442 -269 q 281 -296 341 -296 m 149 536 l 149 730 l 607 730 l 607 536 l 149 536 m 500 813 q 407 851 445 813 q 369 943 369 888 q 407 1037 369 1000 q 500 1074 445 1074 q 593 1037 555 1074 q 631 943 631 1000 q 593 851 631 888 q 500 813 555 813 z "},"ȷ":{"ha":781,"x_min":33,"x_max":607,"o":"m 281 -296 q 152 -280 216 -296 q 33 -238 87 -265 l 104 -64 q 183 -99 139 -86 q 265 -112 227 -112 q 324 -102 294 -112 q 373 -69 353 -92 q 393 -5 393 -45 l 393 730 l 607 730 l 607 -7 q 592 -104 607 -60 q 550 -184 578 -149 q 482 -244 522 -220 q 392 -282 442 -269 q 281 -296 341 -296 m 149 536 l 149 730 l 607 730 l 607 536 l 149 536 z "},"ĵ":{"ha":781,"x_min":33,"x_max":760,"o":"m 281 -296 q 152 -280 216 -296 q 33 -238 87 -265 l 104 -64 q 183 -99 139 -86 q 265 -112 227 -112 q 324 -102 294 -112 q 373 -69 353 -92 q 393 -5 393 -45 l 393 730 l 607 730 l 607 -7 q 592 -104 607 -60 q 550 -184 578 -149 q 482 -244 522 -220 q 392 -282 442 -269 q 281 -296 341 -296 m 149 536 l 149 730 l 607 730 l 607 536 l 149 536 m 321 777 l 240 876 l 478 1083 l 519 1083 l 760 876 l 677 777 l 503 933 l 497 933 l 321 777 z "},"k":{"ha":781,"x_min":79,"x_max":770,"o":"m 79 0 l 79 1044 l 293 1044 l 293 443 l 347 443 l 282 408 l 507 730 l 758 730 l 439 320 l 439 444 l 770 0 l 519 0 l 280 347 l 347 312 l 293 312 l 293 0 l 79 0 z "},"ķ":{"ha":781,"x_min":79,"x_max":770,"o":"m 79 0 l 79 1044 l 293 1044 l 293 443 l 347 443 l 282 408 l 507 730 l 758 730 l 439 320 l 439 444 l 770 0 l 519 0 l 280 347 l 347 312 l 293 312 l 293 0 l 79 0 m 344 -423 l 303 -370 l 365 -319 q 391 -292 376 -308 q 415 -259 405 -276 q 426 -229 426 -242 l 450 -228 q 438 -259 450 -245 q 399 -273 426 -273 q 339 -247 369 -273 q 309 -179 309 -221 q 337 -113 309 -138 q 399 -89 365 -89 q 467 -115 439 -89 q 495 -193 495 -140 q 479 -270 495 -236 q 443 -328 463 -304 q 409 -363 422 -351 l 344 -423 z "},"ĸ":{"ha":781,"x_min":75,"x_max":779,"o":"m 75 0 l 75 730 l 289 730 l 289 439 l 345 439 l 279 404 l 515 730 l 766 730 l 436 317 l 436 440 l 779 0 l 528 0 l 277 345 l 345 309 l 289 309 l 289 0 l 75 0 z "},"l":{"ha":781,"x_min":172,"x_max":711,"o":"m 475 -11 q 318 26 386 -11 q 211 127 250 62 q 172 277 172 192 l 172 1044 l 387 1044 l 387 280 q 420 203 387 233 q 508 173 454 173 q 577 186 542 173 q 639 222 612 199 l 711 50 q 599 6 663 22 q 475 -11 535 -11 z "},"ĺ":{"ha":781,"x_min":172,"x_max":711,"o":"m 475 -11 q 318 26 386 -11 q 211 127 250 62 q 172 277 172 192 l 172 1044 l 387 1044 l 387 280 q 420 203 387 233 q 508 173 454 173 q 577 186 542 173 q 639 222 612 199 l 711 50 q 599 6 663 22 q 475 -11 535 -11 m 278 1099 l 189 1175 l 382 1432 l 500 1316 l 278 1099 z "},"ľ":{"ha":781,"x_min":172,"x_max":711,"o":"m 475 -11 q 318 26 386 -11 q 211 127 250 62 q 172 277 172 192 l 172 1044 l 387 1044 l 387 280 q 420 203 387 233 q 508 173 454 173 q 577 186 542 173 q 639 222 612 199 l 711 50 q 599 6 663 22 q 475 -11 535 -11 m 523 698 l 524 1044 l 692 1044 l 669 698 l 523 698 z "},"ļ":{"ha":781,"x_min":172,"x_max":711,"o":"m 475 -11 q 318 26 386 -11 q 211 127 250 62 q 172 277 172 192 l 172 1044 l 387 1044 l 387 280 q 420 203 387 233 q 508 173 454 173 q 577 186 542 173 q 639 222 612 199 l 711 50 q 599 6 663 22 q 475 -11 535 -11 m 373 -423 l 332 -370 l 394 -319 q 420 -292 406 -308 q 445 -259 434 -276 q 455 -229 455 -242 l 479 -228 q 467 -259 479 -245 q 429 -273 455 -273 q 368 -247 398 -273 q 338 -179 338 -221 q 366 -113 338 -138 q 429 -89 394 -89 q 496 -115 468 -89 q 524 -193 524 -140 q 508 -270 524 -236 q 472 -328 492 -304 q 438 -363 452 -351 l 373 -423 z "},"ŀ":{"ha":781,"x_min":172,"x_max":822,"o":"m 475 -11 q 318 26 386 -11 q 211 127 250 62 q 172 277 172 192 l 172 1044 l 387 1044 l 387 280 q 420 203 387 233 q 508 173 454 173 q 577 186 542 173 q 639 222 612 199 l 711 50 q 599 6 663 22 q 475 -11 535 -11 m 687 376 q 593 415 631 376 q 555 510 555 453 q 593 605 555 566 q 687 643 631 643 q 783 605 745 643 q 822 510 822 566 q 783 415 822 453 q 687 376 745 376 z "},"ḷ":{"ha":781,"x_min":172,"x_max":711,"o":"m 475 -11 q 318 26 386 -11 q 211 127 250 62 q 172 277 172 192 l 172 1044 l 387 1044 l 387 280 q 420 203 387 233 q 508 173 454 173 q 577 186 542 173 q 639 222 612 199 l 711 50 q 599 6 663 22 q 475 -11 535 -11 m 428 -337 q 335 -299 373 -337 q 297 -207 297 -262 q 335 -113 297 -151 q 428 -76 373 -76 q 521 -113 484 -76 q 559 -207 559 -151 q 521 -299 559 -262 q 428 -337 484 -337 z "},"ḹ":{"ha":781,"x_min":2,"x_max":711,"o":"m 475 -11 q 318 26 386 -11 q 211 127 250 62 q 172 277 172 192 l 172 1044 l 387 1044 l 387 280 q 420 203 387 233 q 508 173 454 173 q 577 186 542 173 q 639 222 612 199 l 711 50 q 599 6 663 22 q 475 -11 535 -11 m 428 -337 q 335 -299 373 -337 q 297 -207 297 -262 q 335 -113 297 -151 q 428 -76 373 -76 q 521 -113 484 -76 q 559 -207 559 -151 q 521 -299 559 -262 q 428 -337 484 -337 m 2 1164 l 2 1293 l 554 1293 l 554 1164 l 2 1164 z "},"ǉ":{"ha":781,"x_min":106,"x_max":743,"o":"m 495 -296 q 400 -280 448 -296 q 314 -238 352 -265 l 366 -85 q 428 -118 394 -104 q 487 -132 462 -132 q 538 -109 520 -132 q 557 -47 557 -85 l 557 730 l 718 730 l 718 -50 q 656 -229 718 -161 q 495 -296 594 -296 m 309 -11 q 163 50 219 -11 q 106 210 106 110 l 106 1044 l 267 1044 l 267 224 q 284 179 267 196 q 326 163 300 163 q 358 168 341 163 q 391 183 374 174 l 442 25 q 374 -2 407 7 q 309 -11 342 -11 m 415 564 l 415 730 l 718 730 l 718 564 l 415 564 m 629 820 q 547 852 578 820 q 515 938 515 885 q 547 1024 515 991 q 629 1056 578 1056 q 712 1024 681 1056 q 743 938 743 991 q 712 852 743 885 q 629 820 682 820 z "},"ḻ":{"ha":781,"x_min":152,"x_max":711,"o":"m 475 -11 q 318 26 386 -11 q 211 127 250 62 q 172 277 172 192 l 172 1044 l 387 1044 l 387 280 q 420 203 387 233 q 508 173 454 173 q 577 186 542 173 q 639 222 612 199 l 711 50 q 599 6 663 22 q 475 -11 535 -11 m 152 -285 l 152 -155 l 704 -155 l 704 -285 l 152 -285 z "},"ł":{"ha":781,"x_min":27,"x_max":711,"o":"m 76 382 l 27 501 l 195 588 l 359 664 l 484 737 l 532 621 l 359 525 l 195 450 l 76 382 m 475 -11 q 318 26 386 -11 q 211 127 250 62 q 172 277 172 192 l 172 1044 l 387 1044 l 387 280 q 420 203 387 233 q 508 173 454 173 q 577 186 542 173 q 639 222 612 199 l 711 50 q 599 6 663 22 q 475 -11 535 -11 z "},"m":{"ha":781,"x_min":46,"x_max":739,"o":"m 46 0 l 46 730 l 204 730 l 204 644 l 226 644 l 193 612 q 248 707 213 673 q 333 741 283 741 q 415 709 380 741 q 457 627 450 677 l 437 653 l 466 653 l 441 627 q 498 709 457 677 q 597 741 540 741 q 674 719 646 741 q 717 665 703 697 q 735 599 731 632 q 739 542 739 566 l 739 0 l 559 0 l 559 519 q 549 565 559 547 q 515 582 538 582 q 481 566 494 582 q 467 519 467 549 l 467 0 l 318 0 l 318 519 q 307 566 318 550 q 274 582 296 582 q 240 566 254 582 q 227 517 227 549 l 227 0 l 46 0 z "}}}
